<?xml version="1.0" encoding="UTF-8"?>
<svg width="24px" height="72px" viewBox="0 0 24 72" version="1.1" xmlns="http://www.w3.org/2000/svg" xmlns:xlink="http://www.w3.org/1999/xlink">
    <!-- Generator: Sketch 53.2 (72643) - https://sketchapp.com -->
    <title>Artboard</title>
    <desc>Created with Sketch.</desc>
    <g id="Artboard" stroke="none" stroke-width="1" fill="none" fill-rule="evenodd">
        <path d="M14.438181,24 L14.438181,13.0524372 L18.270951,13.0524372 L18.844854,8.78597774 L14.438181,8.78597774 L14.438181,6.06211294 C14.438181,4.82687447 14.795955,3.98510021 16.6435197,3.98510021 L19,3.98411298 L19,0.168157408 C18.5924557,0.116163532 17.1936245,0 15.5661932,0 C12.1686557,0 9.84260971,1.98827213 9.84260971,5.63958043 L9.84260971,8.78597774 L6,8.78597774 L6,13.0524372 L9.84260971,13.0524372 L9.84260971,24 L14.438181,24 Z" id="Facebook-Copy-3" fill="#008F4C"></path>
        <path d="M14.438181,48 L14.438181,37.0524372 L18.270951,37.0524372 L18.844854,32.7859777 L14.438181,32.7859777 L14.438181,30.0621129 C14.438181,28.8268745 14.795955,27.9851002 16.6435197,27.9851002 L19,27.984113 L19,24.1681574 C18.5924557,24.1161635 17.1936245,24 15.5661932,24 C12.1686557,24 9.84260971,25.9882721 9.84260971,29.6395804 L9.84260971,32.7859777 L6,32.7859777 L6,37.0524372 L9.84260971,37.0524372 L9.84260971,48 L14.438181,48 Z" id="Facebook-Copy-4" fill="#231F20"></path>
        <path d="M14.438181,72 L14.438181,61.0524372 L18.270951,61.0524372 L18.844854,56.7859777 L14.438181,56.7859777 L14.438181,54.0621129 C14.438181,52.8268745 14.795955,51.9851002 16.6435197,51.9851002 L19,51.984113 L19,48.1681574 C18.5924557,48.1161635 17.1936245,48 15.5661932,48 C12.1686557,48 9.84260971,49.9882721 9.84260971,53.6395804 L9.84260971,56.7859777 L6,56.7859777 L6,61.0524372 L9.84260971,61.0524372 L9.84260971,72 L14.438181,72 Z" id="Facebook-Copy-5" fill="#FFFFFF"></path>
        <rect id="Rectangle-Copy-4" x="0" y="0" width="24" height="24"></rect>
        <rect id="Rectangle-Copy-5" x="0" y="24" width="24" height="24"></rect>
        <rect id="Rectangle-Copy-6" x="0" y="48" width="24" height="24"></rect>
    </g>
</svg>