<svg width="24px" height="72px" viewBox="0 0 24 72" version="1.1" xmlns="http://www.w3.org/2000/svg" xmlns:xlink="http://www.w3.org/1999/xlink">
    <g id="Artboard" stroke="none" stroke-width="1" fill="none" fill-rule="evenodd">
        <path d="M13.4499509,12 L20.6997053,19.2497544 C21.1000982,19.6501473 21.1000982,20.2993125 20.6997053,20.6997053 C20.2993125,21.1000982 19.6501473,21.1000982 19.2497544,20.6997053 L12,13.4499509 L4.75024555,20.6997053 C4.34985267,21.1000982 3.70068754,21.1000982 3.30029466,20.6997053 C2.89990178,20.2993125 2.89990178,19.6501473 3.30029466,19.2497544 L10.5500491,12 L3.30029466,4.75024555 C2.89990178,4.34985267 2.89990178,3.70068754 3.30029466,3.30029466 C3.70068754,2.89990178 4.34985267,2.89990178 4.75024555,3.30029466 L12,10.5500491 L19.2497544,3.30029466 C19.6501473,2.89990178 20.2993125,2.89990178 20.6997053,3.30029466 C21.1000982,3.70068754 21.1000982,4.34985267 20.6997053,4.75024555 L13.4499509,12 Z" id="Path" fill="#008F4C"></path>
        <path d="M13.4499509,36 L20.6997053,43.2497544 C21.1000982,43.6501473 21.1000982,44.2993125 20.6997053,44.6997053 C20.2993125,45.1000982 19.6501473,45.1000982 19.2497544,44.6997053 L12,37.4499509 L4.75024555,44.6997053 C4.34985267,45.1000982 3.70068754,45.1000982 3.30029466,44.6997053 C2.89990178,44.2993125 2.89990178,43.6501473 3.30029466,43.2497544 L10.5500491,36 L3.30029466,28.7502456 C2.89990178,28.3498527 2.89990178,27.7006875 3.30029466,27.3002947 C3.70068754,26.8999018 4.34985267,26.8999018 4.75024555,27.3002947 L12,34.5500491 L19.2497544,27.3002947 C19.6501473,26.8999018 20.2993125,26.8999018 20.6997053,27.3002947 C21.1000982,27.7006875 21.1000982,28.3498527 20.6997053,28.7502456 L13.4499509,36 Z" id="Path-Copy" fill="#231F20"></path>
        <path d="M13.4499509,60 L20.6997053,67.2497544 C21.1000982,67.6501473 21.1000982,68.2993125 20.6997053,68.6997053 C20.2993125,69.1000982 19.6501473,69.1000982 19.2497544,68.6997053 L12,61.4499509 L4.75024555,68.6997053 C4.34985267,69.1000982 3.70068754,69.1000982 3.30029466,68.6997053 C2.89990178,68.2993125 2.89990178,67.6501473 3.30029466,67.2497544 L10.5500491,60 L3.30029466,52.7502456 C2.89990178,52.3498527 2.89990178,51.7006875 3.30029466,51.3002947 C3.70068754,50.8999018 4.34985267,50.8999018 4.75024555,51.3002947 L12,58.5500491 L19.2497544,51.3002947 C19.6501473,50.8999018 20.2993125,50.8999018 20.6997053,51.3002947 C21.1000982,51.7006875 21.1000982,52.3498527 20.6997053,52.7502456 L13.4499509,60 Z" id="Path-Copy-2" fill="#FFFFFF"></path>
        <rect id="Rectangle-Copy-11" x="0" y="0" width="24" height="24"></rect>
        <rect id="Rectangle-Copy-12" x="0" y="24" width="24" height="24"></rect>
        <rect id="Rectangle-Copy-13" x="0" y="48" width="24" height="24"></rect>
    </g>
</svg>
