<svg width="19px" height="24px" viewBox="0 0 19 24" version="1.1" xmlns="http://www.w3.org/2000/svg" xmlns:xlink="http://www.w3.org/1999/xlink">
    <g id="MOB" stroke="none" stroke-width="1" fill="none" fill-rule="evenodd">
        <g id="PROJECT-PAGE_mob" transform="translate(-40.000000, -583.000000)" fill-rule="nonzero" stroke="#008F4C" stroke-width="2">
            <path d="M49.5,584 C44.8130389,584 41,587.681691 41,592.207158 C41,598.949802 48.6539371,605.533409 48.9798832,605.810445 C49.128466,605.936741 49.3141946,606 49.5,606 C49.6858054,606 49.871534,605.936815 50.0201936,605.810445 C50.3459861,605.533483 58,598.949876 58,592.207158 C58,587.681691 54.1869611,584 49.5,584 Z M49.5,589.903165 C50.8019422,589.903165 51.8611324,590.936717 51.8611324,592.207158 C51.8611324,593.477598 50.8019422,594.51115 49.5,594.51115 C48.1980578,594.51115 47.1388676,593.477598 47.1388676,592.207158 C47.1388676,590.936717 48.1980578,589.903165 49.5,589.903165 Z" id="Shape-Copy-23"></path>
        </g>
    </g>
</svg>
