<svg width="24px" height="72px" viewBox="0 0 24 72" version="1.1" xmlns="http://www.w3.org/2000/svg" xmlns:xlink="http://www.w3.org/1999/xlink">
    <g id="Artboard" stroke="none" stroke-width="1" fill="none" fill-rule="evenodd">
        <path d="M17.9889378,19.995 L14.4680479,16.474 C14.881035,16.246 15.2780226,15.979 15.6290116,15.629 C15.9790007,15.278 16.2459923,14.881 16.4729852,14.468 L19.9938752,17.988 C19.712884,18.364 19.4118934,18.729 19.070904,19.071 C18.7309147,19.41 18.3659261,19.712 17.9889378,19.995 M7.76025749,21.05 L11.7061342,17.103 C11.8041311,17.109 11.9021281,17.132 12.000125,17.132 C12.0911222,17.132 12.1801194,17.111 12.2711165,17.106 L16.2219931,21.057 C14.9160339,21.668 13.4850786,22 12.000125,22 C10.5091716,22 9.07221649,21.665 7.76025749,21.05 M3.99537514,17.974 L7.51726509,14.452 C7.7472579,14.871 8.01624949,15.274 8.3712384,15.629 C8.71722759,15.974 9.10921534,16.239 9.51620262,16.466 L5.99731258,19.985 C5.62532421,19.705 5.26433549,19.406 4.92834599,19.071 C4.58335677,18.725 4.28036624,18.355 3.99537514,17.974 M2.94640792,7.781 L6.89428455,11.728 C6.88528483,11.903 6.8832849,12.075 6.89128465,12.25 L2.93840817,16.203 C1.70644667,13.537 1.70844661,10.444 2.94640792,7.781 M6.01031218,4.004 L9.53220212,7.526 C9.11921502,7.754 8.72122746,8.02 8.3712384,8.371 C8.02024937,8.722 7.75425768,9.119 7.5262648,9.532 L4.00537483,6.012 C4.28736602,5.636 4.58735665,5.27 4.92834599,4.929 C5.26833536,4.589 5.63432393,4.287 6.01031218,4.004 M16.2069935,2.935 L12.2501172,6.891 C12.1661198,6.888 12.0831224,6.868 12.000125,6.868 C11.9091278,6.868 11.8191307,6.889 11.7281335,6.893 L7.77725696,2.942 C9.08421612,2.332 10.5141714,2 12.000125,2 C13.4780788,2 14.9040342,2.329 16.2069935,2.935 M12.000125,15.132 C11.1631512,15.132 10.3771757,14.807 9.78519421,14.215 C8.56423237,12.994 8.56423237,11.006 9.78519421,9.785 C10.3771757,9.193 11.1631512,8.868 12.000125,8.868 C12.8360989,8.868 13.6230743,9.193 14.2150558,9.785 C15.4350177,11.006 15.4350177,12.994 14.2150558,14.215 C13.6230743,14.807 12.8360989,15.132 12.000125,15.132 M19.9838755,5.997 L16.4659854,9.516 C16.2389925,9.109 15.9740008,8.717 15.6290116,8.371 C15.2740227,8.016 14.8710353,7.747 14.4520484,7.517 L17.9749383,3.994 C18.3569263,4.28 18.7269148,4.585 19.070904,4.929 C19.4078935,5.266 19.7048842,5.627 19.9838755,5.997 M17.1039655,11.706 L21.0458423,7.764 C22.2938033,10.437 22.2968032,13.545 21.0528421,16.22 L17.1059654,12.271 C17.1159651,12.082 17.1149652,11.895 17.1039655,11.706 M20.4848598,3.515 C18.1419331,1.171 15.071029,0 12.000125,0 C8.92822099,0 5.85831693,1.171 3.51439018,3.515 C-1.17146339,8.201 -1.17146339,15.799 3.51439018,20.485 C5.85831693,22.828 8.92822099,24 12.000125,24 C15.071029,24 18.1419331,22.828 20.4848598,20.485 C25.1717134,15.799 25.1717134,8.201 20.4848598,3.515" id="Fill-1" fill="#008F4C"></path>
        <path d="M17.9889378,43.995 L14.4680479,40.474 C14.881035,40.246 15.2780226,39.979 15.6290116,39.629 C15.9790007,39.278 16.2459923,38.881 16.4729852,38.468 L19.9938752,41.988 C19.712884,42.364 19.4118934,42.729 19.070904,43.071 C18.7309147,43.41 18.3659261,43.712 17.9889378,43.995 M7.76025749,45.05 L11.7061342,41.103 C11.8041311,41.109 11.9021281,41.132 12.000125,41.132 C12.0911222,41.132 12.1801194,41.111 12.2711165,41.106 L16.2219931,45.057 C14.9160339,45.668 13.4850786,46 12.000125,46 C10.5091716,46 9.07221649,45.665 7.76025749,45.05 M3.99537514,41.974 L7.51726509,38.452 C7.7472579,38.871 8.01624949,39.274 8.3712384,39.629 C8.71722759,39.974 9.10921534,40.239 9.51620262,40.466 L5.99731258,43.985 C5.62532421,43.705 5.26433549,43.406 4.92834599,43.071 C4.58335677,42.725 4.28036624,42.355 3.99537514,41.974 M2.94640792,31.781 L6.89428455,35.728 C6.88528483,35.903 6.8832849,36.075 6.89128465,36.25 L2.93840817,40.203 C1.70644667,37.537 1.70844661,34.444 2.94640792,31.781 M6.01031218,28.004 L9.53220212,31.526 C9.11921502,31.754 8.72122746,32.02 8.3712384,32.371 C8.02024937,32.722 7.75425768,33.119 7.5262648,33.532 L4.00537483,30.012 C4.28736602,29.636 4.58735665,29.27 4.92834599,28.929 C5.26833536,28.589 5.63432393,28.287 6.01031218,28.004 M16.2069935,26.935 L12.2501172,30.891 C12.1661198,30.888 12.0831224,30.868 12.000125,30.868 C11.9091278,30.868 11.8191307,30.889 11.7281335,30.893 L7.77725696,26.942 C9.08421612,26.332 10.5141714,26 12.000125,26 C13.4780788,26 14.9040342,26.329 16.2069935,26.935 M12.000125,39.132 C11.1631512,39.132 10.3771757,38.807 9.78519421,38.215 C8.56423237,36.994 8.56423237,35.006 9.78519421,33.785 C10.3771757,33.193 11.1631512,32.868 12.000125,32.868 C12.8360989,32.868 13.6230743,33.193 14.2150558,33.785 C15.4350177,35.006 15.4350177,36.994 14.2150558,38.215 C13.6230743,38.807 12.8360989,39.132 12.000125,39.132 M19.9838755,29.997 L16.4659854,33.516 C16.2389925,33.109 15.9740008,32.717 15.6290116,32.371 C15.2740227,32.016 14.8710353,31.747 14.4520484,31.517 L17.9749383,27.994 C18.3569263,28.28 18.7269148,28.585 19.070904,28.929 C19.4078935,29.266 19.7048842,29.627 19.9838755,29.997 M17.1039655,35.706 L21.0458423,31.764 C22.2938033,34.437 22.2968032,37.545 21.0528421,40.22 L17.1059654,36.271 C17.1159651,36.082 17.1149652,35.895 17.1039655,35.706 M20.4848598,27.515 C18.1419331,25.171 15.071029,24 12.000125,24 C8.92822099,24 5.85831693,25.171 3.51439018,27.515 C-1.17146339,32.201 -1.17146339,39.799 3.51439018,44.485 C5.85831693,46.828 8.92822099,48 12.000125,48 C15.071029,48 18.1419331,46.828 20.4848598,44.485 C25.1717134,39.799 25.1717134,32.201 20.4848598,27.515" id="Fill-1-Copy" fill="#231F20"></path>
        <path d="M17.9889378,67.995 L14.4680479,64.474 C14.881035,64.246 15.2780226,63.979 15.6290116,63.629 C15.9790007,63.278 16.2459923,62.881 16.4729852,62.468 L19.9938752,65.988 C19.712884,66.364 19.4118934,66.729 19.070904,67.071 C18.7309147,67.41 18.3659261,67.712 17.9889378,67.995 M7.76025749,69.05 L11.7061342,65.103 C11.8041311,65.109 11.9021281,65.132 12.000125,65.132 C12.0911222,65.132 12.1801194,65.111 12.2711165,65.106 L16.2219931,69.057 C14.9160339,69.668 13.4850786,70 12.000125,70 C10.5091716,70 9.07221649,69.665 7.76025749,69.05 M3.99537514,65.974 L7.51726509,62.452 C7.7472579,62.871 8.01624949,63.274 8.3712384,63.629 C8.71722759,63.974 9.10921534,64.239 9.51620262,64.466 L5.99731258,67.985 C5.62532421,67.705 5.26433549,67.406 4.92834599,67.071 C4.58335677,66.725 4.28036624,66.355 3.99537514,65.974 M2.94640792,55.781 L6.89428455,59.728 C6.88528483,59.903 6.8832849,60.075 6.89128465,60.25 L2.93840817,64.203 C1.70644667,61.537 1.70844661,58.444 2.94640792,55.781 M6.01031218,52.004 L9.53220212,55.526 C9.11921502,55.754 8.72122746,56.02 8.3712384,56.371 C8.02024937,56.722 7.75425768,57.119 7.5262648,57.532 L4.00537483,54.012 C4.28736602,53.636 4.58735665,53.27 4.92834599,52.929 C5.26833536,52.589 5.63432393,52.287 6.01031218,52.004 M16.2069935,50.935 L12.2501172,54.891 C12.1661198,54.888 12.0831224,54.868 12.000125,54.868 C11.9091278,54.868 11.8191307,54.889 11.7281335,54.893 L7.77725696,50.942 C9.08421612,50.332 10.5141714,50 12.000125,50 C13.4780788,50 14.9040342,50.329 16.2069935,50.935 M12.000125,63.132 C11.1631512,63.132 10.3771757,62.807 9.78519421,62.215 C8.56423237,60.994 8.56423237,59.006 9.78519421,57.785 C10.3771757,57.193 11.1631512,56.868 12.000125,56.868 C12.8360989,56.868 13.6230743,57.193 14.2150558,57.785 C15.4350177,59.006 15.4350177,60.994 14.2150558,62.215 C13.6230743,62.807 12.8360989,63.132 12.000125,63.132 M19.9838755,53.997 L16.4659854,57.516 C16.2389925,57.109 15.9740008,56.717 15.6290116,56.371 C15.2740227,56.016 14.8710353,55.747 14.4520484,55.517 L17.9749383,51.994 C18.3569263,52.28 18.7269148,52.585 19.070904,52.929 C19.4078935,53.266 19.7048842,53.627 19.9838755,53.997 M17.1039655,59.706 L21.0458423,55.764 C22.2938033,58.437 22.2968032,61.545 21.0528421,64.22 L17.1059654,60.271 C17.1159651,60.082 17.1149652,59.895 17.1039655,59.706 M20.4848598,51.515 C18.1419331,49.171 15.071029,48 12.000125,48 C8.92822099,48 5.85831693,49.171 3.51439018,51.515 C-1.17146339,56.201 -1.17146339,63.799 3.51439018,68.485 C5.85831693,70.828 8.92822099,72 12.000125,72 C15.071029,72 18.1419331,70.828 20.4848598,68.485 C25.1717134,63.799 25.1717134,56.201 20.4848598,51.515" id="Fill-1-Copy-2" fill="#FFFFFF"></path>
        <rect id="Rectangle-Copy-10" x="0" y="0" width="24" height="24"></rect>
        <rect id="Rectangle-Copy-11" x="0" y="24" width="24" height="24"></rect>
        <rect id="Rectangle-Copy-12" x="0" y="48" width="24" height="24"></rect>
    </g>
</svg>
