<svg xmlns="http://www.w3.org/2000/svg" width="24" height="24" viewBox="0 0 24 24">
    <path fill="#FFF" fill-rule="nonzero" d="M12.03 0c3.439 0 6.227 2.783 6.227 6.216a6.222 6.222 0 0 1-6.228 6.217 6.222 6.222 0 0 1-6.227-6.217C5.802 2.783 8.59 0 12.03 0zm0 8.786a2.572 2.572 0 0 0 2.574-2.57c0-1.419-1.153-2.57-2.575-2.57a2.572 2.572 0 0 0-2.574 2.57c0 1.42 1.153 2.57 2.574 2.57zm2.27 8.604l3.763 3.724c.662.66.663 1.73.002 2.39-.66.66-1.733.662-2.395.002l-3.653-3.552-3.318 3.529a1.69 1.69 0 0 1-1.22.517 1.69 1.69 0 0 1-1.218-2.863l3.572-3.727c-2.563-.495-4.119-1.704-4.199-1.768a1.688 1.688 0 0 1-.262-2.377 1.695 1.695 0 0 1 2.38-.26c.016.012 1.643 1.232 4.265 1.234 2.622-.002 4.215-1.222 4.23-1.235a1.695 1.695 0 0 1 2.38.261 1.688 1.688 0 0 1-.261 2.377c-.079.063-1.573 1.241-4.066 1.748z"/>
</svg>
