<svg width="24px" height="72px" viewBox="0 0 24 72" version="1.1" xmlns="http://www.w3.org/2000/svg" xmlns:xlink="http://www.w3.org/1999/xlink">
    <g id="Artboard" stroke="none" stroke-width="1" fill="none" fill-rule="evenodd">
        <path d="M9,7.65051018 C9,7.52209687 9.03885939,7.39655674 9.11168109,7.2897104 C9.3153955,6.99081407 9.72825341,6.91004629 10.033825,7.10931051 L16.7038195,11.4588349 C16.7768677,11.5064698 16.8395494,11.5677823 16.8882482,11.6392348 C17.0919627,11.9381311 17.0093911,12.34197 16.7038195,12.5412342 L10.033825,16.8907586 C9.92459248,16.9619895 9.79624864,17 9.66496745,17 C9.29771607,17 9,16.7087876 9,16.3495589 L9,7.65051018 Z" id="Fill-4-Copy-6" fill="#008F4C"></path>
        <path d="M9,31.6505102 C9,31.5220969 9.03885939,31.3965567 9.11168109,31.2897104 C9.3153955,30.9908141 9.72825341,30.9100463 10.033825,31.1093105 L16.7038195,35.4588349 C16.7768677,35.5064698 16.8395494,35.5677823 16.8882482,35.6392348 C17.0919627,35.9381311 17.0093911,36.34197 16.7038195,36.5412342 L10.033825,40.8907586 C9.92459248,40.9619895 9.79624864,41 9.66496745,41 C9.29771607,41 9,40.7087876 9,40.3495589 L9,31.6505102 Z" id="Fill-4-Copy-7" fill="#231F20"></path>
        <path d="M9,55.6505102 C9,55.5220969 9.03885939,55.3965567 9.11168109,55.2897104 C9.3153955,54.9908141 9.72825341,54.9100463 10.033825,55.1093105 L16.7038195,59.4588349 C16.7768677,59.5064698 16.8395494,59.5677823 16.8882482,59.6392348 C17.0919627,59.9381311 17.0093911,60.34197 16.7038195,60.5412342 L10.033825,64.8907586 C9.92459248,64.9619895 9.79624864,65 9.66496745,65 C9.29771607,65 9,64.7087876 9,64.3495589 L9,55.6505102 Z" id="Fill-4-Copy-8" fill="#FFFFFF"></path>
        <rect id="Rectangle-Copy" x="0" y="0" width="24" height="24"></rect>
        <rect id="Rectangle-Copy-2" x="0" y="24" width="24" height="24"></rect>
        <rect id="Rectangle-Copy-3" x="0" y="48" width="24" height="24"></rect>
    </g>
</svg>
