<?xml version="1.0" encoding="UTF-8"?>
<svg width="42px" height="39px" viewBox="0 0 42 39" version="1.1" xmlns="http://www.w3.org/2000/svg" xmlns:xlink="http://www.w3.org/1999/xlink">
    <!-- Generator: Sketch 52.3 (67297) - http://www.bohemiancoding.com/sketch -->
    <title>Shape</title>
    <desc>Created with Sketch.</desc>
    <g id="MOB" stroke="none" stroke-width="1" fill="none" fill-rule="evenodd">
        <g id="SUDF_tab" transform="translate(-71.000000, -458.000000)" fill="#008F4C" fill-rule="nonzero">
            <path d="M92.0003,473.433206 C87.8354833,473.435967 85.7077284,474.454102 84.7652143,476.434021 C84.527831,476.932686 83.9311453,477.144498 83.4324795,476.907114 C82.9338137,476.669731 82.7220023,476.073045 82.9593857,475.574379 C84.2788086,472.802697 87.1319148,471.437161 91.9961069,471.433209 L92.0003,471.4332 L92.0173,471.433206 L92.0214921,471.433209 C96.8867752,471.43716 99.7401235,472.802812 101.058376,475.574719 C101.295572,476.073474 101.083536,476.67008 100.584781,476.907276 C100.086026,477.144472 99.4894201,476.932436 99.2522242,476.433681 C98.3095052,474.451413 96.1772367,473.4332 92.0003,473.4332 L92.0003,473.433206 Z M93.0088,484.582186 L95.6999068,487.273293 C96.0904311,487.663818 96.0904311,488.296982 95.6999068,488.687507 C95.3093825,489.078031 94.6762175,489.078031 94.2856932,488.687507 L92.00895,486.410764 L89.7659068,488.653807 C89.3753825,489.044331 88.7422175,489.044331 88.3516932,488.653807 C87.9611689,488.263282 87.9611689,487.630118 88.3516932,487.239593 L91.0088,484.582486 L91.0088,481.3577 C91.0088,480.805415 91.4565153,480.3577 92.0088,480.3577 C92.5610847,480.3577 93.0088,480.805415 93.0088,481.3577 L93.0088,484.582186 Z M98,464.0003 C98,467.313899 95.3139703,470.0003 92,470.0003 C88.6867153,470.0003 86,467.313585 86,464.0003 C86,460.68633 88.6864008,458.0003 92,458.0003 C95.3142847,458.0003 98,460.686015 98,464.0003 Z M96,464.0003 C96,461.790585 94.2097153,460.0003 92,460.0003 C89.7909084,460.0003 88,461.790961 88,464.0003 C88,466.209015 89.7912847,468.0003 92,468.0003 C94.209339,468.0003 96,466.209392 96,464.0003 Z M109.9971,482.4124 C109.9971,485.005685 107.895385,487.1074 105.3021,487.1074 C102.708601,487.1074 100.6051,485.005471 100.6051,482.4124 C100.6051,479.819222 102.708708,477.7164 105.3021,477.7164 C107.895278,477.7164 109.9971,479.819008 109.9971,482.4124 Z M107.9971,482.4124 C107.9971,480.92341 106.790541,479.7164 105.3021,479.7164 C103.81311,479.7164 102.6051,480.923959 102.6051,482.4124 C102.6051,483.900567 103.812836,485.1074 105.3021,485.1074 C106.790815,485.1074 107.9971,483.901115 107.9971,482.4124 Z M112.9531,495.7161 C112.9531,496.268385 112.505385,496.7161 111.9531,496.7161 L98.6491,496.7161 C98.0968153,496.7161 97.6491,496.268385 97.6491,495.7161 C97.6491,490.423909 99.4147767,488.0651 105.3021,488.0651 C111.187809,488.0651 112.9531,490.424048 112.9531,495.7161 Z M110.931048,494.7161 C110.76153,491.209314 109.555618,490.0651 105.3021,490.0651 C101.046955,490.0651 99.840715,491.209262 99.6711568,494.7161 L110.931048,494.7161 Z M83.3477,482.4124 C83.3477,485.005685 81.2459847,487.1074 78.6527,487.1074 C76.0593081,487.1074 73.9567,485.005578 73.9567,482.4124 C73.9567,479.819115 76.0594153,477.7164 78.6527,477.7164 C81.2458777,477.7164 83.3477,479.819008 83.3477,482.4124 Z M81.3477,482.4124 C81.3477,480.92341 80.1411408,479.7164 78.6527,479.7164 C77.1639847,479.7164 75.9567,480.923685 75.9567,482.4124 C75.9567,483.900841 77.1637103,485.1074 78.6527,485.1074 C80.1414153,485.1074 81.3477,483.901115 81.3477,482.4124 Z M86.3042,495.7161 C86.3042,496.268385 85.8564847,496.7161 85.3042,496.7161 L72.0002,496.7161 C71.4479153,496.7161 71.0002,496.268385 71.0002,495.7161 C71.0002,490.423979 72.7656839,488.0651 78.6522,488.0651 C84.5387161,488.0651 86.3042,490.423979 86.3042,495.7161 Z M78.6522,490.0651 C74.3978686,490.0651 73.1917923,491.209288 73.0222544,494.7161 L84.2821456,494.7161 C84.1126077,491.209288 82.9065314,490.0651 78.6522,490.0651 Z" id="Shape"></path>
        </g>
    </g>
</svg>