<?xml version="1.0" encoding="UTF-8"?>
<svg width="42px" height="25px" viewBox="0 0 42 25" version="1.1" xmlns="http://www.w3.org/2000/svg" xmlns:xlink="http://www.w3.org/1999/xlink">
    <!-- Generator: Sketch 52.3 (67297) - http://www.bohemiancoding.com/sketch -->
    <title>Shape</title>
    <desc>Created with Sketch.</desc>
    <g id="MOB" stroke="none" stroke-width="1" fill="none" fill-rule="evenodd">
        <g id="SUDF_tab" transform="translate(-430.000000, -472.000000)" fill="#008F4C" fill-rule="nonzero">
            <path d="M457,478.0005 C457,481.314099 454.31397,484.0005 451,484.0005 C447.686715,484.0005 445,481.313785 445,478.0005 C445,474.68653 447.686401,472.0005 451,472.0005 C454.314285,472.0005 457,474.686215 457,478.0005 Z M455,478.0005 C455,475.790785 453.209715,474.0005 451,474.0005 C448.790908,474.0005 447,475.791161 447,478.0005 C447,480.209215 448.791285,482.0005 451,482.0005 C453.209339,482.0005 455,480.209592 455,478.0005 Z M461,495.4331 C461,495.985385 460.552285,496.4331 460,496.4331 L442,496.4331 C441.447715,496.4331 441,495.985385 441,495.4331 C441,488.449012 443.256899,485.4331 451,485.4331 C458.743101,485.4331 461,488.449012 461,495.4331 Z M451,487.4331 C444.884006,487.4331 443.191349,489.221801 443.015842,494.4331 L458.984158,494.4331 C458.808651,489.221801 457.115994,487.4331 451,487.4331 Z M468.9971,481.1284 C468.9971,483.721792 466.895278,485.8244 464.3021,485.8244 C461.708708,485.8244 459.6051,483.721578 459.6051,481.1284 C459.6051,478.535329 461.708601,476.4334 464.3021,476.4334 C466.895385,476.4334 468.9971,478.535115 468.9971,481.1284 Z M466.9971,481.1284 C466.9971,479.639685 465.790815,478.4334 464.3021,478.4334 C462.812836,478.4334 461.6051,479.640233 461.6051,481.1284 C461.6051,482.616841 462.81311,483.8244 464.3021,483.8244 C465.790541,483.8244 466.9971,482.61739 466.9971,481.1284 Z M442.3477,481.1284 C442.3477,483.721792 440.245878,485.8244 437.6527,485.8244 C435.059415,485.8244 432.9567,483.721685 432.9567,481.1284 C432.9567,478.535222 435.059308,476.4334 437.6527,476.4334 C440.245985,476.4334 442.3477,478.535115 442.3477,481.1284 Z M440.3477,481.1284 C440.3477,479.639685 439.141415,478.4334 437.6527,478.4334 C436.16371,478.4334 434.9567,479.639959 434.9567,481.1284 C434.9567,482.617115 436.163985,483.8244 437.6527,483.8244 C439.141141,483.8244 440.3477,482.61739 440.3477,481.1284 Z M438.9878,493.4335 C439.540085,493.4335 439.9878,493.881215 439.9878,494.4335 C439.9878,494.985785 439.540085,495.4335 438.9878,495.4335 L430.9998,495.4335 C430.447515,495.4335 429.9998,494.985785 429.9998,494.4335 C429.9998,489.140587 431.765455,486.7805 437.6518,486.7805 C438.563678,486.7805 439.382619,486.844652 440.115456,486.972343 C440.659543,487.067146 441.02376,487.585069 440.928957,488.129156 C440.834154,488.673243 440.316231,489.03746 439.772144,488.942657 C439.158458,488.835727 438.453449,488.7805 437.6518,488.7805 C433.397744,488.7805 432.191401,489.925663 432.021851,493.4335 L438.9878,493.4335 Z M464.3018,488.7805 C463.500151,488.7805 462.795142,488.835727 462.181456,488.942657 C461.637369,489.03746 461.119446,488.673243 461.024643,488.129156 C460.92984,487.585069 461.294057,487.067146 461.838144,486.972343 C462.570981,486.844652 463.389922,486.7805 464.3018,486.7805 C470.188031,486.7805 471.9528,489.140058 471.9528,494.4335 C471.9528,494.985785 471.505085,495.4335 470.9528,495.4335 L462.9658,495.4335 C462.413515,495.4335 461.9658,494.985785 461.9658,494.4335 C461.9658,493.881215 462.413515,493.4335 462.9658,493.4335 L469.930769,493.4335 C469.761345,489.925182 468.555661,488.7805 464.3018,488.7805 Z" id="Shape"></path>
        </g>
    </g>
</svg>