<svg xmlns="http://www.w3.org/2000/svg" width="24" height="24" viewBox="0 0 24 24">
    <path fill="#FFF" fill-rule="evenodd" d="M23.45 6.016c.166-.586 0-1.016-.795-1.016H20.03c-.668 0-.976.372-1.143.781 0 0-1.335 3.426-3.226 5.65-.612.644-.89.85-1.224.85-.167 0-.409-.206-.409-.791V6.016c0-.703-.193-1.016-.75-1.016H9.152a.648.648 0 0 0-.668.635c0 .666.946.82 1.043 2.693v4.07c0 .891-.153 1.053-.487 1.053-.89 0-3.055-3.44-4.339-7.377C4.449 5.31 4.197 5 3.526 5H.9c-.75 0-.9.372-.9.781 0 .732.89 4.362 4.145 9.163C6.315 18.223 9.37 20 12.153 20c1.669 0 1.875-.395 1.875-1.075v-2.478c0-.79.158-.947.687-.947.39 0 1.057.205 2.615 1.786C19.11 19.16 19.403 20 20.405 20h2.625c.75 0 1.126-.395.91-1.174-.237-.776-1.088-1.903-2.215-3.238-.612-.761-1.53-1.58-1.808-1.99-.39-.527-.279-.762 0-1.23 0 0 3.199-4.742 3.532-6.352"/>
</svg>
