<svg xmlns="http://www.w3.org/2000/svg" width="24" height="24" viewBox="0 0 24 24">
    <path fill="#FFF" fill-rule="evenodd" d="M9.522 15.635V8.844l6.484 3.407-6.484 3.384zM23.76 7.667s-.235-1.665-.954-2.398c-.913-.963-1.936-.968-2.405-1.024C17.043 4 12.005 4 12.005 4h-.01s-5.038 0-8.396.245c-.47.056-1.493.06-2.405 1.024C.474 6 .24 7.667.24 7.667S0 9.624 0 11.579v1.834c0 1.957.24 3.912.24 3.912s.234 1.665.954 2.399c.913.963 2.112.933 2.646 1.033C5.76 20.942 12 21 12 21s5.043-.008 8.401-.252c.469-.057 1.492-.061 2.405-1.024.719-.734.954-2.399.954-2.399s.24-1.955.24-3.912v-1.834c0-1.956-.24-3.912-.24-3.912z"/>
</svg>
