<svg width="156" height="155" viewBox="0 0 156 155" fill="none" xmlns="http://www.w3.org/2000/svg">
<path opacity="0.4" d="M77.6586 154.67C58.591 154.67 43.1337 152.296 43.1337 149.367C43.1337 146.439 58.591 144.064 77.6586 144.064C96.7262 144.064 112.183 146.439 112.183 149.367C112.183 152.296 96.7262 154.67 77.6586 154.67Z" fill="#E4E3E3"/>
<path d="M87.8409 147.005C88.2728 145.649 89.0374 144.419 90.0668 143.426C91.0962 142.432 92.3583 141.705 93.7411 141.309C94.9402 140.938 96.2276 140.949 97.42 141.341C101.526 142.798 101.035 147.139 101.035 147.139L87.8036 147.107L87.8409 147.005Z" fill="#4F7622"/>
<path d="M67.7246 143.505C67.9963 143.505 68.2575 143.401 68.4536 143.216C68.6497 143.03 68.7654 142.776 68.7764 142.508C69.0307 135.691 70.488 128.97 73.0827 122.647C73.1864 122.391 73.183 122.105 73.0731 121.852C72.9632 121.599 72.7559 121.399 72.4967 121.297C72.2376 121.194 71.9478 121.198 71.6912 121.306C71.4346 121.415 71.2322 121.619 71.1285 121.875C68.4417 128.419 66.9329 135.376 66.67 142.432C66.665 142.568 66.6873 142.704 66.7356 142.832C66.7839 142.96 66.8572 143.077 66.9515 143.177C67.0457 143.277 67.1589 143.358 67.2847 143.414C67.4105 143.471 67.5463 143.503 67.6845 143.507L67.7246 143.505Z" fill="#4F7622"/>
<path d="M88.6366 147.627C88.9189 147.627 89.1904 147.519 89.394 147.326C89.5976 147.133 89.7175 146.869 89.7285 146.591C89.9937 139.504 91.5088 132.517 94.2056 125.944C94.289 125.683 94.2691 125.401 94.1498 125.154C94.0306 124.907 93.821 124.714 93.5632 124.614C93.3055 124.514 93.0187 124.513 92.7609 124.614C92.5031 124.714 92.2933 124.907 92.174 125.154C89.3813 131.956 87.8129 139.187 87.5393 146.522C87.53 146.808 87.6356 147.086 87.8332 147.296C88.0307 147.505 88.3042 147.629 88.5939 147.64L88.6366 147.627Z" fill="#4F7622"/>
<path d="M61.2158 142.629C63.6346 141.014 65.5381 141.478 68.2425 142.569C69.4193 143.002 70.4275 143.79 71.1232 144.822L71.2406 145.015C72.8985 147.827 69.2864 149.587 66.0453 148.968C63.0606 148.391 61.3226 145.911 60.6178 144.393C60.4823 144.101 60.4568 143.772 60.5459 143.463C60.635 143.155 60.8328 142.888 61.1037 142.711L61.2158 142.629Z" fill="#4F7622"/>
<path d="M82.5123 34.3713C100.963 33.6175 123.439 42.7126 128.432 68.2269C133.424 93.7411 118.941 120.729 96.4856 127.107C74.0306 133.484 50.1926 129.428 36.7879 109.222C23.4633 89.1396 25.778 67.9976 38.0881 51.054C50.5664 33.8811 70.5333 34.8615 82.5123 34.3713Z" fill="#D61237"/>
<path d="M38.9048 49.9761C51.4232 33.9259 70.7894 34.8509 82.5122 34.3713C100.963 33.6175 123.439 42.7126 128.432 68.2269C130.159 77.254 129.595 86.563 126.79 95.3225C121.279 102.054 114.156 107.119 105.966 109.443C83.5027 115.821 60.0304 113.413 43.0376 92.5315C32.3186 79.354 34.7053 62.7503 38.9048 49.9761Z" fill="#FF2242"/>
<path d="M96.9849 38.7883C96.9849 38.7883 97.9834 48.6003 84.0073 48.6003C70.0313 48.6003 65.5408 40.2589 67.5378 37.7947C67.5378 37.7947 71.5424 43.685 83.0222 44.1752C94.502 44.6654 96.9849 38.7883 96.9849 38.7883Z" fill="#D61237"/>
<path opacity="0.18" d="M105.472 47.4144C110.974 46.513 124.427 59.1898 117.948 63.6068C111.468 68.0239 99.4811 48.3948 105.472 47.4144Z" fill="white"/>
<path opacity="0.18" d="M69.0754 55.4183C64.9454 53.0621 62.4412 47.5856 57.673 47.3958C54.1223 47.2562 51.1242 50.5927 50.7985 54.0715C50.4728 57.5504 52.2615 60.9238 54.6536 63.5172C62.0327 71.5027 76.5881 73.851 86.5702 69.4998C92.481 66.9196 93.9707 61.6144 87.4539 58.3305C81.762 55.4605 74.7139 58.631 69.0754 55.4183Z" fill="white"/>
<path d="M84.2208 48.3605C83.2874 41.2557 84.8761 34.0511 88.7167 27.9722C89.6244 27.5031 90.9966 26.0299 90.9966 26.0299C90.9966 26.0299 89.7712 24.3142 89.0397 23.6579C88.6689 23.284 88.2104 23.0061 87.7048 22.8488C87.024 22.6828 86.3139 22.8883 85.6438 23.0913C84.8614 23.259 84.0698 23.3822 83.2731 23.4602C83.2064 24.5356 83.2619 25.615 83.4386 26.6782C81.3723 32.9006 80.7689 41.5715 80.7689 48.1154C80.7636 48.8982 83.6762 48.4369 84.2208 48.3605Z" fill="#A96000"/>
<path d="M83.257 23.5102L83.3211 23.447C84.0977 23.3737 84.8689 23.2531 85.6304 23.0859C86.3005 22.883 87.0107 22.6774 87.6915 22.8434C88.197 23.0008 88.6555 23.2786 89.0263 23.6525C89.7578 24.314 90.9833 26.0245 90.9833 26.0245C89.8086 25.9797 88.6659 25.9533 87.534 26.7097C87.4459 26.7791 87.344 26.8294 87.235 26.8573C86.9253 26.9047 86.717 26.57 86.5702 26.2986C85.8647 25.0032 84.6705 24.0345 83.2464 23.6025C83.2499 23.5673 83.2535 23.5366 83.257 23.5102Z" fill="#7F6844"/>
<path d="M147.258 80.6585C140.397 76.8081 140.005 87.7744 142.362 89.0921C144.72 90.4099 152.192 83.4258 147.258 80.6585Z" fill="#FF2242"/>
<path d="M134.209 102.496C134.434 102.496 134.656 102.438 134.852 102.329C135.049 102.219 135.213 102.062 135.33 101.872L143.769 88.1432C143.858 87.9977 143.916 87.8363 143.942 87.6684C143.967 87.5005 143.959 87.3293 143.917 87.1646C143.875 86.9999 143.801 86.8449 143.699 86.7085C143.597 86.5721 143.468 86.4569 143.321 86.3695C143.173 86.2821 143.01 86.2242 142.84 86.1992C142.67 86.1742 142.496 86.1824 142.329 86.2236C142.162 86.2647 142.005 86.3378 141.867 86.4388C141.729 86.5398 141.612 86.6667 141.524 86.8123L133.624 99.6709L119.715 95.325C119.551 95.273 119.379 95.2534 119.208 95.2671C119.037 95.2809 118.871 95.3278 118.718 95.4051C118.565 95.4825 118.429 95.5887 118.318 95.7179C118.207 95.847 118.123 95.9965 118.07 96.1578C118.018 96.319 117.998 96.489 118.012 96.6579C118.026 96.8267 118.073 96.9912 118.151 97.142C118.23 97.2927 118.337 97.4268 118.468 97.5365C118.599 97.6462 118.751 97.7293 118.914 97.7812L133.806 102.436C133.936 102.476 134.072 102.496 134.209 102.496Z" fill="#FF2242"/>
<path d="M9.31636 81.5677C16.1776 77.7172 16.5727 88.6836 14.2153 90.0014C11.8579 91.3191 4.38538 84.3377 9.31636 81.5677Z" fill="#FF2242"/>
<path d="M22.3685 103.406C22.5035 103.406 22.6377 103.386 22.7663 103.345L37.6581 98.6906C37.8215 98.6387 37.9729 98.5555 38.1037 98.4458C38.2345 98.3361 38.3421 98.2021 38.4205 98.0514C38.4988 97.9006 38.5463 97.7361 38.5603 97.5672C38.5742 97.3983 38.5543 97.2284 38.5017 97.0671C38.4491 96.9059 38.3649 96.7564 38.2538 96.6272C38.1426 96.4981 38.0069 96.3918 37.8541 96.3145C37.7014 96.2371 37.5348 96.1903 37.3637 96.1765C37.1927 96.1628 37.0205 96.1824 36.8572 96.2343L22.9505 100.58L15.0588 87.7216C14.872 87.4482 14.5863 87.2557 14.2603 87.1836C13.9344 87.1115 13.5928 87.1652 13.3057 87.3337C13.0186 87.5022 12.8076 87.7728 12.7161 88.0899C12.6246 88.4071 12.6594 88.7468 12.8135 89.0394L21.2419 102.77C21.3575 102.964 21.5222 103.124 21.7198 103.236C21.9174 103.347 22.141 103.406 22.3685 103.406Z" fill="#FF2242"/>
<path d="M92.2777 86.6637C86.5984 81.8921 85.877 73.5203 90.6666 67.9647C95.4562 62.4092 103.943 61.7736 109.622 66.5451C115.302 71.3167 116.023 79.6885 111.233 85.2441C106.444 90.7997 97.9571 91.4352 92.2777 86.6637Z" fill="#D61237"/>
<path d="M93.8242 84.2152C88.3324 79.6012 87.6345 71.5063 92.2654 66.1347C96.8963 60.7631 105.102 60.149 110.594 64.763C116.086 69.377 116.784 77.472 112.153 82.8435C107.522 88.2151 99.3161 88.8292 93.8242 84.2152Z" fill="white"/>
<path d="M98.0968 82.7048C94.2841 79.5027 93.7989 73.8836 97.0129 70.1542C100.227 66.4248 105.923 65.9973 109.736 69.1994C113.549 72.4015 114.034 78.0206 110.82 81.75C107.606 85.4794 101.909 85.9068 98.0968 82.7048Z" fill="#8DA03F"/>
<path d="M102.282 78.6178C99.7897 76.5249 99.4727 72.852 101.574 70.4141C103.675 67.9763 107.398 67.6966 109.89 69.7895C112.382 71.8824 112.699 75.5554 110.598 77.9932C108.497 80.4311 104.774 80.7107 102.282 78.6178Z" fill="#342530"/>
<path opacity="0.44" d="M112.817 71.6854C112.253 70.9352 111.41 70.4361 110.474 70.2973C109.538 70.1585 108.585 70.3913 107.822 70.9448C107.447 71.2206 107.131 71.5669 106.893 71.9637C106.654 72.3606 106.497 72.8001 106.431 73.257C106.366 73.7139 106.392 74.1792 106.509 74.6259C106.627 75.0727 106.832 75.4921 107.114 75.86C107.387 76.242 107.735 76.5662 108.136 76.8137C108.538 77.0611 108.986 77.2268 109.453 77.3009C109.921 77.375 110.398 77.3561 110.858 77.2453C111.318 77.1345 111.751 76.934 112.131 76.6556C112.512 76.3772 112.832 76.0265 113.073 75.6242C113.314 75.2219 113.471 74.7761 113.535 74.313C113.598 73.85 113.568 73.3789 113.445 72.9277C113.321 72.4764 113.108 72.054 112.817 71.6854Z" fill="white"/>
<path d="M53.9393 86.6517C48.2599 81.8801 47.5386 73.5083 52.3282 67.9527C57.1177 62.3972 65.6045 61.7616 71.2839 66.5332C76.9632 71.3047 77.6846 79.6765 72.895 85.2321C68.1054 90.7877 59.6187 91.4233 53.9393 86.6517Z" fill="#D61237"/>
<path d="M55.4884 84.2425C49.9965 79.6285 49.2986 71.5336 53.9295 66.162C58.5605 60.7905 66.7666 60.1763 72.2585 64.7904C77.7504 69.4044 78.4483 77.4993 73.8173 82.8709C69.1864 88.2424 60.9802 88.8565 55.4884 84.2425Z" fill="white"/>
<path d="M59.7516 82.6125C55.9395 79.4097 55.4552 73.7906 58.6699 70.0617C61.8846 66.3329 67.581 65.9064 71.393 69.1091C75.2051 72.3119 75.6894 77.931 72.4747 81.6599C69.26 85.3887 63.5636 85.8152 59.7516 82.6125Z" fill="#8DA03F"/>
<path d="M64.1795 78.6172C61.6879 76.5238 61.3716 72.8509 63.473 70.4134C65.5745 67.9759 69.2978 67.6969 71.7894 69.7902C74.281 71.8836 74.5974 75.5565 72.496 77.994C70.3945 80.4315 66.6712 80.7105 64.1795 78.6172Z" fill="#342530"/>
<path opacity="0.44" d="M69.584 76.4643C68.078 75.1995 67.8865 72.9798 69.1563 71.5064C70.426 70.0331 72.6762 69.864 74.1821 71.1288C75.6881 72.3936 75.8796 74.6133 74.6098 76.0867C73.3401 77.5601 71.0899 77.7291 69.584 76.4643Z" fill="white"/>
<path d="M69.3425 92.115C69.3425 92.115 83.5134 98.2979 94.8143 91.6511C94.8143 91.6511 93.2312 105.509 82.6137 105.775C70.8429 106.073 69.3425 92.115 69.3425 92.115Z" fill="#A21E25"/>
<path d="M72.2205 93.1218C72.2637 93.9886 72.3663 94.8515 72.5275 95.7046C74.9169 97.1146 77.5572 97.1357 80.235 97.4493C81.2192 97.5822 82.2105 97.6588 83.2037 97.6786C86.0283 97.6786 88.7888 96.743 91.4985 95.8074C91.4718 94.9799 91.4772 94.0943 91.4238 93.222C84.0741 95.9287 76.2891 94.3526 72.2205 93.1218Z" fill="white"/>
<path d="M89.7312 102.799C88.9815 101.966 88.0665 101.293 87.0428 100.823C84.5252 99.5866 81.6339 98.9989 78.8547 99.439C76.8758 99.7474 75.0251 100.601 73.5153 101.901C75.4989 104.157 78.3929 105.883 82.6084 105.775C85.2858 105.742 87.8433 104.674 89.7312 102.799Z" fill="#FD4E4C"/>
<path d="M76.8122 36.5164C76.8122 36.5164 82.0529 28.1751 72.8077 16.8899C63.5624 5.60464 41.1128 0.699951 41.1128 0.699951C41.1128 0.699951 33.3706 12.4754 43.8572 28.6653C54.3439 44.8552 71.5609 42.897 75.5521 38.2348L76.8122 36.5164Z" fill="#72A551"/>
<path d="M82.8005 39.9505C82.8005 39.9505 73.0667 35.0458 62.8363 25.7188C52.6059 16.3918 41.6227 2.16797 41.6227 2.16797C41.6227 2.16797 52.355 18.8507 62.3371 27.9274C70.2662 35.1381 82.5522 41.9113 82.5522 41.9113L82.8005 39.9505Z" fill="#4F7622"/>
</svg>
