<svg width="206" height="268" viewBox="0 0 206 268" fill="none" xmlns="http://www.w3.org/2000/svg">
<path d="M84.5689 241.739C84.7138 241.738 84.858 241.718 84.9976 241.68C85.2075 241.626 85.4048 241.531 85.578 241.401C85.7512 241.271 85.8968 241.108 86.0065 240.921C86.1162 240.734 86.1878 240.527 86.2171 240.312C86.2465 240.098 86.233 239.879 86.1774 239.67C81.9968 224.234 70.1237 210.992 55.1909 205.116C54.9905 205.037 54.7764 204.997 54.5608 205.001C54.3453 205.004 54.1325 205.049 53.9345 205.135C53.7366 205.22 53.5574 205.344 53.4073 205.499C53.2571 205.653 53.1389 205.836 53.0594 206.037C52.9798 206.237 52.9405 206.451 52.9437 206.667C52.9469 206.882 52.9926 207.095 53.078 207.293C53.1635 207.491 53.2871 207.67 53.4418 207.82C53.5965 207.97 53.7792 208.089 53.9796 208.168C67.9646 213.674 79.0787 226.07 82.9958 240.523C83.0893 240.87 83.2938 241.176 83.5778 241.396C83.8619 241.615 84.2099 241.736 84.5689 241.739Z" fill="#FF912D"/>
<path d="M83.2279 239.709C82.8975 237.578 80.9429 237.161 82.4413 235.588C84.9623 232.913 89.194 229.331 93.3392 229.924C99.8362 230.856 100.418 237.947 100.418 237.947L84.1718 242.155L83.2279 239.709Z" fill="#FF912D"/>
<path d="M156.72 135.034C149.248 128.143 145.496 141.995 148.068 144.362C150.64 146.73 162.108 139.997 156.72 135.034Z" fill="#FF912D"/>
<path d="M118.017 167.259C119.398 167.264 120.774 167.111 122.119 166.803C134.11 164.014 144.536 155.653 150.711 143.855C150.919 143.457 150.961 142.992 150.827 142.564C150.694 142.135 150.395 141.777 149.997 141.568C149.599 141.359 149.135 141.317 148.706 141.451C148.277 141.585 147.919 141.884 147.71 142.282C141.988 153.207 132.372 160.943 121.36 163.519C112.869 165.485 101.507 159.153 95.4037 151.886C95.1112 151.562 94.7048 151.364 94.2696 151.332C93.8344 151.301 93.404 151.44 93.0683 151.718C92.7327 151.997 92.5177 152.395 92.4685 152.828C92.4192 153.262 92.5395 153.698 92.8041 154.045C98.5853 160.943 108.799 167.259 118.017 167.259Z" fill="#FF912D"/>
<path d="M7.32449 167.405C17.5262 167.236 10.6202 154.651 7.11211 154.71C3.60404 154.769 -0.00626564 167.527 7.32449 167.405Z" fill="#FF912D"/>
<path d="M7.05315 159.283C7.45261 159.283 7.83924 159.142 8.14446 158.884C8.44968 158.627 8.65381 158.269 8.7207 157.875C10.7343 145.896 12.9681 142.537 22.7608 136.615C30.2331 132.119 42.9951 134.648 51.0416 139.674C51.229 139.793 51.438 139.873 51.6565 139.91C51.8749 139.948 52.0986 139.942 52.3148 139.893C52.531 139.844 52.7355 139.753 52.9165 139.625C53.0975 139.497 53.2515 139.335 53.3698 139.147C53.488 138.96 53.5682 138.751 53.6058 138.533C53.6433 138.314 53.6374 138.09 53.5885 137.874C53.5395 137.658 53.4485 137.454 53.3206 137.272C53.1926 137.091 53.0303 136.937 52.8428 136.819C44.049 131.313 29.9067 128.368 21.0107 133.732C10.459 140.087 7.54082 144.5 5.38564 157.329C5.34852 157.548 5.35503 157.772 5.4048 157.988C5.45457 158.204 5.54663 158.408 5.67566 158.589C5.80468 158.769 5.96816 158.923 6.15665 159.04C6.34513 159.157 6.5549 159.236 6.77393 159.272C6.86653 159.283 6.9599 159.287 7.05315 159.283Z" fill="#FF912D"/>
<path d="M86.9757 5.2942C86.9757 5.2942 85.969 20.3136 89.4888 26.8224C93.0087 33.3312 96.0251 37.8342 98.5343 38.3376C101.043 38.841 121.663 45.8493 127.193 69.3832C132.722 92.9171 128.199 126.46 97.028 166.523C65.8566 206.587 37.6938 222.601 29.1478 226.609C20.6018 230.616 8.02863 231.112 5.51556 230.612C3.00249 230.113 -5.54742 230.612 -7.06943 230.113C-8.59142 229.614 -13.1024 217.595 -12.0995 216.093C-11.0966 214.59 -6.56604 210.587 -5.56317 207.079C-4.5603 203.57 10.5299 181.043 25.6122 165.021C40.6945 148.999 59.3006 132.477 68.8534 105.439C78.4062 78.4011 72.8766 70.8934 73.8795 61.3917C74.5784 55.3704 76.1016 49.4737 78.4062 43.8672C78.4062 43.8672 79.413 34.8532 74.3829 26.3426C69.3529 17.832 66.8437 13.8245 65.8369 11.8227C64.8301 9.82087 69.3568 3.30814 73.8795 2.30921C78.4022 1.31028 85.9689 2.28953 86.9757 5.2942Z" fill="#FFD731"/>
<path d="M3.50999 225.095C20.1025 227.097 44.7375 213.077 72.8964 184.037C101.055 154.997 124.684 110.942 119.154 80.3996C113.625 49.8574 94.4836 45.1066 94.4836 45.1066L96.9141 37.532C97.3893 37.9132 97.9445 38.1821 98.5383 38.3185C101.051 38.8219 121.667 45.8302 127.197 69.3641C132.726 92.898 128.203 126.441 97.032 166.504C65.8606 206.568 37.6978 222.582 29.1519 226.59C20.6059 230.597 8.03271 231.093 5.51965 230.593C4.39567 230.432 3.26118 230.354 2.12564 230.361L3.50999 225.095Z" fill="#FFBE2E"/>
<path d="M-7.78132 211.063C-6.78632 209.765 -5.91714 208.384 -5.54353 207.071C-4.53673 203.567 10.5495 181.036 25.6318 165.013C40.7141 148.991 59.3202 132.469 68.873 105.431C78.4258 78.3933 72.8963 70.8856 73.8991 61.384C74.598 55.3626 76.1212 49.4659 78.4258 43.8594C78.4258 43.8594 78.473 43.4386 78.4966 42.7031C82.1462 43.0964 84.9621 43.356 84.9621 43.356C84.9621 43.356 86.4723 75.9039 82.4491 96.9326C78.4258 117.961 59.8236 142.998 45.2408 157.014C30.6579 171.031 -0.513496 205.081 -4.53676 215.613L-7.78132 211.063Z" fill="#FFE05F"/>
<path d="M93.3232 45.2045C91.6368 44.2699 89.7338 43.7964 87.8061 43.8316C85.8784 43.8668 83.994 44.4095 82.3428 45.4051C81.0725 46.1916 79.5899 47.2928 78.2527 46.6243C77.984 46.4822 77.7472 46.2868 77.5566 46.0501C78.0718 44.6539 78.4258 43.8477 78.4258 43.8477C78.4258 43.8477 79.4326 34.8337 74.4025 26.3231C69.3724 17.8126 66.8633 13.805 65.8565 11.8032C64.8497 9.80141 69.3764 3.28869 73.8991 2.28976C78.4218 1.29083 85.9689 2.28976 86.9757 5.29443C86.9757 5.29443 85.9689 20.3138 89.4887 26.8226C92.69 32.7454 95.4784 37.0085 97.8459 38.1058C96.6661 42.0583 94.975 46.1523 93.3232 45.2045Z" fill="#72A551"/>
<path d="M78.7404 12.3576L84.7498 3.21387C85.8785 3.7448 86.6965 4.43696 86.9836 5.29431C86.9836 5.29431 85.9768 20.3137 89.4967 26.8225C92.698 32.7453 95.4863 37.0085 97.8539 38.1057C96.9493 41.134 95.7498 44.2448 94.4913 45.1061L93.3115 45.2044C85.088 39.553 78.7404 12.3576 78.7404 12.3576Z" fill="#6D8244"/>
<path d="M-6.84931 209.757C-6.22005 210.323 -4.19858 212.337 -2.5232 216.089C-0.509587 220.596 1.01638 217.092 3.01032 219.593C5.00427 222.094 2.12937 230.377 2.12937 230.377C-1.35905 230.314 -5.97622 230.463 -7.04595 230.109C-8.55616 229.606 -13.0789 217.591 -12.076 216.089C-11.3248 214.96 -8.59155 212.427 -6.84931 209.757Z" fill="#FFBE2E"/>
<path d="M73.8992 2.28964C77.7927 1.42836 83.9082 2.04976 86.1853 4.14988L81.5603 11.7284C81.3572 12.1553 81.0222 12.5056 80.6047 12.7273C79.999 12.9712 79.3265 12.6448 78.7405 12.3577C76.9393 11.4649 74.7055 10.8789 72.9868 11.9172C72.3104 12.3105 71.7283 12.9791 70.9418 13.0538C70.3533 13.0534 69.7773 12.8841 69.2821 12.5661L65.7426 10.7255C66.1162 8.08662 70.0058 3.15093 73.8992 2.28964Z" fill="#7F6844"/>
<path d="M68.9888 104.263C63.0341 99.1951 62.2764 90.3051 67.2964 84.4067C72.3163 78.5082 81.2131 77.8349 87.1678 82.9027C93.1225 87.9706 93.8802 96.8605 88.8602 102.759C83.8402 108.657 74.9435 109.331 68.9888 104.263Z" fill="#D0642A"/>
<path d="M70.6117 101.66C64.8538 96.7601 64.121 88.1642 68.9749 82.4609C73.8288 76.7577 82.4313 76.1067 88.1891 81.0071C93.947 85.9074 94.6798 94.5033 89.826 100.207C84.9721 105.91 76.3696 106.561 70.6117 101.66Z" fill="white"/>
<path d="M75.0797 99.9793C71.0829 96.5789 70.5743 90.6118 73.9437 86.6513C77.3131 82.6909 83.2846 82.2368 87.2815 85.6372C91.2783 89.0376 91.787 95.0048 88.4176 98.9652C85.0481 102.926 79.0766 103.38 75.0797 99.9793Z" fill="#8DA03F"/>
<path d="M77.1915 97.4946C74.5797 95.2717 74.2484 91.3713 76.4515 88.7827C78.6546 86.194 82.5578 85.8974 85.1696 88.1203C87.7814 90.3431 88.1127 94.2435 85.9096 96.8322C83.7065 99.4208 79.8033 99.7174 77.1915 97.4946Z" fill="#342530"/>
<path opacity="0.44" d="M81.1904 88.8668C79.6112 87.5219 79.411 85.1635 80.7433 83.5992C82.0755 82.0349 84.4357 81.8571 86.0149 83.202C87.5941 84.5469 87.7943 86.9053 86.462 88.4696C85.1297 90.0339 82.7696 90.2117 81.1904 88.8668Z" fill="white"/>
<path d="M111.699 105.861C105.745 100.793 104.987 91.9028 110.007 86.0043C115.027 80.1059 123.924 79.4325 129.878 84.5004C135.833 89.5682 136.591 98.4582 131.571 104.357C126.551 110.255 117.654 110.928 111.699 105.861Z" fill="#D0642A"/>
<path d="M113.329 103.303C107.57 98.4032 106.836 89.8074 111.688 84.1033C116.541 78.3992 125.144 77.7468 130.902 82.6461C136.661 87.5454 137.395 96.1412 132.543 101.845C127.69 107.549 119.087 108.202 113.329 103.303Z" fill="white"/>
<path d="M117.789 101.567C113.793 98.1659 113.285 92.1987 116.655 88.2388C120.025 84.2789 125.997 83.826 129.993 87.227C133.989 90.6281 134.497 96.5954 131.127 100.555C127.757 104.515 121.785 104.968 117.789 101.567Z" fill="#8DA03F"/>
<path d="M119.9 99.0646C117.289 96.8413 116.958 92.9408 119.162 90.3526C121.365 87.7643 125.269 87.4684 127.88 89.6917C130.491 91.915 130.822 95.8155 128.619 98.4037C126.415 100.992 122.512 101.288 119.9 99.0646Z" fill="#342530"/>
<path opacity="0.44" d="M129.304 85.4253C128.861 84.839 128.254 84.3971 127.56 84.1554C126.866 83.9137 126.116 83.883 125.404 84.0672C124.693 84.2515 124.051 84.6423 123.562 85.1905C123.072 85.7387 122.756 86.4197 122.653 87.1474C122.55 87.8752 122.665 88.6172 122.983 89.2797C123.301 89.9423 123.809 90.4957 124.441 90.8702C125.073 91.2447 125.803 91.4235 126.537 91.3839C127.271 91.3444 127.976 91.0884 128.565 90.6481C129.35 90.0494 129.868 89.1657 130.006 88.1883C130.144 87.2109 129.892 86.2184 129.304 85.4253Z" fill="white"/>
<path d="M78.9764 113.403C78.9764 113.403 94.6408 123.747 109.519 117.977C109.519 117.977 104.768 134.436 92.0254 132.619C77.8949 130.609 78.9764 113.403 78.9764 113.403Z" fill="#A21E25"/>
<path d="M82.2052 115.208C82.0776 116.266 82.0224 117.332 82.04 118.398C84.6042 120.584 87.7544 121.151 90.8927 122.063C92.0401 122.423 93.2075 122.716 94.389 122.94C97.7673 123.51 101.26 122.94 104.689 122.35C104.831 121.339 105.019 120.27 105.133 119.204C95.8009 121.001 86.8223 117.521 82.2052 115.208Z" fill="white"/>
<path d="M101.146 130.456C100.419 129.297 99.4632 128.299 98.3377 127.522C95.5906 125.457 92.271 124.295 88.836 124.195C86.4096 124.172 84.0258 124.833 81.9575 126.102C83.861 129.248 86.964 131.903 92.0255 132.627C95.2325 133.124 98.5065 132.344 101.146 130.456Z" fill="#FD4E4C"/>
<path d="M16.2718 247.763C18.2186 246.816 17.4831 246.426 19.4181 247.37C22.7294 248.975 26.3594 250.839 27.0201 254.957C28.0583 261.414 21.4238 264.053 21.4238 264.053L12.5671 249.852L16.2718 247.763Z" fill="#FF912D"/>
<path d="M14.561 251.653C14.7799 251.652 14.9964 251.608 15.1981 251.523C30.2569 245.195 39.2709 231.013 38.1619 215.396C38.1316 214.96 37.9294 214.554 37.5997 214.267C37.27 213.98 36.8398 213.836 36.4038 213.867C35.9679 213.897 35.5617 214.099 35.2748 214.429C34.9879 214.758 34.8438 215.189 34.874 215.624C35.8808 229.822 27.6573 242.725 13.92 248.499C13.5739 248.648 13.2897 248.911 13.1151 249.245C12.9406 249.579 12.8864 249.963 12.9616 250.332C13.0368 250.702 13.2369 251.034 13.5282 251.273C13.8195 251.512 14.1842 251.643 14.561 251.645V251.653Z" fill="#FF912D"/>
<path d="M99.3956 45.1181C106.947 41.0358 126.386 69.9695 117.604 76.6317C108.822 83.2939 90.8614 49.7274 99.3956 45.1181Z" fill="#FFE05F"/>
<circle cx="165.5" cy="50.5" r="7.5" fill="#FDC132"/>
<circle cx="147.5" cy="38.5" r="3.5" fill="#F6F5F5"/>
</svg>
