<svg width="250" height="251" viewBox="0 0 250 251" fill="none" xmlns="http://www.w3.org/2000/svg">
<path d="M169.139 175.359C176.915 180.313 186.902 185.333 194.687 180.406C197.465 178.648 199.434 175.863 201.33 173.149C207.633 164.128 215.21 158.374 216.897 148.346C218.042 141.538 217.473 135.323 216.971 128.432C216.245 118.44 220.26 104.068 220.303 94.0483C220.437 62.2341 200.907 58.0879 193.248 42.4128C191.616 39.0781 184.624 36.1367 181.362 34.4585C179.384 33.4412 177.148 32.9218 175.363 31.5786C172.089 29.1198 167.939 16.466 164.053 15.2888C161.603 14.542 158.993 15.5747 156.761 16.8256C148.862 21.3564 142.941 28.6908 140.161 37.3845C147.766 53.5391 151.276 71.9834 154.779 89.5456L169.139 175.359Z" fill="#6EAB06"/>
<path d="M217.381 39.4284C226.973 36.1367 224.731 50.4931 221.433 51.6088C218.134 52.7245 210.484 41.795 217.381 39.4284Z" fill="#3C690C"/>
<path d="M190.933 101.293C190.605 101.289 190.286 101.19 190.014 101.007C189.742 100.824 189.529 100.566 189.401 100.263C189.224 99.8486 189.217 99.3807 189.38 98.9608C189.544 98.5409 189.867 98.2026 190.277 98.0193C210.441 89.1737 222.646 65.1509 218.064 43.335C217.97 42.895 218.053 42.4355 218.295 42.0567C218.537 41.6779 218.919 41.4105 219.356 41.3126C219.573 41.2668 219.797 41.2644 220.015 41.3056C220.232 41.3468 220.44 41.4309 220.625 41.5528C220.81 41.6748 220.97 41.8323 221.094 42.0163C221.219 42.2003 221.306 42.4072 221.35 42.625C226.25 65.9839 213.191 91.6817 191.612 101.154C191.398 101.246 191.166 101.294 190.933 101.293Z" fill="#3C690C"/>
<path d="M94.0607 183.946C88.9064 187.527 82.9957 188.354 77.7495 184.908C72.5034 181.463 68.7456 175.144 63.8547 171.197C59.5671 167.746 56.4709 164.014 52.1128 160.67C38.6651 150.352 33.275 136.866 35.1187 119.808C36.1017 110.722 38.1322 101.698 36.8214 92.659C35.6577 84.6309 26.1362 77.7954 27.8757 69.8748C29.4774 62.6059 36.1446 57.7374 39.5134 51.1262C42.4443 45.3695 43.801 37.3568 49.9568 35.7001C56.3882 33.9728 61.5608 40.9251 64.7 46.8847L75.4189 67.2654L94.0607 183.946Z" fill="#6EAB06"/>
<path d="M89.2584 188.833C89.3258 188.363 93.3285 189.07 93.3346 188.59L105.585 185.422C103.508 178.85 89.4942 180.295 82.6708 178.789C80.1534 178.233 71.033 171.757 69.2935 169.829C67.407 167.755 67.1834 164.663 66.0472 162.081C62.6294 154.287 52.2656 152.907 46.309 146.904C39.2651 139.798 39.9419 128.109 41.9662 118.216C43.9906 108.322 46.7775 97.6229 42.5206 88.4822C40.3768 83.9026 35.6482 79.366 34.9254 74.224C33.9485 67.284 38.8884 65.446 41.0505 59.7169C42.3674 56.2377 42.1653 51.9624 40.9464 47.9514C40.4962 49.0487 40.0276 50.1214 39.5223 51.1233C36.1535 57.7376 29.4894 62.6061 27.8846 69.8719C26.145 77.7924 31.0084 85.5469 32.1722 93.5658C33.4829 102.608 30.0467 111.592 29.0667 120.674C27.2292 137.733 34.7662 155.531 48.2108 165.855C52.5688 169.199 57.4598 171.784 61.7351 175.236C66.6352 179.182 70.6625 184.22 75.9086 187.662C81.0446 191.04 84.1286 192.162 89.2584 188.833Z" fill="#98D019"/>
<path d="M62.9328 102.046C62.7485 102.046 62.5653 102.016 62.3907 101.957C40.1351 94.2728 25.0918 69.6844 28.1451 46.0181C28.172 45.7971 28.2421 45.5836 28.3514 45.3899C28.4608 45.1962 28.6071 45.0261 28.7821 44.8893C28.9571 44.7525 29.1573 44.6517 29.3712 44.5928C29.5851 44.5338 29.8086 44.5179 30.0286 44.5458C30.4731 44.6084 30.8748 44.8449 31.1462 45.2036C31.4175 45.5624 31.5366 46.0142 31.4772 46.4607C28.6229 68.5902 42.6801 91.5311 63.4749 98.7109C63.8955 98.8603 64.241 99.1694 64.4368 99.5718C64.6327 99.9742 64.6634 100.438 64.5223 100.862C64.4165 101.203 64.2055 101.502 63.9198 101.714C63.6341 101.927 63.2885 102.043 62.9328 102.046Z" fill="#3C690C"/>
<g opacity="0.4">
<path opacity="0.4" d="M128.655 235.855C161.526 235.855 188.173 232.867 188.173 229.18C188.173 225.493 161.526 222.504 128.655 222.504C95.7844 222.504 69.1373 225.493 69.1373 229.18C69.1373 232.867 95.7844 235.855 128.655 235.855Z" fill="#848384"/>
</g>
<path d="M105.965 227.538C105.933 226.576 105.685 225.634 105.238 224.782C104.792 223.931 104.158 223.191 103.386 222.621C100.734 220.663 96.4341 218.179 92.9091 219.412C87.3965 221.342 88.0703 227.763 88.0703 227.763L105.965 227.544V227.538Z" fill="#3C690C"/>
<path d="M103.423 226.189C103.192 226.187 102.965 226.131 102.76 226.024C102.555 225.917 102.378 225.763 102.244 225.574C95.0897 215.807 96.1861 200.885 104.694 192.303C104.829 192.165 104.99 192.055 105.168 191.98C105.346 191.905 105.538 191.866 105.731 191.866C105.924 191.866 106.115 191.905 106.293 191.98C106.471 192.055 106.632 192.165 106.767 192.303C107.042 192.585 107.196 192.963 107.196 193.358C107.196 193.752 107.042 194.13 106.767 194.412C99.2609 201.988 98.2931 215.164 104.623 223.789C104.856 224.107 104.954 224.504 104.896 224.894C104.839 225.284 104.631 225.635 104.317 225.872C104.063 226.076 103.748 226.188 103.423 226.189Z" fill="#3C690C"/>
<path d="M173.056 221.339C171.603 220.057 169.854 219.158 167.967 218.725C166.08 218.292 164.116 218.338 162.252 218.859C160.616 219.287 159.157 220.223 158.083 221.533C154.451 226.186 158.132 230.956 158.132 230.956L173.182 221.45L173.056 221.339Z" fill="#3C690C"/>
<path d="M169.446 222.27C169.234 222.269 169.025 222.222 168.833 222.132C163.167 219.449 158.825 214.811 156.277 208.716C153.851 202.788 153.301 196.254 154.699 190.001C154.74 189.811 154.817 189.631 154.927 189.471C155.037 189.311 155.178 189.175 155.341 189.07C155.504 188.965 155.686 188.894 155.876 188.86C156.067 188.826 156.262 188.831 156.451 188.873C156.833 188.962 157.164 189.2 157.371 189.533C157.579 189.867 157.647 190.269 157.56 190.653C154.92 202.64 160.181 214.746 170.074 219.43C170.428 219.6 170.701 219.903 170.834 220.274C170.967 220.644 170.949 221.052 170.784 221.41C170.667 221.667 170.478 221.885 170.241 222.038C170.004 222.19 169.728 222.271 169.446 222.27Z" fill="#3C690C"/>
<path d="M59.8456 93.1692C54.333 83.1341 59.2913 68.1352 64.1822 61.5701L73.9824 48.4153C76.9225 44.4658 79.9391 40.4456 83.9787 37.6917C94.6486 30.4197 108.785 33.8713 121.602 33.1152C130.603 32.5804 139.91 29.8634 148.412 32.9216C154.206 35.0085 158.825 39.5359 164.264 42.4281C170.603 45.809 178.352 47.1521 182.924 52.7552C186.954 57.6975 187.392 64.9019 185.613 71.0705C183.834 77.2391 180.152 82.6178 176.529 87.8797L59.8456 93.1692Z" fill="#58980E"/>
<path d="M102.327 56.2747C102.327 56.2747 77.6209 60.885 66.5619 89.7518C55.503 118.618 55.7051 164.344 101.739 180.04C147.772 195.737 171.541 162.247 177.788 150.513C184.036 138.778 191.971 112.124 178.094 88.6299C164.218 65.1357 153.576 58.3248 137.362 54.3476C120.319 50.1738 102.327 56.2747 102.327 56.2747Z" fill="#B4D56C"/>
<path d="M170.426 165.333C178.388 156.478 186.21 147.199 191.009 136.217C195.808 125.236 197.266 112.198 192.372 101.262C189.325 94.4602 184.103 88.9463 180.29 82.5503C177.773 78.3149 175.889 73.6985 173.191 69.5768C163.777 55.2111 145.475 48.9534 128.57 50.1244C111.079 51.3539 103.401 55.2449 98.8442 56.9508C103.337 62.1543 108.528 60.7558 112.534 60.7128C114.273 60.6913 116.325 61.8162 116.515 63.5773C116.773 65.8087 113.863 66.7154 112.148 68.1261C109.392 70.3821 109.597 74.7004 110.552 78.1643C111.508 81.6282 112.972 85.2581 111.921 88.6943C110.944 91.8938 108.053 93.9992 105.885 96.5164C103.717 99.0336 102.284 103.069 104.455 105.583C116.286 119.291 110.436 143.185 119.847 158.722L170.426 165.333Z" fill="#98D019"/>
<path d="M137.901 161.875C141.941 156.069 138.728 147.737 133.751 142.739C128.775 137.742 122.242 134.487 117.716 129.068C112.402 122.706 110.415 114.042 105.328 107.489C103.109 104.647 100.351 102.275 97.2124 100.51C94.0739 98.7453 90.6179 97.6229 87.0443 97.2079C81.1243 96.5624 74.7358 97.8441 69.4774 94.998C64.7488 92.4285 61.1962 86.6502 55.8245 86.9576C50.0577 87.265 47.2126 94.6783 48.1497 100.481C49.0868 106.284 52.3025 111.574 52.9028 117.429C53.4663 122.946 51.6594 128.407 51.2674 133.94C50.6365 142.911 53.8063 151.852 58.7431 159.306C65.4048 169.334 75.1346 176.916 86.4654 180.91C98.2349 184.997 111.784 185.213 121.428 193.228L137.901 161.875Z" fill="#70BF01"/>
<path d="M87.8742 100.198C76.7326 105.706 73.3055 124.753 73.4801 137.216C73.7067 153.463 79.7951 169.879 91.6381 182.981C79.8012 172.639 72.9564 157.022 71.6946 141.685C70.6197 128.328 74.1447 108.3 85.2618 101.422C86.0969 100.941 86.9708 100.532 87.8742 100.198Z" fill="#B4D56C"/>
<path d="M73.4923 137.825C73.379 134.284 75.2349 131.167 77.734 128.623C84.3124 122.101 97.6408 119.746 98.1491 108.774C99.1077 113.077 96.6485 117.38 93.4144 120.361C87.032 126.136 75.7801 128.143 73.4923 137.825Z" fill="#B4D56C"/>
<path d="M93.4635 118.001C97.062 115.757 103.264 115.944 106.706 118.422C103.934 118.738 96.0973 118.468 93.4635 118.001Z" fill="#B4D56C"/>
<path d="M77.6851 159.524C83.7275 149.206 98.2778 151.782 103.793 134.936C104.832 131.736 105.79 128.564 108.611 126.702C109.498 126.1 110.544 125.779 111.615 125.78C109.618 126.185 108.084 127.735 107.147 129.548C106.292 131.162 105.897 132.969 105.309 135.388C101.006 152.824 85.7457 150.789 77.6851 159.524Z" fill="#B4D56C"/>
<path d="M102.719 141.36C104.452 138.879 107.518 136.872 112.099 136.411C117.057 136.205 118.472 138.034 120.855 138.203C122.08 138.323 123.648 137.551 123.826 136.113C124.169 137.226 123.495 138.286 122.533 138.95C120.279 140.419 117.682 139.014 114.95 138.596C112.678 138.145 108.69 138.513 105.355 139.998C104.451 140.4 103.571 140.855 102.719 141.36Z" fill="#B4D56C"/>
<path d="M83.8928 171.674C87.081 169.027 91.485 168.133 95.3867 167.472C101.778 166.424 106.412 165.846 111.585 161.162C114.999 158.089 118.485 153.033 120.852 145.794C119.805 155.135 114.142 164.445 104.752 167.561C98.6361 169.707 90.4866 168.317 83.8928 171.674Z" fill="#B4D56C"/>
<path d="M55.9716 97.635C60.7982 101.148 64.6999 107.191 65.9709 114.204C66.8437 118.907 66.8896 127.842 73.1863 130.743C71.5845 130.513 70.0869 129.6 68.8987 128.417C62.0538 121.516 67.5052 111.945 55.9716 97.635Z" fill="#B4D56C"/>
<path d="M53.8031 106.628C56.5012 108.19 59.0646 110.845 61.0644 113.255C61.7198 114.06 62.5222 115.025 63.5421 114.899C63.8299 114.884 64.106 114.78 64.332 114.6C64.5581 114.421 64.723 114.175 64.8038 113.897C65.2295 114.872 64.1056 116.193 62.6876 116.175C60.9358 116.156 59.5117 114.487 58.3081 113.166C56.6513 111.309 54.8199 108.884 53.8031 106.628Z" fill="#B4D56C"/>
<path d="M58.2408 131.927C62.1671 135.775 62.5285 142.595 64.4242 147.479C66.666 153.432 70.7821 154.437 76.846 155.91C70.1236 156.454 64.9877 154.536 62.5438 148.226C60.498 142.896 60.8992 136.854 58.2408 131.927Z" fill="#B4D56C"/>
<path d="M179.323 173.632C184.073 166.347 193.104 163.145 198.519 156.352C209.026 143.154 202.035 122.636 209.115 107.243C209.578 106.238 210.08 104.978 209.421 104.105C209.045 103.616 208.411 103.432 207.82 103.281C195.625 100.229 181.074 101.855 173.099 111.749C169.179 116.611 167.21 123.007 162.687 127.292C158.163 131.576 151.456 133.298 147.475 138.172C143.494 143.047 142.979 150.214 138.805 154.917C134.486 159.785 127.335 160.846 122.334 164.974C114.748 171.234 112.17 184.248 102.562 185.993C99.3711 186.574 95.1754 186.144 93.837 189.156C92.8447 191.391 94.4158 194.012 96.4065 195.392C104.342 200.9 114.61 193.8 124.132 192.565C129.859 191.824 135.626 193.324 141.399 193.422C155.594 193.662 171.792 185.182 179.323 173.632Z" fill="#70BF01"/>
<path d="M170.867 122.27C170.153 137.637 179.047 149.338 178.927 166.39C178.799 170.574 177.727 174.972 175.467 178.512C182.869 159.954 166.775 140.047 170.867 122.27Z" fill="#B4D56C"/>
<path d="M181.178 117.693C186.927 130.952 186.078 148.957 179.035 161.605C183.534 146.108 184.146 133.473 181.178 117.693Z" fill="#B4D56C"/>
<path d="M189.202 164.002C204.705 140.081 193.067 124.968 200.914 113.842C197.407 121.968 200.644 130.104 199.811 139.967C199.033 148.68 195.398 157.587 189.202 164.002Z" fill="#B4D56C"/>
<path d="M192.344 113.645C191.818 123.957 192.957 130.55 196.859 140.127C190.761 133.648 188.74 121.873 192.344 113.645Z" fill="#B4D56C"/>
<path d="M153.891 143.883C159.18 148.016 159.664 156.358 164.304 161.094C167.777 164.697 173.553 165.268 178.021 167.952C171.684 166.276 165.498 166.516 161.318 160.704C157.474 154.858 157.502 148.96 153.891 143.883Z" fill="#B4D56C"/>
<path d="M146.783 152.261C150.997 158.408 156.583 162.096 164.353 163.141C157.266 165.557 147.983 159.844 146.783 152.261Z" fill="#B4D56C"/>
<path d="M141.215 160.077C142.814 164.558 144.584 170.487 148.648 173.106C152.54 175.663 157.143 175.048 161.511 176.742C165.026 178.085 168.438 181.598 167.464 185.259C167.446 181.878 164.49 179.53 161.523 178.497C154.865 176.13 142.958 180.012 141.215 160.077Z" fill="#B4D56C"/>
<path d="M129.02 172.977C130.689 176.801 135.408 178.322 139.383 177.784C143.671 177.191 147.56 174.926 151.634 174.028C147.983 176.555 143.993 179.232 139.659 179.828C134.419 180.529 129.133 177.32 129.02 172.977Z" fill="#B4D56C"/>
<path d="M115.566 184.161C119.715 189.448 128.383 186.138 132.064 185.206C134.6 184.564 137.359 184.131 139.916 184.696C144.296 185.618 150.133 190.514 161.593 188.504C157.768 190.021 153.604 190.468 149.545 189.798C141.784 188.52 141.506 185.169 132.493 187.109C128.732 187.908 124.735 189.239 120.346 187.926C117.789 187.127 116.307 185.723 115.566 184.161Z" fill="#B4D56C"/>
<path d="M127.755 55.6689C124.772 55.9762 121.017 57.679 121.449 60.7064C121.59 61.7022 122.206 62.5506 122.913 63.2636C124.444 64.7604 126.408 65.6886 127.972 67.1332C129.537 68.5778 130.665 70.926 129.755 72.8684C128.576 75.3857 124.977 75.5086 123.146 77.5771C120.818 80.2081 122.396 84.4188 124.441 87.2864C126.487 90.154 129.057 93.2891 128.392 96.7652C127.44 101.732 120.429 103.874 120.056 108.918C126.071 114.174 134.808 114.143 142.719 113.863C148.342 113.657 154.938 112.886 157.759 107.922C159.094 105.574 159.253 102.753 159.863 100.112C160.472 97.4722 161.832 94.6783 164.359 93.8331C166.885 92.9879 169.954 94.291 172.067 92.6836C174.079 91.1468 173.853 88.0302 173.151 85.5714C167.957 67.2869 145.913 53.8002 127.755 55.6689Z" fill="#B4D56C"/>
<path d="M147.34 100.819C147.34 100.819 124.876 109.644 107.873 98.0532C107.873 98.0532 109.239 120.49 125.679 121.744C143.91 123.155 147.34 100.819 147.34 100.819Z" fill="#A21E25"/>
<path d="M142.801 102.209C142.665 103.6 142.438 104.981 142.122 106.342C138.306 108.42 134.208 108.245 130.03 108.537C128.495 108.677 126.953 108.723 125.412 108.675C121.026 108.451 116.837 106.727 112.693 105.009C112.8 103.678 112.862 102.242 112.999 100.856C124.19 105.789 136.388 103.862 142.801 102.209Z" fill="white"/>
<path d="M114.88 116.396C116.101 115.118 117.574 114.108 119.204 113.43C123.207 111.638 127.737 110.925 132.012 111.847C135.065 112.509 137.866 114.031 140.088 116.233C136.833 119.703 132.211 122.251 125.679 121.747C121.515 121.471 117.63 119.546 114.88 116.396Z" fill="#FD4E4C"/>
<path d="M100.232 79.0588L100.734 79.0895C113.263 79.9409 116.76 87.6954 116.904 88.0027C117.019 88.2647 117.026 88.5613 116.924 88.8286C116.823 89.0959 116.621 89.3125 116.362 89.4319C116.235 89.4894 116.097 89.5208 115.957 89.5244C115.817 89.5279 115.678 89.5036 115.548 89.4526C115.418 89.4017 115.299 89.3253 115.199 89.2278C115.098 89.1303 115.018 89.0137 114.963 88.8848C114.834 88.6021 111.765 82.0032 100.593 81.241C89.4208 80.4787 83.5223 89.6471 83.4641 89.7393C83.3902 89.8586 83.2933 89.9619 83.1791 90.043C83.0649 90.1242 82.9356 90.1817 82.799 90.212C82.6623 90.2424 82.521 90.245 82.3833 90.2197C82.2456 90.1945 82.1143 90.1419 81.9972 90.0651C81.7623 89.9045 81.5989 89.6584 81.5418 89.379C81.4846 89.0995 81.5381 88.8088 81.6909 88.5683C81.9512 88.1625 88.1652 78.5117 100.232 79.0588Z" fill="#342530"/>
<path d="M114.757 75.4414C114.982 75.454 115.196 75.5379 115.37 75.6812C115.592 75.8654 115.733 76.1299 115.762 76.4174C115.791 76.705 115.706 76.9926 115.526 77.218L111.364 82.443C111.278 82.5538 111.17 82.6459 111.047 82.7142C110.925 82.7824 110.79 82.8252 110.65 82.8401C110.511 82.855 110.37 82.8417 110.236 82.8009C110.102 82.7602 109.977 82.6928 109.87 82.6028C109.646 82.4195 109.504 82.1549 109.475 81.8669C109.446 81.5788 109.531 81.2908 109.713 81.0661L113.875 75.841C113.979 75.7079 114.114 75.6021 114.268 75.5325C114.421 75.4629 114.589 75.4317 114.757 75.4414Z" fill="#342530"/>
<path d="M106.712 72.1494C106.805 72.1519 106.897 72.1685 106.985 72.1986C107.255 72.288 107.48 72.4807 107.61 72.7349C107.74 72.9891 107.765 73.2844 107.68 73.5571L105.698 79.9716C105.658 80.1065 105.592 80.232 105.503 80.3408C105.414 80.4496 105.304 80.5395 105.18 80.6053C105.056 80.6711 104.92 80.7115 104.78 80.7241C104.641 80.7366 104.5 80.7211 104.366 80.6785C104.096 80.5891 103.871 80.3965 103.741 80.1423C103.611 79.8881 103.586 79.5927 103.671 79.32L105.652 72.9055C105.72 72.6793 105.861 72.4821 106.053 72.3452C106.245 72.2083 106.477 72.1394 106.712 72.1494Z" fill="#342530"/>
<path d="M97.9317 71.209C98.196 71.2238 98.4455 71.3363 98.6321 71.5247C98.8187 71.7131 98.9292 71.9641 98.9424 72.2294L99.3436 79.3293C99.3519 79.4691 99.3326 79.6092 99.2869 79.7416C99.2412 79.874 99.1699 79.996 99.0772 80.1008C98.9845 80.2055 98.8721 80.2909 98.7465 80.3521C98.6209 80.4132 98.4846 80.449 98.3452 80.4572C98.2058 80.4655 98.0662 80.4462 97.9343 80.4003C97.8024 80.3544 97.6808 80.2829 97.5764 80.1899C97.4721 80.0968 97.387 79.9841 97.326 79.858C97.2651 79.732 97.2295 79.5951 97.2212 79.4553L96.8231 72.3523C96.8046 72.0679 96.8994 71.7877 97.0866 71.5733C97.2738 71.359 97.5381 71.2279 97.8215 71.209H97.9317Z" fill="#342530"/>
<path d="M88.6705 73.8243C88.8649 73.8328 89.0534 73.8946 89.2153 74.003C89.3773 74.1113 89.5066 74.2621 89.5892 74.439L92.4098 80.4231C92.533 80.6815 92.55 80.9781 92.4572 81.2489C92.3644 81.5198 92.1692 81.7431 91.9137 81.8707C91.7876 81.932 91.6506 81.9674 91.5108 81.975C91.3709 81.9826 91.2309 81.9622 91.099 81.915C90.967 81.8678 90.8457 81.7948 90.7422 81.7001C90.6386 81.6055 90.5548 81.4911 90.4957 81.3637L87.6751 75.3795C87.5521 75.1216 87.5352 74.8255 87.628 74.5552C87.7209 74.2848 87.916 74.062 88.1713 73.935C88.3257 73.8564 88.4974 73.8184 88.6705 73.8243Z" fill="#342530"/>
<path d="M81.6419 79.0369C81.9071 79.0458 82.159 79.1557 82.3463 79.3442L86.7564 83.8438C86.9562 84.0493 87.068 84.325 87.068 84.6122C87.068 84.8993 86.9562 85.175 86.7564 85.3805C86.6583 85.4808 86.5413 85.5605 86.4123 85.6148C86.2832 85.6692 86.1446 85.6972 86.0046 85.6972C85.8646 85.6972 85.726 85.6692 85.5969 85.6148C85.4678 85.5605 85.3508 85.4808 85.2527 85.3805L80.8426 80.881C80.6421 80.6758 80.5298 80.4 80.5298 80.1126C80.5298 79.8253 80.6421 79.5494 80.8426 79.3442C80.9465 79.2391 81.0716 79.1573 81.2094 79.1044C81.3472 79.0514 81.4946 79.0284 81.6419 79.0369Z" fill="#342530"/>
<path d="M156.133 81.5913C168.211 82.1384 173.562 92.3118 173.788 92.7513C173.919 93.0054 173.945 93.3007 173.86 93.5736C173.776 93.8466 173.589 94.0756 173.338 94.2113C173.214 94.277 173.079 94.3173 172.939 94.3299C172.8 94.3424 172.659 94.3269 172.526 94.2843C172.392 94.2416 172.269 94.1727 172.162 94.0815C172.055 93.9904 171.968 93.8788 171.905 93.7533C171.7 93.3568 166.723 83.9795 155.581 83.7397C144.299 83.4846 140.642 89.9851 140.609 90.0528C140.542 90.1764 140.452 90.2856 140.343 90.3738C140.234 90.4621 140.108 90.5277 139.974 90.5669C139.839 90.6061 139.698 90.618 139.559 90.6021C139.42 90.5861 139.285 90.5425 139.163 90.4738C138.916 90.3318 138.734 90.098 138.656 89.8226C138.579 89.5473 138.612 89.2524 138.75 89.0016C138.918 88.6943 143.077 81.2901 155.63 81.5759L156.133 81.5913Z" fill="#342530"/>
<path d="M141.99 76.674C142.157 76.6821 142.319 76.7294 142.464 76.8121C142.61 76.8949 142.733 77.0107 142.826 77.1503L146.516 82.7411C146.674 82.9797 146.731 83.2706 146.678 83.5515C146.624 83.8324 146.463 84.081 146.228 84.2441C146.112 84.3232 145.981 84.378 145.844 84.4054C145.706 84.4328 145.564 84.4321 145.427 84.4034C145.29 84.3748 145.159 84.3187 145.044 84.2385C144.928 84.1583 144.83 84.0557 144.755 83.9367L141.065 78.3521C140.908 78.1135 140.85 77.8226 140.903 77.5417C140.957 77.2608 141.118 77.0122 141.353 76.8491C141.54 76.7229 141.764 76.6614 141.99 76.674Z" fill="#342530"/>
<path d="M150.289 74.1227C150.524 74.1346 150.749 74.2243 150.928 74.3778C151.107 74.5313 151.23 74.7398 151.279 74.971L152.694 81.5422C152.755 81.8208 152.705 82.1126 152.553 82.3542C152.402 82.5958 152.162 82.7679 151.885 82.8331C151.748 82.8628 151.606 82.8649 151.468 82.8394C151.33 82.8138 151.199 82.7611 151.081 82.6842C150.963 82.6074 150.862 82.5079 150.783 82.3915C150.704 82.2752 150.649 82.1442 150.62 82.0063L149.205 75.4382C149.143 75.1595 149.193 74.8673 149.344 74.6255C149.496 74.3837 149.737 74.2118 150.014 74.1473C150.104 74.1255 150.197 74.1173 150.289 74.1227Z" fill="#342530"/>
<path d="M159.119 73.9811C159.154 73.978 159.19 73.978 159.226 73.9811C159.507 74.025 159.76 74.1791 159.928 74.4096C160.096 74.6401 160.166 74.9281 160.123 75.2105L159.11 82.249C159.092 82.3896 159.046 82.5252 158.976 82.648C158.905 82.7708 158.811 82.8782 158.699 82.964C158.587 83.0499 158.458 83.1124 158.322 83.148C158.185 83.1835 158.043 83.1913 157.903 83.171C157.622 83.1271 157.369 82.973 157.201 82.7425C157.033 82.5121 156.962 82.224 157.006 81.9416L158.022 74.9032C158.059 74.6404 158.191 74.4005 158.394 74.2301C158.596 74.0597 158.855 73.971 159.119 73.9811Z" fill="#342530"/>
<path d="M168.113 77.43C168.289 77.4364 168.46 77.4883 168.609 77.5806C168.852 77.7303 169.027 77.9698 169.096 78.2474C169.165 78.5251 169.122 78.8187 168.977 79.0651L165.648 84.7696C165.578 84.8916 165.485 84.9984 165.373 85.0837C165.261 85.1689 165.134 85.231 164.998 85.2662C164.863 85.3014 164.721 85.3091 164.582 85.2887C164.444 85.2684 164.31 85.2204 164.19 85.1477C163.948 84.9975 163.774 84.758 163.705 84.4806C163.636 84.2032 163.679 83.9098 163.823 83.6632L167.155 77.9587C167.251 77.7907 167.391 77.6525 167.56 77.5593C167.729 77.466 167.921 77.4213 168.113 77.43Z" fill="#342530"/>
<path d="M174.652 83.251C174.8 83.2575 174.944 83.2954 175.076 83.3622C175.208 83.4289 175.325 83.523 175.418 83.6383C175.602 83.86 175.692 84.146 175.667 84.4339C175.643 84.7218 175.506 84.9882 175.286 85.175L170.502 89.2597C170.396 89.3508 170.272 89.4196 170.139 89.4621C170.005 89.5046 169.865 89.52 169.725 89.5075C169.586 89.4949 169.45 89.4545 169.327 89.3887C169.203 89.323 169.093 89.2332 169.005 89.1245C168.822 88.9022 168.733 88.6165 168.757 88.3291C168.782 88.0417 168.918 87.7754 169.136 87.5878L173.923 83.5061C174.125 83.3305 174.385 83.2392 174.652 83.251Z" fill="#342530"/>
<path d="M31.8355 42.5234C22.0138 40.0185 25.3796 54.1289 28.7545 54.9895C32.1295 55.8501 38.8947 44.3214 31.8355 42.5234Z" fill="#3C690C"/>
</svg>
