<svg width="91" height="82" viewBox="0 0 91 82" fill="none" xmlns="http://www.w3.org/2000/svg">
<path d="M72.0628 59.8243C71.9399 59.8335 71.8171 59.8055 71.7101 59.7439C71.603 59.6822 71.5165 59.5897 71.4617 59.4782C71.4069 59.3667 71.3861 59.2412 71.4022 59.1177C71.4182 58.9942 71.4703 58.8783 71.5517 58.7849C73.9858 56.0059 74.9951 53.1814 74.5523 50.3903C73.6954 44.9726 67.6821 41.3586 67.6221 41.3221C67.4811 41.237 67.3793 41.099 67.3389 40.9381C67.2985 40.7773 67.3228 40.6068 67.4065 40.4641C67.4482 40.3929 67.5033 40.3307 67.5688 40.2812C67.6343 40.2316 67.7089 40.1956 67.7882 40.1754C67.8675 40.1551 67.95 40.1509 68.031 40.163C68.1119 40.1751 68.1897 40.2033 68.2598 40.2459C68.5288 40.4041 74.8394 44.2026 75.7941 50.1961C76.2968 53.3756 75.1874 56.545 72.4973 59.6172C72.4421 59.6792 72.3753 59.7295 72.3007 59.765C72.2261 59.8006 72.1452 59.8207 72.0628 59.8243Z" fill="#FF912D"/>
<path d="M40.3964 73.7577C40.3117 73.7639 40.2267 73.7533 40.1461 73.7264C40.0655 73.6994 39.991 73.6567 39.9267 73.6006C39.8625 73.5445 39.8098 73.4762 39.7717 73.3995C39.7335 73.3229 39.7107 73.2394 39.7045 73.1538L38.6557 58.1958C38.6435 58.0225 38.7 57.8515 38.8126 57.7203C38.9252 57.5891 39.0847 57.5084 39.2561 57.4962C39.4275 57.4839 39.5967 57.5409 39.7265 57.6548C39.8563 57.7686 39.936 57.9299 39.9481 58.1032L40.9972 73.0643C41.0081 73.2367 40.951 73.4064 40.8384 73.5364C40.7258 73.6663 40.5668 73.7459 40.3964 73.7577Z" fill="#FF912D"/>
<path d="M52.933 72.859C52.8483 72.8653 52.7633 72.8546 52.6827 72.8277C52.6021 72.8007 52.5276 72.758 52.4634 72.7019C52.3991 72.6458 52.3464 72.5775 52.3083 72.5009C52.2702 72.4242 52.2474 72.3407 52.2412 72.2551L51.1923 57.2971C51.1801 57.1239 51.2366 56.9528 51.3492 56.8216C51.4618 56.6904 51.6213 56.6098 51.7927 56.5975C51.9641 56.5852 52.1333 56.6423 52.2631 56.7561C52.3929 56.8699 52.4726 57.0312 52.4848 57.2045L53.5338 72.1656C53.5447 72.338 53.4876 72.5077 53.375 72.6377C53.2624 72.7676 53.1035 72.8472 52.933 72.859Z" fill="#FF912D"/>
<path d="M40.882 72.5965C40.882 72.5965 37.3888 69.6894 35.0114 70.7065C32.6339 71.7236 33.1971 74.3034 33.1971 74.3034L41.0132 73.8469L40.882 72.5965Z" fill="#FF912D"/>
<path d="M52.2437 71.7821C52.2437 71.7821 55.202 68.4127 57.6976 69.0805C60.1932 69.7484 59.9957 72.3827 59.9957 72.3827L52.312 72.9334L52.2437 71.7821Z" fill="#FF912D"/>
<path d="M69.6274 61.3452C67.0283 58.5814 72.167 57.1229 73.0617 58.072C73.9565 59.0211 71.4992 63.3317 69.6274 61.3452Z" fill="#FF912D"/>
<path d="M20.2234 63.5397C20.0603 63.552 19.8991 63.4986 19.7748 63.3912C16.6813 60.7336 15.1423 57.754 15.1963 54.5346C15.3005 48.4651 21.0179 43.8046 21.2668 43.6093C21.3303 43.5573 21.4032 43.5185 21.4815 43.4951C21.5598 43.4718 21.6419 43.4643 21.7231 43.473C21.8042 43.4818 21.8829 43.5067 21.9545 43.5463C22.0261 43.5859 22.0893 43.6394 22.1405 43.7037C22.2433 43.8331 22.2911 43.9984 22.2736 44.1634C22.256 44.3284 22.1745 44.4796 22.0468 44.5839C21.9732 44.6425 16.5392 49.0895 16.45 54.5547C16.4046 57.3855 17.7974 60.0315 20.5912 62.4263C20.6848 62.5071 20.7525 62.6143 20.7856 62.7341C20.8187 62.8539 20.8159 62.981 20.7773 63.0992C20.7388 63.2173 20.6663 63.3212 20.5692 63.3976C20.4721 63.474 20.3546 63.5194 20.2319 63.5281L20.2234 63.5397Z" fill="#FF912D"/>
<path d="M22.8465 64.6979C25.0339 61.591 19.7416 60.8802 18.9898 61.9473C18.238 63.0143 21.2738 66.9313 22.8465 64.6979Z" fill="#FF912D"/>
<path d="M9.04786 38.357C8.74197 32.1112 15.5641 29.3555 16.2936 28.3701C17.0232 27.3848 22.1146 13.1539 42.8034 11.6711C63.4922 10.1884 72.4946 27.1368 72.8136 27.9198C73.1326 28.7028 80.3219 31.1156 80.8281 34.5462C81.3344 37.9768 74.1723 41.5564 73.1506 42.1653C72.129 42.7742 66.65 60.8956 46.6198 62.3312C26.5896 63.7667 18.9062 50.4498 17.1991 48.8395C15.492 47.2292 9.3923 45.3965 9.04786 38.357Z" fill="#E9EF01"/>
<path d="M73.1503 42.1622C74.1676 41.5568 81.3327 37.9754 80.8278 34.5431C80.323 31.1108 73.1335 28.6933 72.8133 27.9167C72.6932 27.6221 71.3278 25.0118 68.5562 21.9588C68.6136 22.1353 70.5449 28.161 68.9881 33.791C67.4015 39.5048 61.0467 52.7596 45.6283 53.8646C30.2099 54.9697 22.1719 46.0798 20.7384 44.5818C19.3048 43.0838 17.8706 43.5699 14.6963 43.4157C11.85 43.2867 9.81943 40.9188 9.30067 40.257C10.5325 45.7484 15.6613 47.3836 17.2052 48.8391C18.9074 50.4451 26.5958 63.7663 46.6259 62.3308C66.6561 60.8952 72.1332 42.7692 73.1503 42.1622Z" fill="#EAE40A"/>
<path d="M23.1099 27.3493C21.7285 25.5523 24.302 19.7976 30.8829 17.3246C37.4638 14.8517 41.4319 18.5699 39.8205 22.025C38.2091 25.4801 26.3157 31.5195 23.1099 27.3493Z" fill="white"/>
<path d="M51.9053 38.9251C51.9053 38.9251 44.3645 43.1303 37.7781 39.9187C37.7781 39.9187 39.3413 47.6987 45.2321 47.3267C51.7647 46.9135 51.9053 38.9251 51.9053 38.9251Z" fill="#A21E25"/>
<path d="M50.3642 39.6373C50.383 40.1309 50.3689 40.6252 50.3219 41.1169C49.0702 42.0345 47.5993 42.176 46.1403 42.4864C45.6025 42.6101 45.0579 42.7015 44.5094 42.7603C42.9437 42.8993 41.3685 42.5063 39.8227 42.1097C39.7898 41.6408 39.7544 41.136 39.7367 40.6393C43.9366 41.8149 48.168 40.5361 50.3642 39.6373Z" fill="white"/>
<path d="M41.145 45.9892C41.5189 45.4795 41.9925 45.0531 42.5364 44.7365C43.8768 43.9099 45.4404 43.4287 47.0009 43.5462C48.1108 43.625 49.1765 44.0178 50.0761 44.6799C49.085 46.0579 47.5725 47.1779 45.2321 47.3268C43.7491 47.4383 42.282 46.9582 41.145 45.9892Z" fill="#FD4E4C"/>
<path d="M29.8187 37.58C29.6472 37.5926 29.4768 37.5437 29.3375 37.4418C29.1983 37.3399 29.099 37.1916 29.0573 37.023C29.0156 36.8544 29.0341 36.6763 29.1095 36.5201C29.1849 36.3639 29.3124 36.2397 29.4696 36.1692L35.1305 33.6271L28.9978 29.197C28.9113 29.1444 28.8366 29.0742 28.7782 28.991C28.7199 28.9078 28.6792 28.8132 28.6587 28.7133C28.6383 28.6134 28.6385 28.5103 28.6593 28.4105C28.6802 28.3107 28.7212 28.2163 28.7799 28.1333C28.8386 28.0503 28.9136 27.9804 29.0003 27.9282C29.087 27.8759 29.1834 27.8423 29.2835 27.8296C29.3836 27.8168 29.4853 27.8251 29.5821 27.854C29.6789 27.8829 29.7687 27.9317 29.8459 27.9973L38.0554 33.9249L30.0675 37.5166C29.989 37.5527 29.9047 37.5741 29.8187 37.58Z" fill="#342530"/>
<path d="M57.9577 35.7189C57.8816 35.7246 57.805 35.7179 57.731 35.699L48.351 33.3741L57.1016 26.1682C57.1753 26.1023 57.2613 26.0522 57.3546 26.0208C57.4479 25.9893 57.5465 25.9773 57.6446 25.9852C57.7426 25.9932 57.838 26.0211 57.9251 26.0672C58.0123 26.1133 58.0893 26.1767 58.1516 26.2535C58.214 26.3304 58.2604 26.4192 58.288 26.5146C58.3156 26.6101 58.3239 26.7101 58.3124 26.8089C58.301 26.9076 58.2699 27.003 58.2211 27.0893C58.1723 27.1756 58.1068 27.2511 58.0286 27.3113L51.5488 32.6453L58.0826 34.2647C58.2514 34.3071 58.3998 34.4089 58.5009 34.552C58.602 34.695 58.6493 34.8699 58.6342 35.045C58.6191 35.2202 58.5427 35.3842 58.4186 35.5074C58.2946 35.6307 58.1311 35.7051 57.9576 35.7173L57.9577 35.7189Z" fill="#342530"/>
</svg>
