<svg width="126" height="100" viewBox="0 0 126 100" fill="none" xmlns="http://www.w3.org/2000/svg">
<path d="M66.1869 84.0925C67.7715 81.4973 71.0457 80.1055 73.9828 80.7543C75.4676 81.0878 76.8419 81.8888 78.3557 82.0501C79.8696 82.2113 81.688 81.3795 81.824 79.8409C81.9835 78.0414 79.924 76.9866 78.227 76.4466C81.6305 78.2917 85.4614 79.2051 89.3316 79.0943C92.2523 79.0055 95.9309 77.282 95.4686 74.3444L90.6624 73.6739C94.5665 73.5453 98.3047 72.0649 101.238 69.4858C99.0856 68.4131 96.6575 68.0224 94.2775 68.3658C100.105 68.4681 105.78 66.5019 110.293 62.8167C106.206 61.5359 101.858 61.325 97.666 62.2042C103.476 61.0064 109.046 58.8525 114.15 55.8305C115.381 55.1056 116.646 53.2735 115.451 52.4815C114.98 52.1698 114.364 52.2785 113.809 52.3981L108.462 53.5616L115.442 48.2354C116.293 47.5848 117.206 46.3489 116.449 45.5895C116.028 45.1691 115.343 45.2452 114.766 45.3703C110.957 46.1997 107.385 47.8786 104.316 50.2814C104.974 49.8346 105.481 49.1999 105.772 48.4601C106.064 47.7204 106.125 46.91 105.948 46.135C103.971 46.3419 102.062 46.9744 100.353 47.9889C98.6438 49.0035 97.1748 50.376 96.047 52.0121C96.6235 51.0321 96.999 49.9471 97.1516 48.8204C97.3041 47.6937 97.2306 46.548 96.9353 45.45C95.3108 46.2154 93.8587 47.3027 92.6673 48.646C91.4758 49.9893 90.5698 51.5605 90.0042 53.2644C91.4099 49.9571 92.0304 46.3694 91.8172 42.7824C89.0977 42.0031 87.0944 45.2941 86.1335 47.9908C85.2052 50.6028 84.2764 53.213 83.3469 55.8215C84.3005 55.3883 84.0721 53.7301 83.113 53.3151C82.154 52.9001 80.9973 53.4964 80.4244 54.3844C79.8515 55.2724 79.7101 56.3778 79.5868 57.4253C79.7391 55.9411 79.1516 52.1408 78.5715 50.7689C75.4586 52.8965 74.1297 59.2575 74.815 63.0052C74.1496 62.0429 73.5314 59.5511 73.1978 58.4275C72.8642 57.3039 71.9686 56.1368 70.8191 56.2709C69.7313 56.3996 69.1203 57.592 68.8103 58.6594C68.1355 60.9827 67.9783 63.4255 68.3498 65.816C68.4647 64.2715 68.0788 62.7312 67.2493 61.4231C63.9316 64.1034 62.4721 68.933 63.7412 73.0432C63.8065 71.5745 63.6488 70.1044 63.2734 68.683C63.1085 68.0595 62.8274 67.3673 62.2237 67.1697C61.2701 66.8562 60.4923 67.9762 60.1442 68.9312C58.7555 72.7478 65.5705 80.0693 66.1869 84.0925Z" fill="#75A61A"/>
<path d="M50.8744 54.9987C46.4398 52.1807 43.8037 46.6878 44.3476 41.4069C46.3746 40.943 48.6444 42.2079 49.3461 44.1959C49.2373 42.6591 47.6835 39.8792 47.5748 38.3442C49.482 38.192 52.8651 40.6439 53.5939 42.4417C48.9653 38.2935 46.1334 32.1445 45.9685 25.876C45.9485 25.1511 45.9975 24.3573 46.5124 23.8626C47.7126 22.7009 49.4984 24.4062 50.2634 25.9086L54.4206 34.0148C52.4928 30.8167 51.3007 27.23 50.9306 23.5146C53.5105 24.2087 55.5737 26.5664 55.9544 29.2486C54.5395 26.3073 53.7964 23.0885 53.7788 19.8249C54.5379 19.8252 55.2821 20.0357 55.9289 20.433C56.5756 20.8303 57.0997 21.3989 57.4429 22.0757C55.0624 18.0725 56.0414 12.353 59.6185 9.39906C60.086 9.71599 60.4458 10.1677 60.6502 10.6941C60.8546 11.2205 60.8937 11.7966 60.7625 12.3458C61.4223 8.0248 63.4941 4.04354 66.6547 1.02288C67.2095 0.497326 67.8694 -0.0227879 68.6272 0.000771237C70.5001 0.0569508 70.6777 2.82243 70.2299 4.67092L67.8857 14.341C67.9583 12.5451 69.4648 10.9232 71.2253 10.7437C71.1864 14.8667 69.7561 18.8559 67.166 22.0648C68.2828 18.946 71.5462 16.764 74.8096 16.9561C72.9031 22.3235 69.6885 27.1312 65.4563 30.9448C66.0041 29.8932 66.7947 28.9873 67.7626 28.3021C68.7306 27.617 69.848 27.1723 71.0222 27.005C70.5041 30.8509 68.6761 34.401 65.8461 37.0575C67.4326 35.1354 69.3093 33.4724 71.4084 32.1282C72.1191 31.6733 72.9585 31.2438 73.7653 31.4812C75.8738 32.1083 74.6482 35.3649 73.089 36.9379L64.015 46.0915C67.2973 42.4664 71.5387 39.8433 76.2491 38.5254C76.0587 43.5997 73.1362 48.4928 68.7868 50.99L73.138 50.392C72.663 53.7754 70.0958 56.7602 66.8596 57.6935L71.0639 55.7979C71.3631 58.3495 70.045 61.0226 67.8531 62.3057C69.7966 59.5547 73.196 57.9345 76.521 58.1756C75.096 63.7265 71.1727 68.5597 66.0818 71.0425L70.9533 70.3738C71.1818 73.1664 69.4685 76.0135 66.9158 77.0791C68.4133 76.0515 71.693 75.5785 71.9468 77.3962C73.2159 86.5281 60.0518 91.5444 51.9368 95.6836L50.8744 54.9987Z" fill="#57860C"/>
<path d="M65.8805 10.3777C56.5472 23.2084 58.9621 40.0387 60.757 53.7374C61.426 58.8117 62.6207 69.4278 62.5228 72.8602C62.4866 75.0349 62.269 76.9305 60.8911 80.6039C61.9916 76.2853 62.037 74.4749 61.8248 71.7583C60.0554 50.8342 52.5786 26.2674 65.8805 10.3777Z" fill="#75A61A"/>
<path d="M63.2263 86.3632C64.5262 80.5187 66.5151 76.423 68.8466 72.9399C73.2105 66.5807 78.8706 64.5782 85.3449 62.8384C91.8191 61.0987 98.9623 59.1197 102.151 52.9309C101.265 54.957 100.217 56.5554 98.034 58.3568C86.313 67.7333 72.2768 59.397 63.2263 86.3632Z" fill="#57860C"/>
<path d="M38.4318 74.3735C35.0542 73.5997 31.6385 72.6428 28.7758 70.6657C25.9131 68.6885 23.6559 65.5098 23.5761 61.9941C25.1365 61.6917 26.7434 61.7251 28.2899 62.0919C26.6582 61.3326 24.8851 60.4229 24.2306 58.7284C23.5761 57.034 25.0846 54.6092 26.7688 55.2471C24.0557 53.7819 21.5726 51.9263 19.399 49.7397C18.2731 48.6089 17.1962 47.324 16.83 45.7528C16.4638 44.1816 17.0258 42.2968 18.4617 41.6172C19.8976 40.9376 21.9644 42.1827 21.6924 43.7666C16.8928 40.6626 12.9736 36.3755 10.3123 31.3183C11.3272 30.6933 12.5057 30.3857 13.6966 30.4348C14.8876 30.4838 16.0368 30.8874 16.9968 31.5937L11.6738 27.4147C10.7166 26.6608 9.64328 25.5191 10.1147 24.3864C10.4537 23.5691 11.4381 23.2683 12.3066 23.1958C16.1139 22.8841 19.7761 25.1186 22.2055 28.1124C24.6349 31.1062 26.0436 34.7978 27.4215 38.4168C27.2064 35.4701 26.9912 32.524 26.7761 29.5785C30.6124 32.4092 33.0273 37.1319 33.1016 41.9471L33.3192 33.5654C33.3373 32.8822 33.3717 32.1483 33.7706 31.5992C34.5266 30.5607 36.2308 30.78 37.1192 31.7043C38.0076 32.6285 38.2904 33.9714 38.5152 35.24C39.6995 41.8911 40.415 48.6172 40.6564 55.3685C40.5825 54.184 40.8124 53.0002 41.3241 51.9293C41.8358 50.8583 42.6126 49.9356 43.5807 49.2486C44.9509 52.8589 45.6834 56.6797 45.7454 60.5407C45.7527 58.8159 46.16 57.1163 46.9355 55.5755C47.7109 54.0346 48.8333 52.6946 50.2145 51.6607C51.8786 58.32 52.265 65.2344 51.353 72.0375C51.0466 69.8284 52.3973 67.4924 54.4478 66.6896C55.0329 70.1982 55.2716 73.7559 55.1603 77.3112C57.2561 70.3032 61.9246 69.6019 61.4659 77.342C61.3104 79.7434 60.5113 82.0588 59.1524 84.0453C57.7935 86.0318 55.9249 87.6161 53.7426 88.6322C49.2699 90.7363 43.8744 90.2161 39.3256 88.6775C31.8506 86.1531 30.9858 77.4416 39.8532 80.6638C36.6388 81.0081 33.6383 78.6703 33.4678 75.4319C34.6916 75.0567 37.0938 74.0763 38.4318 74.3735Z" fill="#91C324"/>
<path d="M51.5343 86.8652C50.5245 84.2248 48.3471 81.8688 46.4997 79.7467C36.8908 68.6793 32.012 54.3318 26.2811 40.7835C24.8616 37.4236 23.2371 33.9187 20.2529 31.8745C22.4992 32.632 23.9116 34.5929 25.0483 36.7114C32.0374 49.6816 35.7613 64.7015 45.4209 75.7797C48.8475 79.7123 53.2168 83.6575 53.3165 88.9094C52.6439 88.1881 52.459 87.2131 51.5343 86.8652Z" fill="#75A61A"/>
<path d="M53.0355 86.8488C46.7879 86.2055 39.69 87.2475 39.1008 98.014C38.5116 108.781 47.7361 136.497 51.8588 153.844C55.9816 171.191 57.9433 187.939 59.7091 188.539C61.475 189.139 66.7798 161.221 68.542 147.264C70.3043 133.306 76.5899 111.573 77.7684 103.398C78.9468 95.2232 75.707 89.54 70.9968 88.1446C66.3429 86.7618 59.8088 87.5465 53.0355 86.8488Z" fill="#FF9F57"/>
<path d="M77.7682 103.398C78.9449 95.2233 75.7069 89.5401 70.9967 88.1447C66.3428 86.7656 59.8087 87.5466 53.0354 86.8489C48.744 86.4067 44.0502 86.7601 41.3416 90.5151C46.8948 89.0291 53.2294 89.5473 58.6321 91.2871C59.6854 91.626 60.9618 92.6264 60.3816 93.5814C60.1804 93.8535 59.9099 94.0669 59.5984 94.1994C56.6759 95.7543 51.565 96.7184 50.829 98.8623C53.2701 99.2788 55.6313 100.074 57.8271 101.218C58.342 101.486 58.9149 101.865 58.9621 102.452C59.0763 103.766 56.7067 103.969 56.5018 105.274C56.3785 106.062 57.1345 106.673 57.4863 107.385C58.4109 109.254 56.4402 111.271 54.5492 112.097C52.6583 112.923 50.3431 113.607 49.6541 115.577C52.011 117.003 53.2801 120.053 52.651 122.762C52.4897 123.458 52.225 124.223 52.5586 124.852C52.8921 125.48 53.6464 125.671 54.261 126.001C56.2172 127.046 56.7629 130.078 55.298 131.76C54.105 133.13 51.7318 134.397 52.5948 136.002C52.9574 136.673 53.7896 136.948 54.2048 137.586C55.1856 139.092 53.2058 141.017 53.5593 142.786C53.7406 143.724 54.5438 144.384 55.1711 145.1C57.6368 147.92 57.6621 152.135 57.1146 155.866C56.5671 159.598 58.5868 161.756 59.5114 165.413C60.0208 167.407 58.0809 170.89 58.6484 172.874C59.8033 176.908 58.8496 181.136 58.3275 185.352C58.8188 187.251 59.2703 188.394 59.7072 188.543C61.4749 189.141 66.7779 161.225 68.5401 147.267C70.3023 133.309 76.5898 111.573 77.7682 103.398Z" fill="#FE7628"/>
<path d="M74.8458 94.0996C74.5212 93.3946 69.9398 93.4345 69.8745 94.0996C69.8093 94.7647 72.4254 94.6976 72.4907 95.1634C72.556 95.6291 66.0129 96.2253 65.9476 97.6226C65.8823 99.0198 75.6979 99.2826 75.5003 98.6193C75.3026 97.956 70.3894 98.3602 70.3894 97.6878C70.3894 97.0155 76.0822 97.5555 76.0097 96.624C75.9372 95.6925 72.8696 96.2253 73.0654 95.7614C73.2612 95.2975 75.3697 95.2286 74.8458 94.0996Z" fill="#EA6C2D"/>
<path d="M46.1896 98.4853C46.2422 97.6788 55.7423 96.2925 55.9381 97.2167C56.1339 98.1409 52.2087 97.4813 52.1435 98.2787C52.0782 99.076 56.5925 98.6774 56.462 99.4095C56.3315 100.142 47.1704 100.606 47.2357 100.075C47.3009 99.5436 50.965 99.7411 50.7039 99.1431C50.4429 98.5451 46.1243 99.482 46.1896 98.4853Z" fill="#EA6C2D"/>
<circle cx="28" cy="17" r="5" fill="#98D019"/>
<circle cx="42" cy="4" r="2" fill="white"/>
</svg>
