<?xml version="1.0" encoding="UTF-8"?>
<svg width="24px" height="72px" viewBox="0 0 24 72" version="1.1" xmlns="http://www.w3.org/2000/svg" xmlns:xlink="http://www.w3.org/1999/xlink">
    <!-- Generator: Sketch 53.2 (72643) - https://sketchapp.com -->
    <title>Artboard</title>
    <desc>Created with Sketch.</desc>
    <g id="Artboard" stroke="none" stroke-width="1" fill="none" fill-rule="evenodd">
        <path d="M12.0000238,0 C15.2590043,0 15.6676571,0.0138138818 16.9475847,0.0722132578 C18.2248447,0.130469732 19.0971676,0.333343257 19.860456,0.630008276 C20.6495621,0.936628817 21.3187732,1.34694874 21.985936,2.01406396 C22.6530513,2.68122682 23.0633712,3.35043794 23.3700394,4.13954402 C23.6666567,4.90283244 23.8695303,5.77515526 23.9277867,7.05241535 C23.9861861,8.33234294 24,8.74099567 24,12.0000238 C24,15.2590043 23.9861861,15.6676571 23.9277867,16.9475847 C23.8695303,18.2248447 23.6666567,19.0971676 23.3700394,19.860456 C23.0633712,20.6495621 22.6530513,21.3187732 21.985936,21.985936 C21.3187732,22.6530513 20.6495621,23.0633712 19.860456,23.3700394 C19.0971676,23.6666567 18.2248447,23.8695303 16.9475847,23.9277867 C15.6676571,23.9861861 15.2590043,24 12.0000238,24 C8.74099567,24 8.33234294,23.9861861 7.05241535,23.9277867 C5.77515526,23.8695303 4.90283244,23.6666567 4.13954402,23.3700394 C3.35043794,23.0633712 2.68122682,22.6530513 2.01406396,21.985936 C1.34694874,21.3187732 0.936628817,20.6495621 0.630008276,19.860456 C0.333343257,19.0971676 0.130469732,18.2248447 0.0722132578,16.9475847 C0.0138138818,15.6676571 0,15.2590043 0,12.0000238 C0,8.74099567 0.0138138818,8.33234294 0.0722132578,7.05241535 C0.130469732,5.77515526 0.333343257,4.90283244 0.630008276,4.13954402 C0.936628817,3.35043794 1.34694874,2.68122682 2.01406396,2.01406396 C2.68122682,1.34694874 3.35043794,0.936628817 4.13954402,0.630008276 C4.90283244,0.333343257 5.77515526,0.130469732 7.05241535,0.0722132578 C8.33234294,0.0138138818 8.74099567,0 12.0000238,0 Z M12.0000238,2.1621583 C8.79587013,2.1621583 8.41632182,2.17440026 7.15097025,2.23213276 C5.9809821,2.28548292 5.34559117,2.48097316 4.92274348,2.64531072 C4.3626144,2.86299845 3.96286924,3.12303286 3.54297487,3.54297487 C3.12303286,3.96286924 2.86299845,4.3626144 2.64531072,4.92274348 C2.48097316,5.34559117 2.28548292,5.9809821 2.23213276,7.15097025 C2.17440026,8.41632182 2.1621583,8.79587013 2.1621583,12.0000238 C2.1621583,15.2041299 2.17440026,15.5836782 2.23213276,16.8490298 C2.28548292,18.0190179 2.48097316,18.6544088 2.64531072,19.0772565 C2.86299845,19.6373856 3.1230805,20.0371308 3.54297487,20.4570251 C3.96286924,20.8769671 4.3626144,21.1370016 4.92274348,21.3546893 C5.34559117,21.5190268 5.9809821,21.7145171 7.15097025,21.7678672 C8.41617891,21.8255997 8.79563196,21.8378417 12.0000238,21.8378417 C15.204368,21.8378417 15.5838687,21.8255997 16.8490298,21.7678672 C18.0190179,21.7145171 18.6544088,21.5190268 19.0772565,21.3546893 C19.6373856,21.1370016 20.0371308,20.8769671 20.4570251,20.4570251 C20.8769671,20.0371308 21.1370016,19.6373856 21.3546893,19.0772565 C21.5190268,18.6544088 21.7145171,18.0190179 21.7678672,16.8490298 C21.8255997,15.5836782 21.8378417,15.2041299 21.8378417,12.0000238 C21.8378417,8.79587013 21.8255997,8.41632182 21.7678672,7.15097025 C21.7145171,5.9809821 21.5190268,5.34559117 21.3546893,4.92274348 C21.1370016,4.3626144 20.8769671,3.96286924 20.4570251,3.54297487 C20.0371308,3.12303286 19.6373856,2.86299845 19.0772565,2.64531072 C18.6544088,2.48097316 18.0190179,2.28548292 16.8490298,2.23213276 C15.5836782,2.17440026 15.2041299,2.1621583 12.0000238,2.1621583 Z M12.0000238,5.8378417 C15.4032879,5.8378417 18.1621583,8.59671206 18.1621583,12.0000238 C18.1621583,15.4032879 15.4032879,18.1621583 12.0000238,18.1621583 C8.59671206,18.1621583 5.8378417,15.4032879 5.8378417,12.0000238 C5.8378417,8.59671206 8.59671206,5.8378417 12.0000238,5.8378417 Z M12.0000238,16 C14.2091493,16 16,14.2091493 16,12.0000238 C16,9.79085069 14.2091493,8 12.0000238,8 C9.79085069,8 8,9.79085069 8,12.0000238 C8,14.2091493 9.79085069,16 12.0000238,16 Z M19.8456418,5.59438394 C19.8456418,6.38968246 19.2009146,7.03436203 18.4056161,7.03436203 C17.6103652,7.03436203 16.965638,6.38968246 16.965638,5.59438394 C16.965638,4.79908543 17.6103652,4.15435822 18.4056161,4.15435822 C19.2009146,4.15435822 19.8456418,4.79908543 19.8456418,5.59438394 Z" id="Instagram" fill="#008F4C"></path>
        <path d="M12.0000238,24 C15.2590043,24 15.6676571,24.0138139 16.9475847,24.0722133 C18.2248447,24.1304697 19.0971676,24.3333433 19.860456,24.6300083 C20.6495621,24.9366288 21.3187732,25.3469487 21.985936,26.014064 C22.6530513,26.6812268 23.0633712,27.3504379 23.3700394,28.139544 C23.6666567,28.9028324 23.8695303,29.7751553 23.9277867,31.0524153 C23.9861861,32.3323429 24,32.7409957 24,36.0000238 C24,39.2590043 23.9861861,39.6676571 23.9277867,40.9475847 C23.8695303,42.2248447 23.6666567,43.0971676 23.3700394,43.860456 C23.0633712,44.6495621 22.6530513,45.3187732 21.985936,45.985936 C21.3187732,46.6530513 20.6495621,47.0633712 19.860456,47.3700394 C19.0971676,47.6666567 18.2248447,47.8695303 16.9475847,47.9277867 C15.6676571,47.9861861 15.2590043,48 12.0000238,48 C8.74099567,48 8.33234294,47.9861861 7.05241535,47.9277867 C5.77515526,47.8695303 4.90283244,47.6666567 4.13954402,47.3700394 C3.35043794,47.0633712 2.68122682,46.6530513 2.01406396,45.985936 C1.34694874,45.3187732 0.936628817,44.6495621 0.630008276,43.860456 C0.333343257,43.0971676 0.130469732,42.2248447 0.0722132578,40.9475847 C0.0138138818,39.6676571 0,39.2590043 0,36.0000238 C0,32.7409957 0.0138138818,32.3323429 0.0722132578,31.0524153 C0.130469732,29.7751553 0.333343257,28.9028324 0.630008276,28.139544 C0.936628817,27.3504379 1.34694874,26.6812268 2.01406396,26.014064 C2.68122682,25.3469487 3.35043794,24.9366288 4.13954402,24.6300083 C4.90283244,24.3333433 5.77515526,24.1304697 7.05241535,24.0722133 C8.33234294,24.0138139 8.74099567,24 12.0000238,24 Z M12.0000238,26.1621583 C8.79587013,26.1621583 8.41632182,26.1744003 7.15097025,26.2321328 C5.9809821,26.2854829 5.34559117,26.4809732 4.92274348,26.6453107 C4.3626144,26.8629984 3.96286924,27.1230329 3.54297487,27.5429749 C3.12303286,27.9628692 2.86299845,28.3626144 2.64531072,28.9227435 C2.48097316,29.3455912 2.28548292,29.9809821 2.23213276,31.1509702 C2.17440026,32.4163218 2.1621583,32.7958701 2.1621583,36.0000238 C2.1621583,39.2041299 2.17440026,39.5836782 2.23213276,40.8490298 C2.28548292,42.0190179 2.48097316,42.6544088 2.64531072,43.0772565 C2.86299845,43.6373856 3.1230805,44.0371308 3.54297487,44.4570251 C3.96286924,44.8769671 4.3626144,45.1370016 4.92274348,45.3546893 C5.34559117,45.5190268 5.9809821,45.7145171 7.15097025,45.7678672 C8.41617891,45.8255997 8.79563196,45.8378417 12.0000238,45.8378417 C15.204368,45.8378417 15.5838687,45.8255997 16.8490298,45.7678672 C18.0190179,45.7145171 18.6544088,45.5190268 19.0772565,45.3546893 C19.6373856,45.1370016 20.0371308,44.8769671 20.4570251,44.4570251 C20.8769671,44.0371308 21.1370016,43.6373856 21.3546893,43.0772565 C21.5190268,42.6544088 21.7145171,42.0190179 21.7678672,40.8490298 C21.8255997,39.5836782 21.8378417,39.2041299 21.8378417,36.0000238 C21.8378417,32.7958701 21.8255997,32.4163218 21.7678672,31.1509702 C21.7145171,29.9809821 21.5190268,29.3455912 21.3546893,28.9227435 C21.1370016,28.3626144 20.8769671,27.9628692 20.4570251,27.5429749 C20.0371308,27.1230329 19.6373856,26.8629984 19.0772565,26.6453107 C18.6544088,26.4809732 18.0190179,26.2854829 16.8490298,26.2321328 C15.5836782,26.1744003 15.2041299,26.1621583 12.0000238,26.1621583 Z M12.0000238,29.8378417 C15.4032879,29.8378417 18.1621583,32.5967121 18.1621583,36.0000238 C18.1621583,39.4032879 15.4032879,42.1621583 12.0000238,42.1621583 C8.59671206,42.1621583 5.8378417,39.4032879 5.8378417,36.0000238 C5.8378417,32.5967121 8.59671206,29.8378417 12.0000238,29.8378417 Z M12.0000238,40 C14.2091493,40 16,38.2091493 16,36.0000238 C16,33.7908507 14.2091493,32 12.0000238,32 C9.79085069,32 8,33.7908507 8,36.0000238 C8,38.2091493 9.79085069,40 12.0000238,40 Z M19.8456418,29.5943839 C19.8456418,30.3896825 19.2009146,31.034362 18.4056161,31.034362 C17.6103652,31.034362 16.965638,30.3896825 16.965638,29.5943839 C16.965638,28.7990854 17.6103652,28.1543582 18.4056161,28.1543582 C19.2009146,28.1543582 19.8456418,28.7990854 19.8456418,29.5943839 Z" id="Instagram-Copy" fill="#231F20"></path>
        <path d="M12.0000238,48 C15.2590043,48 15.6676571,48.0138139 16.9475847,48.0722133 C18.2248447,48.1304697 19.0971676,48.3333433 19.860456,48.6300083 C20.6495621,48.9366288 21.3187732,49.3469487 21.985936,50.014064 C22.6530513,50.6812268 23.0633712,51.3504379 23.3700394,52.139544 C23.6666567,52.9028324 23.8695303,53.7751553 23.9277867,55.0524153 C23.9861861,56.3323429 24,56.7409957 24,60.0000238 C24,63.2590043 23.9861861,63.6676571 23.9277867,64.9475847 C23.8695303,66.2248447 23.6666567,67.0971676 23.3700394,67.860456 C23.0633712,68.6495621 22.6530513,69.3187732 21.985936,69.985936 C21.3187732,70.6530513 20.6495621,71.0633712 19.860456,71.3700394 C19.0971676,71.6666567 18.2248447,71.8695303 16.9475847,71.9277867 C15.6676571,71.9861861 15.2590043,72 12.0000238,72 C8.74099567,72 8.33234294,71.9861861 7.05241535,71.9277867 C5.77515526,71.8695303 4.90283244,71.6666567 4.13954402,71.3700394 C3.35043794,71.0633712 2.68122682,70.6530513 2.01406396,69.985936 C1.34694874,69.3187732 0.936628817,68.6495621 0.630008276,67.860456 C0.333343257,67.0971676 0.130469732,66.2248447 0.0722132578,64.9475847 C0.0138138818,63.6676571 0,63.2590043 0,60.0000238 C0,56.7409957 0.0138138818,56.3323429 0.0722132578,55.0524153 C0.130469732,53.7751553 0.333343257,52.9028324 0.630008276,52.139544 C0.936628817,51.3504379 1.34694874,50.6812268 2.01406396,50.014064 C2.68122682,49.3469487 3.35043794,48.9366288 4.13954402,48.6300083 C4.90283244,48.3333433 5.77515526,48.1304697 7.05241535,48.0722133 C8.33234294,48.0138139 8.74099567,48 12.0000238,48 Z M12.0000238,50.1621583 C8.79587013,50.1621583 8.41632182,50.1744003 7.15097025,50.2321328 C5.9809821,50.2854829 5.34559117,50.4809732 4.92274348,50.6453107 C4.3626144,50.8629984 3.96286924,51.1230329 3.54297487,51.5429749 C3.12303286,51.9628692 2.86299845,52.3626144 2.64531072,52.9227435 C2.48097316,53.3455912 2.28548292,53.9809821 2.23213276,55.1509702 C2.17440026,56.4163218 2.1621583,56.7958701 2.1621583,60.0000238 C2.1621583,63.2041299 2.17440026,63.5836782 2.23213276,64.8490298 C2.28548292,66.0190179 2.48097316,66.6544088 2.64531072,67.0772565 C2.86299845,67.6373856 3.1230805,68.0371308 3.54297487,68.4570251 C3.96286924,68.8769671 4.3626144,69.1370016 4.92274348,69.3546893 C5.34559117,69.5190268 5.9809821,69.7145171 7.15097025,69.7678672 C8.41617891,69.8255997 8.79563196,69.8378417 12.0000238,69.8378417 C15.204368,69.8378417 15.5838687,69.8255997 16.8490298,69.7678672 C18.0190179,69.7145171 18.6544088,69.5190268 19.0772565,69.3546893 C19.6373856,69.1370016 20.0371308,68.8769671 20.4570251,68.4570251 C20.8769671,68.0371308 21.1370016,67.6373856 21.3546893,67.0772565 C21.5190268,66.6544088 21.7145171,66.0190179 21.7678672,64.8490298 C21.8255997,63.5836782 21.8378417,63.2041299 21.8378417,60.0000238 C21.8378417,56.7958701 21.8255997,56.4163218 21.7678672,55.1509702 C21.7145171,53.9809821 21.5190268,53.3455912 21.3546893,52.9227435 C21.1370016,52.3626144 20.8769671,51.9628692 20.4570251,51.5429749 C20.0371308,51.1230329 19.6373856,50.8629984 19.0772565,50.6453107 C18.6544088,50.4809732 18.0190179,50.2854829 16.8490298,50.2321328 C15.5836782,50.1744003 15.2041299,50.1621583 12.0000238,50.1621583 Z M12.0000238,53.8378417 C15.4032879,53.8378417 18.1621583,56.5967121 18.1621583,60.0000238 C18.1621583,63.4032879 15.4032879,66.1621583 12.0000238,66.1621583 C8.59671206,66.1621583 5.8378417,63.4032879 5.8378417,60.0000238 C5.8378417,56.5967121 8.59671206,53.8378417 12.0000238,53.8378417 Z M12.0000238,64 C14.2091493,64 16,62.2091493 16,60.0000238 C16,57.7908507 14.2091493,56 12.0000238,56 C9.79085069,56 8,57.7908507 8,60.0000238 C8,62.2091493 9.79085069,64 12.0000238,64 Z M19.8456418,53.5943839 C19.8456418,54.3896825 19.2009146,55.034362 18.4056161,55.034362 C17.6103652,55.034362 16.965638,54.3896825 16.965638,53.5943839 C16.965638,52.7990854 17.6103652,52.1543582 18.4056161,52.1543582 C19.2009146,52.1543582 19.8456418,52.7990854 19.8456418,53.5943839 Z" id="Instagram-Copy-2" fill="#FFFFFF"></path>
        <rect id="Rectangle-Copy-2" x="0" y="0" width="24" height="24"></rect>
        <rect id="Rectangle-Copy-3" x="0" y="24" width="24" height="24"></rect>
        <rect id="Rectangle-Copy-4" x="0" y="48" width="24" height="24"></rect>
    </g>
</svg>