<svg version="1.1" id="Layer_1" xmlns="http://www.w3.org/2000/svg" xmlns:xlink="http://www.w3.org/1999/xlink" x="0px" y="0px"
	 viewBox="0 0 230 150" style="enable-background:new 0 0 230 150;" xml:space="preserve">
<style type="text/css">
	.st0{fill:#FFFFFF;}
</style>
<g>
	<path class="st0" d="M197.1,120c-2.3,0-4.4,0.2-6.3,0.6c-1.9,0.4-3.6,0.9-5.1,1.4v26.5h7v-22.2c0.4-0.2,1-0.3,1.6-0.4
		c0.6-0.1,1.3-0.1,1.9-0.1c0.6,0,1.1,0,1.7,0.1c0.5,0.1,1,0.2,1.5,0.3l1.3-5.8c-0.5-0.1-1-0.1-1.6-0.2
		C198.5,120,197.8,120,197.1,120z"/>
	<path class="st0" d="M179.8,123.4c-1-1.1-2.3-2-3.8-2.6c-1.5-0.6-3.2-0.9-5.1-0.9c-2,0-3.9,0.4-5.4,1.1c-1.6,0.7-2.9,1.7-4.1,3
		c-1.1,1.3-2,2.8-2.5,4.6c-0.6,1.8-0.9,3.7-0.9,5.9c0,2.2,0.3,4.1,0.9,5.9c0.6,1.8,1.5,3.3,2.7,4.6c1.2,1.3,2.6,2.3,4.4,3
		c1.8,0.7,3.8,1.1,6.1,1.1c1.4,0,2.7-0.1,3.9-0.3c1.3-0.2,2.5-0.4,3.5-0.7c1.1-0.3,2-0.7,2.8-1.1l-2-5.3c-0.7,0.3-1.4,0.7-2.3,0.9
		c-0.8,0.3-1.7,0.5-2.7,0.6c-0.9,0.1-1.9,0.2-2.8,0.2c-1.4,0-2.6-0.2-3.7-0.7c-1.1-0.4-2-1.1-2.7-2c-0.7-0.9-1.1-2-1.4-3.4l18-2.4
		c0.1-0.4,0.1-2,0.1-2.4c0-1.9-0.3-3.6-0.8-5.2C181.6,125.9,180.9,124.6,179.8,123.4z M164.4,133c0-1.7,0.3-3.2,0.9-4.4
		c0.5-1.2,1.3-2.1,2.2-2.7c0.9-0.6,2-0.9,3.3-0.9c1.1,0,2,0.2,2.8,0.7c0.8,0.5,1.4,1.2,1.8,2.1c0.4,0.9,0.7,2.1,0.7,3.5L164.4,133z"
		/>
	<rect x="148.1" y="107.8" class="st0" width="7" height="40.6"/>
	<rect x="136.7" y="107.8" class="st0" width="7" height="40.6"/>
	<path class="st0" d="M130.7,123.4c-1-1.1-2.3-2-3.8-2.6c-1.5-0.6-3.2-0.9-5.1-0.9c-2,0-3.9,0.4-5.4,1.1c-1.6,0.7-2.9,1.7-4.1,3
		c-1.1,1.3-2,2.8-2.5,4.6c-0.6,1.8-0.9,3.7-0.9,5.9c0,2.2,0.3,4.1,0.9,5.9c0.6,1.8,1.5,3.3,2.7,4.6c1.2,1.3,2.6,2.3,4.4,3
		c1.8,0.7,3.8,1.1,6.1,1.1c1.4,0,2.7-0.1,3.9-0.3c1.3-0.2,2.5-0.4,3.5-0.7c1.1-0.3,2-0.7,2.8-1.1l-2-5.3c-0.7,0.3-1.4,0.7-2.3,0.9
		c-0.8,0.3-1.7,0.5-2.7,0.6c-0.9,0.1-1.9,0.2-2.8,0.2c-1.4,0-2.6-0.2-3.7-0.7c-1.1-0.4-2-1.1-2.7-2c-0.7-0.9-1.1-2-1.4-3.4l18-2.4
		c0.1-0.4,0.1-2,0.1-2.4c0-1.9-0.3-3.6-0.8-5.2C132.5,125.9,131.8,124.6,130.7,123.4z M115.3,133c0-1.7,0.3-3.2,0.9-4.4
		c0.5-1.2,1.3-2.1,2.2-2.7c0.9-0.6,2-0.9,3.3-0.9c1.1,0,2,0.2,2.8,0.7c0.8,0.5,1.4,1.2,1.8,2.1c0.4,0.9,0.7,2.1,0.7,3.5L115.3,133z"
		/>
	<path class="st0" d="M105.9,142.7c-0.6,0-1.2-0.1-1.6-0.3c-0.5-0.2-0.9-0.5-1.1-1c-0.3-0.4-0.4-1.1-0.4-1.8v-13.8h5.2v-5.3h-5.2
		v-8.2l-6.9,2v6.2h-3.6v5.3h3.6v14.2c0,2.9,0.6,5.1,1.9,6.6c1.3,1.5,3.3,2.2,6,2.2c0.6,0,1.1,0,1.7-0.1c0.5-0.1,1-0.2,1.5-0.3
		c0.4-0.1,0.8-0.3,1.1-0.4v-5.8c-0.2,0.1-0.5,0.2-0.9,0.3C106.7,142.6,106.3,142.7,105.9,142.7z"/>
	<rect x="83.1" y="120.6" class="st0" width="7" height="27.9"/>
	<path class="st0" d="M88.6,109c-0.6-0.3-1.3-0.5-2-0.5c-0.7,0-1.4,0.2-2,0.5c-0.6,0.3-1.1,0.8-1.4,1.3c-0.4,0.6-0.5,1.2-0.6,1.9
		c0,0.7,0.2,1.4,0.6,1.9c0.4,0.6,0.8,1,1.4,1.4c0.6,0.3,1.3,0.5,2,0.5c0.8,0,1.4-0.2,2-0.5c0.6-0.3,1.1-0.8,1.4-1.4
		c0.4-0.6,0.5-1.2,0.6-1.9c0-0.7-0.2-1.4-0.6-1.9C89.7,109.8,89.2,109.4,88.6,109z"/>
	<path class="st0" d="M73.9,121.1c-1.8-0.7-4.1-1.1-6.8-1.1c-2.3,0-4.4,0.2-6.2,0.6c-1.8,0.4-3.5,0.9-4.9,1.5v26.5h7v-22.2
		c0.5-0.2,1.1-0.3,1.8-0.5c0.7-0.1,1.5-0.2,2.4-0.2c1.6,0,2.8,0.4,3.7,1.2c0.8,0.8,1.3,1.9,1.3,3.3v18.4h7.1v-19.1
		c0-2-0.4-3.7-1.3-5.1C77,122.9,75.7,121.8,73.9,121.1z"/>
	<path class="st0" d="M45.2,142.7c-0.4,0.2-0.9,0.3-1.7,0.4c-0.7,0.1-1.5,0.2-2.4,0.2c-1.6,0-2.7-0.4-3.5-1.1
		c-0.8-0.7-1.2-1.8-1.2-3.3v-18.3h-7v18.2c0,2.4,0.4,4.4,1.3,5.9c0.9,1.5,2.2,2.7,3.9,3.4c1.7,0.7,3.9,1.1,6.5,1.1
		c1.5,0,2.9-0.1,4.3-0.3c1.4-0.2,2.7-0.4,3.8-0.7c1.2-0.3,2.2-0.7,3-1.1v-26.5h-7V142.7z"/>
	<path class="st0" d="M56.7,73.8c1.2-0.3,2.2-0.9,3.2-1.6c0.9-0.7,1.7-1.5,2.4-2.5c2.1-2.8,3.1-6,3.1-9.5c0-10.8,0-21.6,0-32.5
		c0-1.3-0.2-2.6-0.5-3.9c-0.5-2.1-1.5-4-2.8-5.7c-0.7-1-1.6-1.8-2.6-2.6c-0.9-0.6-1.8-1.1-2.8-1.4c-0.4-0.1-0.8-0.2-1.2-0.3
		c-5-1.4-10-2.8-15-4.2c-5.1-1.4-10.2-2.9-15.4-4.3C20.8,3.9,16.4,2.7,12,1.4C11.2,1.2,10.3,1,9.5,0.7C8.4,0.4,7.3,0.6,6.3,1.1
		C5.9,1.4,5.6,1.6,5.2,2C4.8,2.3,4.5,2.7,4.2,3.2C3.8,3.8,3.4,4.4,3.1,5C2.6,6.1,2.2,7.2,1.9,8.4c-0.5,2-0.8,4.1-0.9,6.2
		c0,0.2,0,0.3,0,0.5c0,0.2-0.1,0.4-0.2,0.6c0,18.9,0,37.7,0,56.6c0.1,0.1,0.2,0.3,0.2,0.5c0,0.2,0,0.4,0,0.6c0,0.6,0.1,1.2,0.1,1.8
		c0.1,1,0.3,2.1,0.5,3.1c0.3,1.2,0.6,2.3,1,3.5c0.4,0.9,0.8,1.8,1.3,2.6c0.3,0.5,0.7,1,1.2,1.5c0.4,0.4,0.8,0.7,1.2,1
		C7.1,87.2,8,87.4,9,87.2c0.2,0,0.5-0.1,0.7-0.2c1.6-0.4,3.1-0.9,4.7-1.3c7.9-2.2,15.7-4.5,23.6-6.7C44.2,77.3,50.4,75.5,56.7,73.8z
		"/>
	<path class="st0" d="M229.3,14.1c0-0.2,0-0.4,0-0.7c0-0.3,0-0.5,0-0.8c-0.1-1-0.3-2-0.5-3c-0.3-1.3-0.6-2.5-1.1-3.8
		c-0.3-0.8-0.7-1.6-1.2-2.4C226,3,225.6,2.4,225.1,2c-0.4-0.4-0.9-0.8-1.5-1c-0.6-0.2-1.1-0.4-1.7-0.4c-0.4,0-0.7,0.1-1.1,0.2
		c-0.9,0.2-1.7,0.5-2.6,0.7c-7.2,2-14.3,4-21.5,6.1c-7.7,2.2-15.3,4.3-23,6.5c-1.1,0.3-2.1,0.8-3,1.5c-0.9,0.7-1.8,1.5-2.5,2.4
		c-2.2,2.8-3.3,6-3.3,9.6c0,10.9,0,21.8,0,32.7c0,0.9,0.1,1.9,0.3,2.8c0.4,2.3,1.3,4.5,2.7,6.4c0.7,1,1.5,1.9,2.5,2.7
		c1,0.8,2.1,1.3,3.3,1.7c2.3,0.6,4.5,1.3,6.8,1.9c4.4,1.2,8.8,2.5,13.1,3.7c4.4,1.2,8.8,2.5,13.2,3.7c4,1.1,8,2.3,12.1,3.4
		c0.7,0.2,1.4,0.4,2.1,0.6c0.4,0.1,0.7,0.1,1.1,0.1c0.6,0,1.1-0.2,1.7-0.4c0.5-0.3,1-0.6,1.4-1c0.5-0.5,0.9-1,1.3-1.5
		c0.4-0.6,0.7-1.3,1-1.9c0.5-1.1,0.8-2.2,1.1-3.3c0.2-0.9,0.4-1.8,0.5-2.8c0.1-0.7,0.2-1.4,0.2-2.1c0-0.1,0-0.2,0-0.3
		c0-0.2,0-0.3,0.1-0.5c0-19.7,0-39.4,0-59.1C229.3,14.3,229.3,14.2,229.3,14.1z"/>
	<path class="st0" d="M70.5,69.8c0,1.7,0,3.5,0.1,5.2c0,0.7,0.1,1.4,0.1,2.1c0.1,1,0.2,2.1,0.4,3.1c0.2,1.1,0.4,2.1,0.6,3.2
		c0.2,0.7,0.4,1.4,0.7,2c0.2,0.4,0.4,0.7,0.6,1.1c0.2,0.2,0.3,0.4,0.5,0.5c0.4,0.3,0.8,0.3,1.2,0.1c0.1-0.1,0.3-0.1,0.4-0.2
		c6.6-3.7,13.1-7.4,19.7-11.1c1.2-0.7,2.3-1.3,3.5-2c0.4-0.2,0.8-0.5,1.1-0.9c0.2-0.3,0.4-0.6,0.6-0.9c0.2-0.4,0.5-0.8,0.7-1.2
		c0.4-0.9,0.7-1.8,1-2.8c0.4-1.4,0.7-2.9,0.8-4.4c0.1-1.1,0.2-2.3,0.2-3.4c0-0.1,0-0.2,0-0.4c0-10.7,0-21.4,0-32.1
		c0-0.2,0-0.4,0-0.6c0-1.2-0.1-2.4-0.2-3.6c-0.1-1.1-0.3-2.1-0.6-3.2c-0.3-1.2-0.7-2.4-1.2-3.5c-0.3-0.6-0.6-1.1-0.9-1.6
		c-0.4-0.6-1-1.1-1.6-1.5c-1.8-1-3.5-2-5.2-3C87,7.6,81,4.2,75.1,0.9c-0.1-0.1-0.3-0.2-0.5-0.2c-0.1-0.1-0.3-0.1-0.4-0.1
		c-0.3,0-0.5,0.1-0.7,0.3C73.3,1,73.1,1.2,73,1.4c-0.2,0.3-0.4,0.6-0.5,1c-0.3,0.7-0.5,1.4-0.7,2.1c-0.3,1.3-0.6,2.6-0.7,3.9
		c-0.2,1.3-0.3,2.5-0.4,3.8c-0.1,1.3-0.1,2.7-0.1,4c0,9.2,0,18.5,0,27.7C70.5,52.6,70.5,61.2,70.5,69.8z"/>
	<path class="st0" d="M158.8,82.5c0.2-0.9,0.4-1.8,0.5-2.7c0.1-0.6,0.2-1.2,0.2-1.8c0.1-0.6,0.1-1.2,0.1-1.7
		c0.1-1.1,0.1-2.1,0.2-3.2c0-0.6,0-1.2,0-1.8c0-9.1,0-18.2,0-27.4c0-9.1,0-18.2,0-27.3c0-1.2,0-2.3-0.1-3.5c-0.1-1.3-0.2-2.7-0.3-4
		c-0.1-1.1-0.3-2.3-0.5-3.4c-0.2-0.9-0.4-1.8-0.7-2.6c-0.2-0.5-0.4-1-0.6-1.4c-0.1-0.3-0.3-0.5-0.5-0.7c-0.1-0.2-0.3-0.3-0.5-0.4
		c-0.3-0.2-0.6-0.2-0.9,0c-0.2,0.1-0.3,0.2-0.5,0.3c-4.3,2.4-8.6,4.9-12.9,7.3c-3.4,1.9-6.7,3.8-10.1,5.7c-0.7,0.4-1.2,0.8-1.6,1.5
		c-0.2,0.3-0.4,0.6-0.6,1c-0.3,0.6-0.6,1.3-0.9,1.9c-0.8,2.1-1.2,4.3-1.4,6.6c-0.1,1.1-0.1,2.1-0.1,3.2c0,4.3,0,8.5,0,12.8
		c0,6.6,0,13.1,0,19.7c0,1.2,0.1,2.5,0.2,3.7c0.1,1.1,0.3,2.1,0.6,3.2c0.3,1.1,0.6,2.3,1.1,3.3c0.3,0.6,0.6,1.2,1,1.8
		c0.4,0.6,1,1.2,1.7,1.5c4.5,2.6,9.1,5.1,13.6,7.7c3.2,1.8,6.3,3.6,9.5,5.4c0.1,0.1,0.3,0.2,0.4,0.2c0.4,0.2,0.8,0.2,1.1-0.1
		c0.2-0.1,0.3-0.2,0.4-0.4c0.2-0.2,0.3-0.4,0.4-0.6c0.2-0.4,0.4-0.7,0.5-1.1C158.4,84.2,158.6,83.4,158.8,82.5z"/>
	<path class="st0" d="M112.1,73c0.1-0.7,0.2-1.4,0.2-2.1c0.1-1.3,0.2-2.6,0.2-3.9c0.1-2.2,0.1-4.4,0.1-6.6c0-10.6,0-21.2,0-31.8
		c0-1.9,0-3.7-0.1-5.6c0-1.4-0.1-2.9-0.1-4.3c0-0.1,0-0.2,0-0.4c-0.1-0.8-0.1-1.6-0.2-2.4c-0.1-0.7-0.2-1.5-0.4-2.2
		c-1.1-4-2.1-8.1-3.2-12.1c-0.1-0.2-0.1-0.5-0.2-0.7c0,0,0,0-0.1-0.1c0,0-0.1,0-0.1,0c0,0.2-0.1,0.5-0.1,0.7c-0.1,1-0.1,2.1-0.2,3.1
		c-0.1,1.2-0.1,2.5-0.1,3.7c0,2.3-0.1,4.7-0.1,7c0,9.5,0,19.1,0,28.6c0,9.7,0,19.3,0,29c0,0.6,0,1.2,0,1.8c0,2.5,0,5,0.1,7.5
		c0,1.4,0.1,2.8,0.2,4.2c0,0.3,0.1,0.5,0.1,0.8c0,0,0.1,0,0.1,0c0,0,0,0,0,0c0.1-0.2,0.1-0.3,0.1-0.5c1.1-4.2,2.2-8.4,3.3-12.6
		C112,73.7,112.1,73.4,112.1,73z"/>
	<path class="st0" d="M117.7,64.7c0,1.8,0.1,3.6,0.2,5.4c0.1,0.9,0.1,1.7,0.2,2.6c0.1,0.5,0.1,0.9,0.2,1.4c0.4,1.5,0.8,3.1,1.2,4.6
		c0.7,2.7,1.4,5.4,2.1,8.1c0,0.1,0.1,0.3,0.1,0.4c0,0,0.1,0,0.1,0.1c0.1-0.3,0.1-0.5,0.1-0.8c0.1-1,0.1-2,0.2-3
		c0.1-1.2,0.1-2.3,0.1-3.5c0-2.6,0.1-5.1,0.1-7.7c0-18.8,0-37.6,0-56.4c0-1.1,0-2.2,0-3.3c0-2.4,0-4.7-0.1-7.1c0-1.3-0.1-2.7-0.2-4
		c0-0.2-0.1-0.5-0.1-0.7c0,0,0,0,0,0c0,0-0.1,0-0.1,0c-0.1,0.2-0.1,0.3-0.2,0.5c-1.1,4.2-2.2,8.3-3.3,12.5c-0.1,0.4-0.2,0.7-0.2,1.1
		c-0.1,0.7-0.2,1.4-0.2,2.1c-0.1,1.3-0.2,2.6-0.2,3.9c-0.1,2.1-0.1,4.1-0.1,6.2c0,10.7,0,21.4,0,32.1
		C117.7,61,117.7,62.9,117.7,64.7z"/>
</g>
</svg>
