<svg xmlns="http://www.w3.org/2000/svg" width="83" height="24" viewBox="0 0 83 24">
    <g fill="#FFF" fill-rule="evenodd">
        <path d="M22.777.253v.01c-.01 0-3.184-.01-4.029 3.022-.776 2.78-2.962 10.456-3.023 10.667h-.602S12.886 6.106 12.1 3.275C11.255.243 8.07.253 8.07.253H.818V23.32H8.07V9.621h.605l4.23 13.7h5.037l4.232-13.69h.604v13.69h7.252V.252h-7.253zM49.269.253s-2.125.191-3.122 2.417l-5.138 11.282h-.604V.253h-7.252V23.32h6.849s2.226-.2 3.224-2.418l5.036-11.28h.605V23.32h7.252V.253h-6.85zM59.342 10.73v12.59h7.253v-7.353h7.856a7.847 7.847 0 0 0 7.404-5.238H59.342z"/>
        <path d="M58.325.253c.805 4.392 4.099 7.917 8.36 9.065.967.262 1.984.404 3.032.404h12.431c.11-.524.161-1.059.161-1.612A7.854 7.854 0 0 0 74.452.253H58.325z" opacity=".402"/>
    </g>
</svg>
