<svg xmlns="http://www.w3.org/2000/svg" width="77" height="24" viewBox="0 0 77 24">
    <path fill="#FFF" fill-rule="evenodd" d="M6.496 3.565C4.594 2.511 2.426 1.664 0 1.077L.076.605h9.978c1.343.05 2.43.479 2.804 1.916l2.166 10.43-.001-.004v.004l.648 3.145L21.728.619h6.552l-9.74 22.65-6.544.01-5.5-19.714zm20.42 19.73L30.781.604h6.19l-3.874 22.693h-6.18zM55.534 1.162l-.838 4.918-.557-.26a11.358 11.358 0 0 0-4.627-.87c-2.422 0-3.544 1.008-3.544 1.951-.014 1.063 1.312 1.763 3.475 2.814 3.568 1.62 5.215 3.585 5.192 6.164-.049 4.713-4.268 7.755-10.77 7.755-2.777-.028-5.449-.576-6.893-1.21l.87-5.08.796.36c2.032.847 3.346 1.19 5.821 1.19 1.78 0 3.686-.694 3.703-2.215.011-.994-.799-1.703-3.208-2.815-2.347-1.085-5.454-2.906-5.42-6.166.038-4.412 4.344-7.49 10.455-7.49 2.4 0 4.32.494 5.545.954zM71.396.624l5.008 22.68h-5.741s-.568-2.606-.751-3.4c-.904 0-7.213-.01-7.922-.01-.243.614-1.302 3.41-1.302 3.41h-6.496l9.185-20.798c.65-1.478 1.758-1.882 3.24-1.882h4.779zm-7.628 14.629h5.137c-.25-1.137-1.434-6.554-1.434-6.554l-.418-1.958c-.311.853-.855 2.227-.82 2.167 0 0-1.952 5.036-2.465 6.345z"/>
</svg>
