<svg xmlns="http://www.w3.org/2000/svg" width="70" height="34" viewBox="0 0 70 34">
    <path fill="#000000" fill-rule="nonzero" d="M37.419 27.52c5.223-.784 13.907-2.55 18.371-.584 2.857 1.258 3.13 3.156 2.962 4.884-1.34-3.562-10.815-1.485-18.31.144-4.92 1.069-9.625 2.268-13.326 1.997-4.09-.3-8.968-3.205-6.792-7.94 1.263 4.167 10.913 2.428 17.095 1.5zm32.502-5.476c.52 2.217-1.62 4.678-3.795 4.675-4.345-.008-4.379-6.6-4.43-9.585-.054-3.082.151-5.887-1.102-5.532-2.133.606-5.234 9.543-1.825 10.745-1.98 3.587-6.602 1.83-6.264-2.712-1.761 5.668-7.4 5.629-8.776 1.614-.275 3.917-6.07 4.965-6.43-.373-.166 1.595-1.305 3.883-3.922 4.2-1.731.129-3.291-1.574-3.13-2.984-2.299 5.777-9.411 4.747-9.007-1.9-.169-.022-.643-.083-.76-.105-.309 1.808-1 4.078-2.547 5.444-1.964 1.733-5.513 1.78-6.284-1.134-.168.747-.29 1.492-.504 2.214-.614 2.768-2.928 5.66-6.38 5.957-5.138.441-6.063-6.587-3.055-7.35-.293 2.907 3.503 2.626 5.12.149 1.427-2.185 2.196-6.288 2.932-8.656 1.25-3.208 4.313-4.01 5.363-2.093-1.162.202-2.153.536-2.963 4.823 1.173-.886 3.24-1.365 5.495-1.234.304-4.24-2.234-7.127-6.115-6.499-2.805.455-6.383 3.401-5.378 8.103-7.036 1.363-6.182-6.356-3.21-9.708 3.22-3.633 9.11-4.318 12.866-2.406 4.419 2.251 5.3 6.727 4.859 10.903.203.044.507.07.71.112.377-3.044 1.373-6.24 4.2-7.844 4.492-2.55 6.537 3.138 3.474 7.278-1.138 1.537-2.606 2.268-4.458 2.284-.141 1.285.503 2.715 2.008 2.415 2.578-.515 3.54-3.763 4.302-5.891 1.096-3.063 2.551-6.45 6.829-7.768 5.266-1.623 6.632 5.108 3.658 5.756-.023-2.643-2.858-2.928-4.592-1.66-3.208 2.344-3.947 8.562-2.518 8.644 2.155.123 4.037-6.352 3.584-8.059 1.241-.978 2.53.093 2.646 1.386.072.809-.18 1.813-.368 2.93-.499 2.959.896 3.72 2.026 2.96.822-.554 1.018-2.154 1.177-3.808.291-3.037 1.4-7.314 4.263-8.81 3.917-2.047 5.678 1.512 4.537 5.295-.36 1.194-1.446 2.43-3.006 1.508 1.735-1.882-.312-6.277-2.17-1.174-1.015 2.784-.743 5.691.42 6.455.813.533 2.299.34 3.385-.77 1.222-1.247 2.276-3.744 3.097-7.97.3-1.545.878-4.331 1.28-5.412-3.486-.71-8.584-.877-10.328 2.309-1.906-.302-2.384-4.567 2.283-6.325 3.568-1.257 6.445-.11 9.315 1.169l.026.011c.428-1.462 2.606-4.577 5.41-3.335 1.125.499 1.9 1.7 1.805 3.44-.144 2.621-2.898 3.486-4.927 3.336-1.136 3.207-1.774 6.474-1.89 8.049 1.39-4.454 2.925-6.842 5.41-7.407 2.323-.528 4.282 2.055 4.074 8.037.013 3.516-.197 7.202 3.58 6.303zm-42.227-8.143c-1.754.464-2.831 3.508-2.942 5.119 1.674.071 2.564-.77 3.218-1.57 1.27-1.552.952-3.873-.276-3.549zm-10.23 5.804c-2.055-.282-5.272.691-5.198 2.939.072 2.153 4.514 1.456 5.198-2.94zM59.569 4.938c1.206.552 1.914.378 2.35.042 1.289-.995.346-2.765-.663-2.516-.87.215-1.25 1.259-1.687 2.474z"/>
</svg>
