<svg xmlns="http://www.w3.org/2000/svg" width="145" height="64" viewBox="0 0 145 64">
    <g fill="none" fill-rule="evenodd">
        <path fill="#008F4C" d="M75.199 29.928c-4.534 5.477 5.128 5.974 8.543-.642.919.14 2.538 4.464 1.684 4.805-4.074 2.767-9.575 2.656-11.682 1.443-1.678-.647-5.573-4.914-.854-10.632 7.392-8.964 16.3-3.213 10.771 3.146-3.708 4.26-7.666 3.32-8.462 1.88zm8.488-6.66c-2.933-1.777-8.207 5.362-6.71 6.333 2.956 1.915 8.657-5.152 6.71-6.332zM29.248 37.397c2.021-8.535 1.764-8.999 4.482-18.216.353-2.988 10.672-3.578 10.267-2.644-1.208 2.787-5.792 6.562-7.2 12.08.358-.091 10.681-10.138 13.825-12.424 4.346-3.158 4.606 1.112 1.387 4.271-.322.518-1.881-.489-2.653.063-2.317 1.662-9.199 5.626-12.201 9.202 1.124 2.509 5.625 1.714 8.74-1.924.921-.326-.495 6.14-1.597 6.906-6.245 3.21-7.143-2.996-7.886-4.321-.904 2.565-1.894 8.947-4.44 8.283-1.165-.25-2.982-.184-2.724-1.276zm-9.325-2.983c.926 2.57-3.108 3.3-5.379 3.548-9.18.993-2.11-11.464-2.565-11.605-2.927.977-8.596 11.03-10.747 10.4-3.181-.253.795-17.972.87-18.048.868-1.919 8.885-3.179 8.653-2.378 1.802.527-5.961 13.403-4.545 13.819 2.685-3.658 8.043-7.97 10.734-7.182 3.253.953-2.88 11.44.38 12.394.931.273 1.41-.283 2.599-.948zm8.159-5.07c3.33-8.323 1.624-10.127-.346-8.757-3.186 2.215-2.626 11.18.346 8.758zm-1.524-10.178c2.4-1.942 4.368.678 4.413 2.31.305 2.839-2.281 12.562-6.773 13.069-7.532.85-6.652-8.157 2.36-15.379zm28.121 12.053c1.92-.75 4.004-11.485.712-9.064-3.187 2.215-5.314 11.838-.712 9.064zm-.466-10.486c2.399-1.942 4.369.678 4.413 2.31.305 2.84-2.193 11.512-6.684 12.02-7.532.849-6.741-7.107 2.27-14.33zm-4.778 21.99c-5.59.955-9.123-3.088-5.033-5.242 1.963-.894 5.49-1.457 5.077-.17-.914 2.844-.76 3.045-.069 3.758 3.182.537 14.46-17.22 14.755-20.166.112-1.102 4.016-1.049 5.72-.853 2.961.635-1.092 13.137-2.135 16.167-.602 1.752-4.177 2.64-5.803 2.368-1.372-.232-.245-7.43.292-10.354-1.619 4.977-11.127 14.206-12.804 14.492zM105.231 19.9c.938.961-.394 13.478-1.56 19.342-.414 2.244-9.375 5.452-8.605 2.747.86-2.393 3.067-13.292 3.471-15-2.882.864-2.577 1.19-5.272 1.528-.137 1.246-1.135 6.095-1.704 6.742-1.855 2.113-5.002.193-5.224-.745.18-2.01.714-4.183 1.208-5.806.384-1.257 2.257-8.529 2.407-8.792 1.447-2.143 5.187-3.048 5.113-1.25-.015.337-1.648 7.037-1.51 7.324.083.173.258.32.604.425.492.148 4.9-1.329 5.085-1.537.479-.538.583-2.52 1.68-3.676 1.596-1.425 3.866-1.832 4.307-1.302zM124 33.206c.288 3.014-9.2 6.744-7.404 2.325 1.224-3.014 2.299-7.67 2.968-9.486-3.657 5.829-12.3 10.732-13.276 7.238-.4-1.433-.132-2.086.207-4.393.22-1.479.638-4.016 1.863-5.59 1.25-1.284 4.52-2.18 5.932-1.766.921 1.44-3.09 8.873-2.817 9.935 2.037 2.511 7.091-6.336 8.123-7.372 1.776-1.783 4.586-1.978 5.931-1.83 1.188.348-1.66 9.058-1.527 10.939zm6.154-3.278c-1.26 1.524-.886 2.354-.349 2.824 2.946 2.006 8.224-.554 12.551-4.252.83-.824 3.199 4.418 2.257 4.715-4.075 2.767-12.398 3.532-16.618 2.276-2.338-1.085-4.452-5.452-.15-10.59 7.709-8.697 16.3-3.212 10.77 3.147-3.707 4.26-7.664 3.32-8.461 1.88zm8.49-6.66c-2.935-1.777-8.21 5.362-6.71 6.333 2.954 1.915 8.657-5.152 6.71-6.332zM11.276 6.412c0 .738-.263 1.314-.788 1.727-.497.4-1.153.599-1.97.599h-1.75c-.577 0-.864-.273-.864-.819v-5.63c0-.56.277-.84.831-.84h3.184c.59 0 .887.197.887.59 0 .385-.298.578-.89.578H7.292v1.458h1.36c.783 0 1.415.213 1.897.639.483.427.725.992.725 1.698zm-2.95-1.189H7.294V7.59h1.054c.967 0 1.45-.393 1.45-1.178 0-.792-.49-1.189-1.471-1.189zm8.9 2.757c0 .545-.225.818-.677.818-.46 0-.69-.275-.69-.827V4.334h-1.565c-.299 0-.447.136-.447.408v2.65c0 .399-.098.724-.296.977-.226.285-.55.428-.973.428-.335 0-.565-.02-.69-.06-.248-.073-.372-.226-.372-.459 0-.213.077-.36.23-.44.109-.053.295-.08.557-.08.097 0 .17-.12.22-.358.03-.126.043-.276.043-.448V4.69c0-.525.133-.895.395-1.11.263-.217.685-.324 1.27-.324h2.35c.432 0 .646.266.646.797V7.98zm6.511 0c0 .545-.222.818-.667.818-.278 0-.456-.108-.536-.324a5.582 5.582 0 0 0-.11-.355H22.4c-.393.452-.898.68-1.51.68-.372 0-.718-.068-1.038-.2-.555-.231-.976-.588-1.259-1.072-.263-.444-.394-.957-.394-1.54 0-.57.139-1.082.415-1.54a2.566 2.566 0 0 1 1.26-1.061c.32-.133.649-.2.984-.2.612 0 1.13.22 1.553.66h.01v-.01c.023-.073.056-.16.1-.26.095-.233.277-.35.547-.35.445 0 .667.27.667.808v3.946zM20.99 4.354c-.475 0-.831.182-1.073.545-.204.305-.306.686-.306 1.142 0 .424.106.784.318 1.081.255.352.602.527 1.04.527.48 0 .845-.172 1.094-.516.21-.291.317-.668.317-1.131 0-.451-.103-.824-.306-1.122-.25-.35-.61-.526-1.084-.526zm7.44-.56c0 .36-.264.54-.789.54h-1.28V7.99c0 .538-.233.807-.7.807-.444 0-.666-.272-.666-.817V4.063c0-.538.232-.807.699-.807h1.947c.525 0 .788.179.788.539zm5.874 2.227c0 .792-.246 1.454-.744 1.987-.517.559-1.203.839-2.056.839-.84 0-1.524-.283-2.058-.849-.502-.539-.753-1.198-.753-1.977 0-.792.246-1.454.743-1.987.533-.572 1.222-.858 2.068-.858.86 0 1.55.282 2.068.848.488.533.732 1.198.732 1.997zm-2.8-1.717c-.478 0-.846.183-1.103.55-.213.312-.319.698-.319 1.157 0 .453.11.839.33 1.159.257.372.621.559 1.092.559.478 0 .841-.187 1.092-.56.212-.312.319-.699.319-1.158 0-.452-.107-.835-.32-1.148-.258-.373-.622-.56-1.09-.56zm7.418-.51c0 .36-.256.54-.766.54h-.908V7.99c0 .538-.234.807-.7.807-.445 0-.668-.272-.668-.817V4.334h-.875c-.525 0-.788-.18-.788-.54 0-.36.263-.538.788-.538h3.129c.525 0 .788.179.788.539zm5.317 3.336c0 1.072-.763 1.608-2.286 1.608H40.3c-.504 0-.756-.237-.756-.71V3.985c0-.487.248-.73.744-.73h1.542c1.409 0 2.113.497 2.113 1.488 0 .493-.234.862-.7 1.108.3.114.539.284.72.51.183.226.275.482.275.769zm-3.336-2.986v1.358h.798c.591 0 .887-.23.887-.689 0-.446-.292-.67-.877-.67h-.808zM42.85 7.13c0-.506-.36-.76-1.078-.76h-.87v1.468h.87c.718 0 1.078-.236 1.078-.708zm7.647-1.109c0 .792-.248 1.454-.744 1.987-.518.559-1.203.839-2.057.839-.838 0-1.525-.283-2.058-.849-.501-.539-.754-1.198-.754-1.977 0-.792.248-1.454.744-1.987.533-.572 1.222-.858 2.068-.858.861 0 1.55.282 2.068.848.489.533.733 1.198.733 1.997zm-2.8-1.717c-.48 0-.846.183-1.103.55-.214.312-.32.698-.32 1.157 0 .453.11.839.33 1.159.258.372.622.559 1.092.559.478 0 .842-.187 1.092-.56.213-.312.32-.699.32-1.158 0-.452-.107-.835-.32-1.148-.259-.373-.622-.56-1.092-.56zm9.277 1.707c0 .77-.223 1.423-.668 1.96-.488.59-1.142.885-1.958.885-.598 0-1.094-.202-1.487-.609h-.034v1.908c0 .565-.223.848-.668.848-.466 0-.699-.283-.699-.848V4.044c0-.546.23-.819.69-.819.29 0 .487.124.59.37.013.06.043.143.087.249.315-.413.83-.619 1.547-.619.826 0 1.478.286 1.951.856.433.51.649 1.154.649 1.93zm-1.39.01c0-.447-.102-.819-.307-1.115-.24-.355-.594-.532-1.061-.532-.466 0-.83.164-1.093.493-.234.289-.35.654-.35 1.095v.246c0 .402.124.747.371 1.037.27.31.624.463 1.062.463.474 0 .835-.18 1.083-.542.197-.303.295-.684.295-1.145zm7.713 1.978c0 .532-.226.798-.678.798-.46 0-.69-.263-.69-.787V5.422l-2.647 2.676c-.052.466-.274.699-.667.699-.46 0-.69-.266-.69-.798V4.022c0-.531.23-.797.69-.797.452 0 .678.266.678.798v2.694l2.623-2.756c.066-.49.303-.736.712-.736.446 0 .67.263.67.788v3.986zm5.219-4.204c0 .359-.256.54-.766.54h-.908V7.99c0 .538-.234.807-.7.807-.445 0-.668-.272-.668-.817V4.334H64.6c-.525 0-.788-.18-.788-.54 0-.36.263-.538.788-.538h3.129c.525 0 .788.179.788.539zm5.875 1.917c0 .22-.079.39-.236.513-.158.124-.36.185-.608.185h-3.324c.014.394.167.711.46.954.293.243.655.364 1.086.364.359 0 .763-.104 1.212-.314.45-.21.696-.315.74-.315.366 0 .55.17.55.51 0 .106-.055.226-.165.36-.233.28-.59.498-1.072.658-.423.14-.857.21-1.302.21-.868 0-1.575-.28-2.123-.84-.517-.532-.776-1.201-.776-2.006 0-.779.264-1.443.793-1.992.53-.549 1.216-.823 2.062-.823.744 0 1.38.251 1.91.753.528.503.793 1.097.793 1.783zm-1.368-.17a1.406 1.406 0 0 0-.377-.939c-.238-.252-.556-.38-.958-.38-.4 0-.739.128-1.011.38a1.381 1.381 0 0 0-.454.939h2.8zm7.287 2.437c0 .545-.226.818-.678.818-.46 0-.69-.275-.69-.827V4.334h-1.565c-.299 0-.447.136-.447.408v2.65c0 .399-.1.724-.297.977-.226.285-.55.428-.973.428-.335 0-.566-.02-.69-.06-.247-.073-.371-.226-.371-.459 0-.213.077-.36.23-.44.109-.053.295-.08.557-.08.096 0 .169-.12.218-.358.03-.126.045-.276.045-.448V4.69c0-.525.132-.895.395-1.11.262-.217.684-.324 1.269-.324h2.351c.43 0 .646.266.646.797V7.98zm5.919-.89c0 1.1-.763 1.649-2.287 1.649h-1.607c-.505 0-.756-.248-.756-.74V3.985c0-.506.226-.76.678-.76.46 0 .69.25.69.749v1.448c1.123 0 1.852.05 2.187.15.73.213 1.095.718 1.095 1.518zm-2.468-.748h-.815v1.497h.815c.719 0 1.077-.249 1.077-.748 0-.5-.358-.749-1.077-.749zm8.572 1.638c0 .545-.23.818-.69.818-.451 0-.678-.272-.678-.816v-1.61h-2.45v1.61c0 .544-.226.816-.679.816-.46 0-.689-.273-.689-.818V4.043c0-.545.23-.817.689-.817.453 0 .678.269.678.808v1.378h2.45V4.044c0-.546.228-.818.68-.818.46 0 .689.269.689.807v3.946zm5.81-.89c0 1.1-.751 1.649-2.254 1.649h-1.587c-.481 0-.722-.248-.722-.74V3.985c0-.506.226-.76.68-.76.459 0 .688.25.688.749v1.448c1.086 0 1.802.053 2.144.16.7.22 1.05.722 1.05 1.508zm-2.44-.748h-.755v1.497h.755c.714 0 1.07-.249 1.07-.748 0-.5-.356-.749-1.07-.749zm4.508 1.677c0 .5-.23.749-.69.749-.453 0-.68-.25-.68-.749V4.044c0-.546.227-.818.68-.818.46 0 .69.269.69.808v3.984zM106.85 8c0 .532-.226.798-.678.798-.46 0-.69-.263-.69-.787V5.392l-2.647 3.055c-.204.233-.427.35-.667.35-.46 0-.69-.266-.69-.798V4.022c0-.531.23-.797.69-.797.453 0 .679.268.679.801v2.703l2.625-3.094c.233-.273.47-.41.71-.41.445 0 .668.263.668.788v3.986zm-1.094-6.241c0 .306-.186.562-.558.768a2.128 2.128 0 0 1-2.057-.01c-.379-.206-.569-.459-.569-.758 0-.273.153-.41.46-.41.16 0 .34.1.536.3.196.2.397.299.602.299.22 0 .421-.1.607-.3.186-.199.355-.298.51-.298.312 0 .469.136.469.409zm13.698 4.223c0 .593-.15 1.109-.448 1.548-.322.452-.773.785-1.358.998-.387.14-.951.21-1.695.21v1.438c0 .552-.227.828-.679.828-.459 0-.689-.273-.689-.818V8.737c-.737 0-1.298-.07-1.685-.21-.584-.206-1.033-.542-1.345-1.008a2.61 2.61 0 0 1-.471-1.538c0-.586.157-1.105.47-1.557.313-.453.762-.782 1.346-.99.387-.138.948-.208 1.685-.208V1.674c0-.523.227-.785.679-.785.458 0 .689.258.689.776v1.56c.744 0 1.308.07 1.695.21.591.213 1.04.543 1.346.989.306.446.46.964.46 1.557zm-4.869 1.727V4.254h-.302c-.578 0-1.02.153-1.328.459-.307.306-.46.73-.46 1.268 0 .54.153.962.46 1.269.307.305.75.458 1.328.458h.302zm1.674-3.454h-.306v3.454h.306c.584 0 1.031-.153 1.34-.458.31-.307.465-.73.465-1.269 0-.492-.167-.904-.504-1.233-.335-.33-.768-.494-1.301-.494zm9.562 1.767c0 .792-.248 1.454-.744 1.987-.518.559-1.203.839-2.057.839-.84 0-1.525-.283-2.057-.849-.503-.539-.755-1.198-.755-1.977 0-.792.248-1.454.744-1.987.533-.572 1.221-.858 2.068-.858.86 0 1.55.282 2.068.848.489.533.733 1.198.733 1.997zm-2.8-1.717c-.478 0-.846.183-1.103.55-.214.312-.32.698-.32 1.157 0 .453.11.839.33 1.159.257.372.622.559 1.092.559.477 0 .842-.187 1.092-.56.212-.312.32-.699.32-1.158 0-.452-.108-.835-.32-1.148-.258-.373-.622-.56-1.092-.56zm8.949 3.675c0 .545-.23.818-.69.818-.452 0-.678-.272-.678-.816v-1.61h-2.45v1.61c0 .544-.226.816-.68.816-.458 0-.689-.273-.689-.818V4.043c0-.545.23-.817.69-.817.453 0 .678.269.678.808v1.378h2.45V4.044c0-.546.227-.818.679-.818.46 0 .69.269.69.807v3.946zm6.969 1.367c0 .413-.226.62-.678.62-.343 0-.514-.207-.514-.62v-.609h-4.005v.61c0 .412-.179.619-.535.619-.438 0-.658-.207-.658-.62v-.988c0-.287.084-.466.253-.54.146-.053.296-.106.449-.159.166-.113.25-.353.25-.72V4.634c0-.5.142-.858.428-1.078.263-.2.674-.3 1.236-.3h2.384c.432 0 .645.267.645.8v3.694h.088c.438-.006.657.172.657.538v1.06zm-2.111-1.597V4.284h-1.586c-.3 0-.45.136-.45.409v2.266c0 .307-.072.57-.218.79h2.254zM83.03 52.823c-1.561 2.337-3.94 4.002-7.808 4.002h-5.35c-.142 0-.142-.14-.085-.195l1.408-1.423c-1.972 0-3.099-1.144-3.521-2.427-.028-.083-.086-.224.084-.224h6c.62 0 1.07-.196 1.436-.502l4.767-3.947c-1.795 1.537-4.237 3.894-6.44 6.909-.059.084.011.191.096.191h2.845c1.859 0 4.28-.334 6.787-2.958.057-.055.105-.061.161-.034-.12.207-.248.41-.38.608zm-1.669 5.844c.424-.056.818-.139 1.156-.223l1.775 4.91h-1.24l-1.69-4.687zm4.741-10.872a.455.455 0 0 0 0-.647.968.968 0 0 1 0 1.378.99.99 0 0 1-1.39 0 .968.968 0 0 1 0-1.378.99.99 0 0 1 1.39 0 .463.463 0 0 0-.652 0 .454.454 0 0 0 0 .647c.18.178.472.178.652 0zm-3.416 8.585c1.58 0 2.795-.759 3.296-1.536-1.671 2.674-4.757 3.014-6.048 3.014l1.987 5.497h-1.24l-2.163-6c-.029-.083-.006-.143.056-.167.873-.335 1.07-.446 1.69-.808h2.422zm7.322-9.516c.142 0 .17.167.057.223l-1.83.837-.649-.279c-.084-.028-.112-.112-.027-.195l.479-.586h1.97z"/>
        <path fill="#E4151B" d="M74.63 51.328c-.28.251-.619.307-1.013.307h-2.169c2.226-5.33 4.14-9.264 4.648-10.324h5.998c.254.502.784 1.636 1.544 3.282-1.228.344-2.136 1.065-3.622 2.273a83.394 83.394 0 0 0-.907-2.15c-.619 1.31-1.212 2.874-1.774 4.408l-2.704 2.204zm-7.246 12.027a139.92 139.92 0 0 1 1.952-5.608h5.21l-1.81 5.608h-5.352zm16.142-5.281c2.025-.973 2.891-1.914 3.807-3.788 1.099 2.79 2.282 5.832 3.38 9.069h-5.29l-1.897-5.281zm2.455-3.23c-.5.777-1.714 1.535-3.295 1.535h-2.423c1.803-1.144 2.789-3.07 3.183-4.02.029-.054.02-.116-.036-.144-.056-.028-.104-.021-.16.034-2.508 2.624-4.93 2.958-6.788 2.958h-2.845c-.085 0-.155-.107-.096-.191 2.202-3.015 4.646-5.372 6.44-6.91 1.559-1.334 2.629-2.053 2.629-2.053a4.46 4.46 0 0 1 2.49-.724c1.578 0 2.648.95 2.958 1.535l-.48.586c-.084.083-.056.167.028.195l.649.230s-.584 4.246-2.254 6.92zm-1.269-6.318a.99.99 0 0 0 1.39 0 .968.968 0 0 0 0-1.378.99.99 0 0 0-1.39 0 .968.968 0 0 0 0 1.378zm51.768 14.82V58.3h-4.109v5.047h-4.391V49.963h4.391v4.908h4.109v-4.908h4.362v13.384h-4.362zm-16.607-13.662c3.067 0 4.701.39 6.135.837v12.826h-3.573l-.225-1.477c-.76 1.087-2.139 1.756-4.14 1.756-3.264 0-4.952-1.952-4.952-6.47 0-4.823 2.392-7.472 6.755-7.472zm1.745 9.563v-5.91c-.591-.14-1.014-.195-1.83-.195-1.406 0-2.11 1.282-2.11 3.847 0 2.091.647 3.18 1.83 3.18 1.068 0 1.716-.475 2.11-.922zM107.74 61.87c-.956 1.003-2.138 1.756-4.278 1.756-1.8 0-3.039-.613-3.715-1.813-.984 1.032-2.223 1.813-4.362 1.813-2.955 0-4.362-1.59-4.362-4.823v-8.84h4.362v8.253c0 1.254.62 1.952 1.745 1.952.732 0 1.604-.474 1.97-.92v-9.285h4.362v8.253c0 1.254.676 1.952 1.886 1.952.676 0 1.464-.474 1.83-.92v-9.285h4.39v13.384h-3.546l-.282-1.477z"/>
    </g>
</svg>
