<svg xmlns="http://www.w3.org/2000/svg" width="46" height="28" viewBox="0 0 46 28">
    <g fill="#FFF" fill-rule="evenodd">
        <path d="M17.056 24.744h12.122V2.964H17.056z" opacity=".399"/>
        <path d="M17.825 13.854c0-4.426 2.078-8.351 5.272-10.891A13.767 13.767 0 0 0 14.554 0C6.896 0 .701 6.196.701 13.854c0 7.658 6.195 13.854 13.853 13.854 3.233 0 6.196-1.117 8.543-2.964a13.832 13.832 0 0 1-5.272-10.89M45.532 13.854c0 7.658-6.195 13.854-13.854 13.854a13.767 13.767 0 0 1-8.542-2.964 13.775 13.775 0 0 0 5.272-10.89c0-4.426-2.078-8.351-5.272-10.891A13.767 13.767 0 0 1 31.678 0c7.66 0 13.854 6.234 13.854 13.854"/>
    </g>
</svg>
