<svg width="24px" height="72px" viewBox="0 0 24 72" version="1.1" xmlns="http://www.w3.org/2000/svg" xmlns:xlink="http://www.w3.org/1999/xlink">
    <g id="Artboard" stroke="none" stroke-width="1" fill="none" fill-rule="evenodd">
        <path d="M12.0294445,1.33226763e-14 C15.468773,1.33226763e-14 18.2568276,2.78325296 18.2568276,6.21645944 C18.2568276,9.64975489 15.468773,12.4331858 12.0294445,12.4331858 C8.59011602,12.4331858 5.80206142,9.64975489 5.80206142,6.21645944 C5.80206142,2.78325296 8.59011602,1.33226763e-14 12.0294445,1.33226763e-14 Z M12.0294445,8.78638246 C13.4511429,8.78638246 14.6037052,7.63575298 14.6037052,6.21654841 C14.6037052,4.79734383 13.4511429,3.64680331 12.0294445,3.64680331 C10.6077461,3.64680331 9.45518382,4.79734383 9.45518382,6.21654841 C9.45518382,7.63575298 10.6077461,8.78638246 12.0294445,8.78638246 Z M14.2999111,17.3904192 L18.0630942,21.1135516 C18.724884,21.773113 18.725686,22.8433211 18.0649656,23.5039501 C17.4042453,24.16449 16.3323347,24.1655576 15.6703667,23.5058183 L12.0168878,19.9542928 L8.69858153,23.4829551 C8.36634986,23.8269697 7.92316637,24 7.47953729,24 C7.05640533,24 6.6329169,23.8428048 6.30433908,23.5265463 C5.63114219,22.8785499 5.61162536,21.8085197 6.26076041,21.1365037 L9.83269637,17.4100797 C7.26975367,16.9150083 5.71411099,15.7057532 5.63399397,15.6416119 C4.90447455,15.0575789 4.78728446,13.9937759 5.37234371,13.2654472 C5.95731384,12.5372075 7.02289699,12.420223 7.75259464,13.004167 C7.76801205,13.0166216 9.39512731,14.2368191 12.0167987,14.2385983 C14.6385593,14.2368191 16.231988,13.0166216 16.2474054,13.004167 C16.977103,12.420223 18.0426862,12.5372075 18.6276563,13.2654472 C19.2127155,13.9937759 19.0955255,15.0575789 18.366006,15.6416119 C18.2869584,15.7048636 16.7929854,16.883427 14.2999111,17.3904192 Z" id="Combined-Shape" fill="#008F4C" fill-rule="nonzero"></path>
        <path d="M12.0294445,24 C15.468773,24 18.2568276,26.783253 18.2568276,30.2164594 C18.2568276,33.6497549 15.468773,36.4331858 12.0294445,36.4331858 C8.59011602,36.4331858 5.80206142,33.6497549 5.80206142,30.2164594 C5.80206142,26.783253 8.59011602,24 12.0294445,24 Z M12.0294445,32.7863825 C13.4511429,32.7863825 14.6037052,31.635753 14.6037052,30.2165484 C14.6037052,28.7973438 13.4511429,27.6468033 12.0294445,27.6468033 C10.6077461,27.6468033 9.45518382,28.7973438 9.45518382,30.2165484 C9.45518382,31.635753 10.6077461,32.7863825 12.0294445,32.7863825 Z M14.2999111,41.3904192 L18.0630942,45.1135516 C18.724884,45.773113 18.725686,46.8433211 18.0649656,47.5039501 C17.4042453,48.16449 16.3323347,48.1655576 15.6703667,47.5058183 L12.0168878,43.9542928 L8.69858153,47.4829551 C8.36634986,47.8269697 7.92316637,48 7.47953729,48 C7.05640533,48 6.6329169,47.8428048 6.30433908,47.5265463 C5.63114219,46.8785499 5.61162536,45.8085197 6.26076041,45.1365037 L9.83269637,41.4100797 C7.26975367,40.9150083 5.71411099,39.7057532 5.63399397,39.6416119 C4.90447455,39.0575789 4.78728446,37.9937759 5.37234371,37.2654472 C5.95731384,36.5372075 7.02289699,36.420223 7.75259464,37.004167 C7.76801205,37.0166216 9.39512731,38.2368191 12.0167987,38.2385983 C14.6385593,38.2368191 16.231988,37.0166216 16.2474054,37.004167 C16.977103,36.420223 18.0426862,36.5372075 18.6276563,37.2654472 C19.2127155,37.9937759 19.0955255,39.0575789 18.366006,39.6416119 C18.2869584,39.7048636 16.7929854,40.883427 14.2999111,41.3904192 Z" id="Combined-Shape-Copy" fill="#231F20" fill-rule="nonzero"></path>
        <path d="M12.0294445,48 C15.468773,48 18.2568276,50.783253 18.2568276,54.2164594 C18.2568276,57.6497549 15.468773,60.4331858 12.0294445,60.4331858 C8.59011602,60.4331858 5.80206142,57.6497549 5.80206142,54.2164594 C5.80206142,50.783253 8.59011602,48 12.0294445,48 Z M12.0294445,56.7863825 C13.4511429,56.7863825 14.6037052,55.635753 14.6037052,54.2165484 C14.6037052,52.7973438 13.4511429,51.6468033 12.0294445,51.6468033 C10.6077461,51.6468033 9.45518382,52.7973438 9.45518382,54.2165484 C9.45518382,55.635753 10.6077461,56.7863825 12.0294445,56.7863825 Z M14.2999111,65.3904192 L18.0630942,69.1135516 C18.724884,69.773113 18.725686,70.8433211 18.0649656,71.5039501 C17.4042453,72.16449 16.3323347,72.1655576 15.6703667,71.5058183 L12.0168878,67.9542928 L8.69858153,71.4829551 C8.36634986,71.8269697 7.92316637,72 7.47953729,72 C7.05640533,72 6.6329169,71.8428048 6.30433908,71.5265463 C5.63114219,70.8785499 5.61162536,69.8085197 6.26076041,69.1365037 L9.83269637,65.4100797 C7.26975367,64.9150083 5.71411099,63.7057532 5.63399397,63.6416119 C4.90447455,63.0575789 4.78728446,61.9937759 5.37234371,61.2654472 C5.95731384,60.5372075 7.02289699,60.420223 7.75259464,61.004167 C7.76801205,61.0166216 9.39512731,62.2368191 12.0167987,62.2385983 C14.6385593,62.2368191 16.231988,61.0166216 16.2474054,61.004167 C16.977103,60.420223 18.0426862,60.5372075 18.6276563,61.2654472 C19.2127155,61.9937759 19.0955255,63.0575789 18.366006,63.6416119 C18.2869584,63.7048636 16.7929854,64.883427 14.2999111,65.3904192 Z" id="Combined-Shape-Copy-2" fill="#FFFFFF" fill-rule="nonzero"></path>
        <rect id="Rectangle-Copy-6" x="0" y="0" width="24" height="24"></rect>
        <rect id="Rectangle-Copy-7" x="0" y="24" width="24" height="24"></rect>
        <rect id="Rectangle-Copy-8" x="0" y="48" width="24" height="24"></rect>
    </g>
</svg>
