<svg width="128px" height="107px" viewBox="0 0 128 107" version="1.1" xmlns="http://www.w3.org/2000/svg" xmlns:xlink="http://www.w3.org/1999/xlink">
    <g id="quote" stroke="none" stroke-width="1" fill="none" fill-rule="evenodd">
        <path d="M0,71.1945525 C0,61.0635032 2.10712179,51.10608 6.32142857,41.3219844 C10.5357354,31.5378888 16.9975755,22.8294804 25.7071429,15.1964981 C34.4167102,7.56351566 44.5308948,2.49806696 56.05,0 L59,10.2003891 C49.869002,14.0862711 42.6345505,19.6027529 37.2964286,26.75 C31.9583066,33.8972471 29.2892857,41.9117584 29.2892857,50.7937743 C37.0155148,50.7937743 43.3368802,53.3264987 48.2535714,58.3920233 C53.1702627,63.457548 55.6285714,69.876096 55.6285714,77.6478599 C55.6285714,85.6971868 52.9946692,92.6014628 47.7267857,98.3608949 C42.4589022,104.120327 35.891706,107 28.025,107 C19.0344789,107 12.1160957,103.530515 7.26964286,96.5914397 C2.42319005,89.6523648 0,81.1868204 0,71.1945525 Z M69,71.1945525 C69,61.0635032 71.0996231,51.10608 75.2989324,41.3219844 C79.4982416,31.5378888 85.9720796,22.8294804 94.7206406,15.1964981 C103.469202,7.56351566 113.582386,2.49806696 125.060498,0 L128,10.2003891 C118.901497,14.0862711 111.692791,19.6027529 106.373665,26.75 C101.05454,33.8972471 98.3950178,41.9117584 98.3950178,50.7937743 C106.093751,50.7937743 112.392621,53.3264987 117.291815,58.3920233 C122.191009,63.457548 124.640569,69.876096 124.640569,77.6478599 C124.640569,85.6971868 121.981047,92.6014628 116.661922,98.3608949 C111.342797,104.120327 104.763978,107 96.9252669,107 C87.9667405,107 81.0729779,103.530515 76.2437722,96.5914397 C71.4145666,89.6523648 69,81.1868204 69,71.1945525 Z" id="“" fill="#FFFFFF"></path>
    </g>
</svg>
