<svg width="24px" height="72px" viewBox="0 0 24 72" version="1.1" xmlns="http://www.w3.org/2000/svg" xmlns:xlink="http://www.w3.org/1999/xlink">
    <g id="Artboard" stroke="none" stroke-width="1" fill="none" fill-rule="evenodd">
        <path d="M13.4142136,12 L15.5355339,14.1213203 C15.9258568,14.5116433 15.9258568,15.145211 15.5355339,15.5355339 C15.145211,15.9258568 14.5116433,15.9258568 14.1213203,15.5355339 L12,13.4142136 L9.87867966,15.5355339 C9.48835671,15.9258568 8.85478904,15.9258568 8.46446609,15.5355339 C8.07414315,15.145211 8.07414315,14.5116433 8.46446609,14.1213203 L10.5857864,12 L8.46446609,9.87867966 C8.07414315,9.48835671 8.07414315,8.85478904 8.46446609,8.46446609 C8.85478904,8.07414315 9.48835671,8.07414315 9.87867966,8.46446609 L12,10.5857864 L14.1213203,8.46446609 C14.5116433,8.07414315 15.145211,8.07414315 15.5355339,8.46446609 C15.9258568,8.85478904 15.9258568,9.48835671 15.5355339,9.87867966 L13.4142136,12 Z" id="Fill-1" fill="#008F4C"></path>
        <path d="M13.4142136,36 L15.5355339,38.1213203 C15.9258568,38.5116433 15.9258568,39.145211 15.5355339,39.5355339 C15.145211,39.9258568 14.5116433,39.9258568 14.1213203,39.5355339 L12,37.4142136 L9.87867966,39.5355339 C9.48835671,39.9258568 8.85478904,39.9258568 8.46446609,39.5355339 C8.07414315,39.145211 8.07414315,38.5116433 8.46446609,38.1213203 L10.5857864,36 L8.46446609,33.8786797 C8.07414315,33.4883567 8.07414315,32.854789 8.46446609,32.4644661 C8.85478904,32.0741432 9.48835671,32.0741432 9.87867966,32.4644661 L12,34.5857864 L14.1213203,32.4644661 C14.5116433,32.0741432 15.145211,32.0741432 15.5355339,32.4644661 C15.9258568,32.854789 15.9258568,33.4883567 15.5355339,33.8786797 L13.4142136,36 Z" id="Fill-1-Copy" fill="#231F20"></path>
        <path d="M13.4142136,60 L15.5355339,62.1213203 C15.9258568,62.5116433 15.9258568,63.145211 15.5355339,63.5355339 C15.145211,63.9258568 14.5116433,63.9258568 14.1213203,63.5355339 L12,61.4142136 L9.87867966,63.5355339 C9.48835671,63.9258568 8.85478904,63.9258568 8.46446609,63.5355339 C8.07414315,63.145211 8.07414315,62.5116433 8.46446609,62.1213203 L10.5857864,60 L8.46446609,57.8786797 C8.07414315,57.4883567 8.07414315,56.854789 8.46446609,56.4644661 C8.85478904,56.0741432 9.48835671,56.0741432 9.87867966,56.4644661 L12,58.5857864 L14.1213203,56.4644661 C14.5116433,56.0741432 15.145211,56.0741432 15.5355339,56.4644661 C15.9258568,56.854789 15.9258568,57.4883567 15.5355339,57.8786797 L13.4142136,60 Z" id="Fill-1-Copy-2" fill="#FFFFFF"></path>
        <rect id="Rectangle-Copy-15" x="0" y="0" width="24" height="24"></rect>
        <rect id="Rectangle-Copy-16" x="0" y="24" width="24" height="24"></rect>
        <rect id="Rectangle-Copy-17" x="0" y="48" width="24" height="24"></rect>
    </g>
</svg>
