<?xml version="1.0" encoding="UTF-8"?>
<svg width="24px" height="72px" viewBox="0 0 24 72" version="1.1" xmlns="http://www.w3.org/2000/svg" xmlns:xlink="http://www.w3.org/1999/xlink">
    <!-- Generator: Sketch 53.2 (72643) - https://sketchapp.com -->
    <title>Artboard</title>
    <desc>Created with Sketch.</desc>
    <g id="Artboard" stroke="none" stroke-width="1" fill="none" fill-rule="evenodd">
        <path d="M24,4.36764175 C23.1181546,4.76923077 22.1686917,5.04080896 21.1727417,5.1621524 C22.1898222,4.5381004 22.9702412,3.54857349 23.3379116,2.3698086 C22.3856313,2.94763453 21.3333333,3.36800289 20.2091918,3.593355 C19.3132594,2.61249549 18.0327522,2 16.6156013,2 C13.8982215,2 11.693608,4.26074395 11.693608,7.04875406 C11.693608,7.44456482 11.735869,7.82881907 11.8203909,8.19862766 C7.72812115,7.9877212 4.10072196,5.97977609 1.67071668,2.92163236 C1.24669836,3.66991694 1.00440218,4.5381004 1.00440218,5.46262189 C1.00440218,7.21343445 1.87356929,8.75911882 3.19492868,9.66486096 C2.38915302,9.64030336 1.62845571,9.41061755 0.963549921,9.0350307 L0.963549921,9.09714698 C0.963549921,11.5442398 2.66103187,13.5854099 4.91494982,14.0476706 C4.50220109,14.166125 4.06691319,14.2253521 3.6175383,14.2253521 C3.30058109,14.2253521 2.99066737,14.1950163 2.69061454,14.1357891 C3.31748547,16.1408451 5.13470681,17.6013001 7.29001585,17.6403034 C5.60521219,18.9953052 3.48089452,19.8028169 1.17485473,19.8028169 C0.77760169,19.8028169 0.384574749,19.7797039 0,19.7334778 C2.17925691,21.163597 4.76844515,22 7.54780771,22 C16.6057404,22 21.5573164,14.3076923 21.5573164,7.63524738 C21.5573164,7.41567353 21.5530903,7.19609967 21.5446381,6.98085952 C22.5067794,6.26868906 23.3421377,5.38028169 24,4.36764175" id="Twitter" fill="#008F4C"></path>
        <path d="M24,28.3676417 C23.1181546,28.7692308 22.1686917,29.040809 21.1727417,29.1621524 C22.1898222,28.5381004 22.9702412,27.5485735 23.3379116,26.3698086 C22.3856313,26.9476345 21.3333333,27.3680029 20.2091918,27.593355 C19.3132594,26.6124955 18.0327522,26 16.6156013,26 C13.8982215,26 11.693608,28.260744 11.693608,31.0487541 C11.693608,31.4445648 11.735869,31.8288191 11.8203909,32.1986277 C7.72812115,31.9877212 4.10072196,29.9797761 1.67071668,26.9216324 C1.24669836,27.6699169 1.00440218,28.5381004 1.00440218,29.4626219 C1.00440218,31.2134345 1.87356929,32.7591188 3.19492868,33.664861 C2.38915302,33.6403034 1.62845571,33.4106176 0.963549921,33.0350307 L0.963549921,33.097147 C0.963549921,35.5442398 2.66103187,37.5854099 4.91494982,38.0476706 C4.50220109,38.166125 4.06691319,38.2253521 3.6175383,38.2253521 C3.30058109,38.2253521 2.99066737,38.1950163 2.69061454,38.1357891 C3.31748547,40.1408451 5.13470681,41.6013001 7.29001585,41.6403034 C5.60521219,42.9953052 3.48089452,43.8028169 1.17485473,43.8028169 C0.77760169,43.8028169 0.384574749,43.7797039 0,43.7334778 C2.17925691,45.163597 4.76844515,46 7.54780771,46 C16.6057404,46 21.5573164,38.3076923 21.5573164,31.6352474 C21.5573164,31.4156735 21.5530903,31.1960997 21.5446381,30.9808595 C22.5067794,30.2686891 23.3421377,29.3802817 24,28.3676417" id="Twitter-Copy" fill="#231F20"></path>
        <path d="M24,52.3676417 C23.1181546,52.7692308 22.1686917,53.040809 21.1727417,53.1621524 C22.1898222,52.5381004 22.9702412,51.5485735 23.3379116,50.3698086 C22.3856313,50.9476345 21.3333333,51.3680029 20.2091918,51.593355 C19.3132594,50.6124955 18.0327522,50 16.6156013,50 C13.8982215,50 11.693608,52.260744 11.693608,55.0487541 C11.693608,55.4445648 11.735869,55.8288191 11.8203909,56.1986277 C7.72812115,55.9877212 4.10072196,53.9797761 1.67071668,50.9216324 C1.24669836,51.6699169 1.00440218,52.5381004 1.00440218,53.4626219 C1.00440218,55.2134345 1.87356929,56.7591188 3.19492868,57.664861 C2.38915302,57.6403034 1.62845571,57.4106176 0.963549921,57.0350307 L0.963549921,57.097147 C0.963549921,59.5442398 2.66103187,61.5854099 4.91494982,62.0476706 C4.50220109,62.166125 4.06691319,62.2253521 3.6175383,62.2253521 C3.30058109,62.2253521 2.99066737,62.1950163 2.69061454,62.1357891 C3.31748547,64.1408451 5.13470681,65.6013001 7.29001585,65.6403034 C5.60521219,66.9953052 3.48089452,67.8028169 1.17485473,67.8028169 C0.77760169,67.8028169 0.384574749,67.7797039 0,67.7334778 C2.17925691,69.163597 4.76844515,70 7.54780771,70 C16.6057404,70 21.5573164,62.3076923 21.5573164,55.6352474 C21.5573164,55.4156735 21.5530903,55.1960997 21.5446381,54.9808595 C22.5067794,54.2686891 23.3421377,53.3802817 24,52.3676417" id="Twitter-Copy-2" fill="#FFFFFF"></path>
        <rect id="Rectangle-Copy-3" x="0" y="0" width="24" height="24"></rect>
        <rect id="Rectangle-Copy-4" x="0" y="24" width="24" height="24"></rect>
        <rect id="Rectangle-Copy-5" x="0" y="48" width="24" height="24"></rect>
    </g>
</svg>