<svg width="24px" height="72px" viewBox="0 0 24 72" version="1.1" xmlns="http://www.w3.org/2000/svg" xmlns:xlink="http://www.w3.org/1999/xlink">
    <g id="Artboard" stroke="none" stroke-width="1" fill="none" fill-rule="evenodd">
        <path d="M23.4493491,6.01565789 C23.6160755,5.43026316 23.4493491,5 22.6552887,5 L20.0296758,5 C19.3620199,5 19.0542606,5.37164474 18.8873466,5.78138158 C18.8873466,5.78138158 17.5522225,9.20651316 15.6606559,11.43125 C15.0487005,12.0752632 14.7705731,12.2801316 14.4367452,12.2801316 C14.2698312,12.2801316 14.0282748,12.0752632 14.0282748,11.4898684 L14.0282748,6.01565789 C14.0282748,5.31302632 13.8345421,5 13.2780997,5 L9.15213651,5 C8.7348516,5 8.48391802,5.32605263 8.48391802,5.63513158 C8.48391802,6.30105263 9.42970131,6.45480263 9.52722407,8.32822368 L9.52722407,12.3973684 C9.52722407,13.2894737 9.37418835,13.4513158 9.04036042,13.4513158 C8.15027763,13.4513158 5.98508468,10.0107895 4.70097241,6.07427632 C4.44928866,5.30907895 4.19685473,5 3.52582308,5 L0.900210149,5 C0.150035025,5 0,5.37164474 0,5.78138158 C0,6.51322368 0.890082784,10.1432237 4.14453002,14.9442105 C6.31422402,18.2226974 9.37118765,20 12.152837,20 C13.8217891,20 14.0282748,19.6052632 14.0282748,18.9253289 L14.0282748,16.4473684 C14.0282748,15.6578947 14.1863742,15.5003947 14.7148726,15.5003947 C15.1042135,15.5003947 15.7718693,15.7052632 17.329608,17.2859868 C19.1099611,19.1596053 19.4034671,20 20.4047634,20 L23.0303763,20 C23.7805514,20 24.155639,19.6052632 23.9392135,18.82625 C23.7025332,18.0498026 22.8523973,16.9234211 21.7246965,15.5882237 C21.1127411,14.8269737 20.1947143,14.0075 19.9165869,13.5975658 C19.5270585,13.0705921 19.6384595,12.8363158 19.9165869,12.3679605 C19.9165869,12.3679605 23.1155212,7.62578947 23.4493491,6.01565789" id="Fill-7" fill="#008F4C"></path>
        <path d="M23.4493491,30.0156579 C23.6160755,29.4302632 23.4493491,29 22.6552887,29 L20.0296758,29 C19.3620199,29 19.0542606,29.3716447 18.8873466,29.7813816 C18.8873466,29.7813816 17.5522225,33.2065132 15.6606559,35.43125 C15.0487005,36.0752632 14.7705731,36.2801316 14.4367452,36.2801316 C14.2698312,36.2801316 14.0282748,36.0752632 14.0282748,35.4898684 L14.0282748,30.0156579 C14.0282748,29.3130263 13.8345421,29 13.2780997,29 L9.15213651,29 C8.7348516,29 8.48391802,29.3260526 8.48391802,29.6351316 C8.48391802,30.3010526 9.42970131,30.4548026 9.52722407,32.3282237 L9.52722407,36.3973684 C9.52722407,37.2894737 9.37418835,37.4513158 9.04036042,37.4513158 C8.15027763,37.4513158 5.98508468,34.0107895 4.70097241,30.0742763 C4.44928866,29.3090789 4.19685473,29 3.52582308,29 L0.900210149,29 C0.150035025,29 0,29.3716447 0,29.7813816 C0,30.5132237 0.890082784,34.1432237 4.14453002,38.9442105 C6.31422402,42.2226974 9.37118765,44 12.152837,44 C13.8217891,44 14.0282748,43.6052632 14.0282748,42.9253289 L14.0282748,40.4473684 C14.0282748,39.6578947 14.1863742,39.5003947 14.7148726,39.5003947 C15.1042135,39.5003947 15.7718693,39.7052632 17.329608,41.2859868 C19.1099611,43.1596053 19.4034671,44 20.4047634,44 L23.0303763,44 C23.7805514,44 24.155639,43.6052632 23.9392135,42.82625 C23.7025332,42.0498026 22.8523973,40.9234211 21.7246965,39.5882237 C21.1127411,38.8269737 20.1947143,38.0075 19.9165869,37.5975658 C19.5270585,37.0705921 19.6384595,36.8363158 19.9165869,36.3679605 C19.9165869,36.3679605 23.1155212,31.6257895 23.4493491,30.0156579" id="Fill-7-Copy" fill="#231F20"></path>
        <path d="M23.4493491,54.0156579 C23.6160755,53.4302632 23.4493491,53 22.6552887,53 L20.0296758,53 C19.3620199,53 19.0542606,53.3716447 18.8873466,53.7813816 C18.8873466,53.7813816 17.5522225,57.2065132 15.6606559,59.43125 C15.0487005,60.0752632 14.7705731,60.2801316 14.4367452,60.2801316 C14.2698312,60.2801316 14.0282748,60.0752632 14.0282748,59.4898684 L14.0282748,54.0156579 C14.0282748,53.3130263 13.8345421,53 13.2780997,53 L9.15213651,53 C8.7348516,53 8.48391802,53.3260526 8.48391802,53.6351316 C8.48391802,54.3010526 9.42970131,54.4548026 9.52722407,56.3282237 L9.52722407,60.3973684 C9.52722407,61.2894737 9.37418835,61.4513158 9.04036042,61.4513158 C8.15027763,61.4513158 5.98508468,58.0107895 4.70097241,54.0742763 C4.44928866,53.3090789 4.19685473,53 3.52582308,53 L0.900210149,53 C0.150035025,53 0,53.3716447 0,53.7813816 C0,54.5132237 0.890082784,58.1432237 4.14453002,62.9442105 C6.31422402,66.2226974 9.37118765,68 12.152837,68 C13.8217891,68 14.0282748,67.6052632 14.0282748,66.9253289 L14.0282748,64.4473684 C14.0282748,63.6578947 14.1863742,63.5003947 14.7148726,63.5003947 C15.1042135,63.5003947 15.7718693,63.7052632 17.329608,65.2859868 C19.1099611,67.1596053 19.4034671,68 20.4047634,68 L23.0303763,68 C23.7805514,68 24.155639,67.6052632 23.9392135,66.82625 C23.7025332,66.0498026 22.8523973,64.9234211 21.7246965,63.5882237 C21.1127411,62.8269737 20.1947143,62.0075 19.9165869,61.5975658 C19.5270585,61.0705921 19.6384595,60.8363158 19.9165869,60.3679605 C19.9165869,60.3679605 23.1155212,55.6257895 23.4493491,54.0156579" id="Fill-7-Copy-2" fill="#FFFFFF"></path>
        <rect id="Rectangle-Copy-7" x="0" y="0" width="24" height="24"></rect>
        <rect id="Rectangle-Copy-8" x="0" y="24" width="24" height="24"></rect>
        <rect id="Rectangle-Copy-9" x="0" y="48" width="24" height="24"></rect>
    </g>
</svg>
