<?xml version="1.0" encoding="UTF-8"?>
<svg width="24px" height="72px" viewBox="0 0 24 72" version="1.1" xmlns="http://www.w3.org/2000/svg" xmlns:xlink="http://www.w3.org/1999/xlink">
    <!-- Generator: Sketch 53.2 (72643) - https://sketchapp.com -->
    <title>Artboard</title>
    <desc>Created with Sketch.</desc>
    <g id="Artboard" stroke="none" stroke-width="1" fill="none" fill-rule="evenodd">
        <path d="M9.522,15.635 L9.5215,8.844 L16.006,12.251 L9.522,15.635 Z M23.76,7.667 C23.76,7.667 23.525,6.0015 22.806,5.2685 C21.8935,4.3055 20.87,4.3005 20.4015,4.245 C17.043,4 12.0055,4 12.0055,4 L11.9945,4 C11.9945,4 6.957,4 3.5985,4.245 C3.129,4.3005 2.1065,4.3055 1.1935,5.2685 C0.474,6.0015 0.24,7.667 0.24,7.667 C0.24,7.667 0,9.6235 0,11.579 L0,13.413 C0,15.3695 0.24,17.325 0.24,17.325 C0.24,17.325 0.474,18.99 1.1935,19.7235 C2.1065,20.687 3.306,20.6565 3.84,20.757 C5.76,20.9425 12,21 12,21 C12,21 17.043,20.9925 20.4015,20.748 C20.87,20.691 21.8935,20.687 22.806,19.7235 C23.525,18.99 23.76,17.325 23.76,17.325 C23.76,17.325 24,15.3695 24,13.413 L24,11.579 C24,9.6235 23.76,7.667 23.76,7.667 L23.76,7.667 Z" id="Fill-1" fill="#008F4C"></path>
        <path d="M9.522,39.635 L9.5215,32.844 L16.006,36.251 L9.522,39.635 Z M23.76,31.667 C23.76,31.667 23.525,30.0015 22.806,29.2685 C21.8935,28.3055 20.87,28.3005 20.4015,28.245 C17.043,28 12.0055,28 12.0055,28 L11.9945,28 C11.9945,28 6.957,28 3.5985,28.245 C3.129,28.3005 2.1065,28.3055 1.1935,29.2685 C0.474,30.0015 0.24,31.667 0.24,31.667 C0.24,31.667 0,33.6235 0,35.579 L0,37.413 C0,39.3695 0.24,41.325 0.24,41.325 C0.24,41.325 0.474,42.99 1.1935,43.7235 C2.1065,44.687 3.306,44.6565 3.84,44.757 C5.76,44.9425 12,45 12,45 C12,45 17.043,44.9925 20.4015,44.748 C20.87,44.691 21.8935,44.687 22.806,43.7235 C23.525,42.99 23.76,41.325 23.76,41.325 C23.76,41.325 24,39.3695 24,37.413 L24,35.579 C24,33.6235 23.76,31.667 23.76,31.667 L23.76,31.667 Z" id="Fill-1-Copy" fill="#231F20"></path>
        <path d="M9.522,63.635 L9.5215,56.844 L16.006,60.251 L9.522,63.635 Z M23.76,55.667 C23.76,55.667 23.525,54.0015 22.806,53.2685 C21.8935,52.3055 20.87,52.3005 20.4015,52.245 C17.043,52 12.0055,52 12.0055,52 L11.9945,52 C11.9945,52 6.957,52 3.5985,52.245 C3.129,52.3005 2.1065,52.3055 1.1935,53.2685 C0.474,54.0015 0.24,55.667 0.24,55.667 C0.24,55.667 0,57.6235 0,59.579 L0,61.413 C0,63.3695 0.24,65.325 0.24,65.325 C0.24,65.325 0.474,66.99 1.1935,67.7235 C2.1065,68.687 3.306,68.6565 3.84,68.757 C5.76,68.9425 12,69 12,69 C12,69 17.043,68.9925 20.4015,68.748 C20.87,68.691 21.8935,68.687 22.806,67.7235 C23.525,66.99 23.76,65.325 23.76,65.325 C23.76,65.325 24,63.3695 24,61.413 L24,59.579 C24,57.6235 23.76,55.667 23.76,55.667 L23.76,55.667 Z" id="Fill-1-Copy-2" fill="#FFFFFF"></path>
        <rect id="Rectangle-Copy-5" x="0" y="0" width="24" height="24"></rect>
        <rect id="Rectangle-Copy-6" x="0" y="24" width="24" height="24"></rect>
        <rect id="Rectangle-Copy-7" x="0" y="48" width="24" height="24"></rect>
    </g>
</svg>